<svg id="map" xmlns="http://www.w3.org/2000/svg" xmlns:xlink="http://www.w3.org/1999/xlink" viewBox="0 0 979.62 1016.24"><defs><style>.cls-1{fill:#f0f0f0;}.cls-1,.cls-10,.cls-2,.cls-5,.cls-7{stroke:#f7fcfd;stroke-width:0.84px;}.cls-1,.cls-10,.cls-12,.cls-14,.cls-2,.cls-5,.cls-7{stroke-linecap:round;stroke-linejoin:round;}.cls-2{fill:#e699ff;}.cls-11,.cls-13,.cls-3,.cls-4,.cls-6,.cls-8,.cls-9{isolation:isolate;}.cls-4{font-size:28.63px;}.cls-10,.cls-11,.cls-21,.cls-4,.cls-6,.cls-8{fill:#020c56;}.cls-11,.cls-4,.cls-6,.cls-8{font-family:GillSansMT, Gill Sans MT;}.cls-5{fill:#dd58a1;}.cls-6{font-size:23.02px;}.cls-7{fill:#83ff95;}.cls-8{font-size:21.72px;}.cls-9{font-size:36.2px;fill:#ea073d;font-family:GillSansMT-BoldItalic, Gill Sans MT;font-style:italic;}.cls-13,.cls-9{font-weight:700;}.cls-11{font-size:18.3px;}.cls-12{stroke:#222;stroke-width:0.6px;}.cls-13{font-size:8px;fill:#efefef;font-family:CenturyGothic-Bold, Century Gothic;}.cls-14{fill:none;stroke:#00b000;stroke-width:2.5px;}.cls-15{fill:#00b000;}.cls-16{fill:#171b3a;}.cls-17{fill:#fff;}.cls-18{fill:url(#linear-gradient);}.cls-19{fill:url(#linear-gradient-2);}.cls-20{fill:url(#linear-gradient-3);}</style><linearGradient id="linear-gradient" x1="759.84" y1="132.35" x2="775.43" y2="132.35" gradientUnits="userSpaceOnUse"><stop offset="0" stop-color="#bd1e2d"/><stop offset="0.16" stop-color="#cd1d2a"/><stop offset="0.41" stop-color="#de1d27"/><stop offset="0.68" stop-color="#e91c25"/><stop offset="1" stop-color="#ec1c24"/></linearGradient><linearGradient id="linear-gradient-2" x1="744.17" y1="132.36" x2="759.85" y2="132.36" gradientUnits="userSpaceOnUse"><stop offset="0" stop-color="#929497"/><stop offset="0.03" stop-color="#999b9e"/><stop offset="0.2" stop-color="#b8babc"/><stop offset="0.38" stop-color="#d1d2d3"/><stop offset="0.56" stop-color="#e2e3e4"/><stop offset="0.76" stop-color="#edeeee"/><stop offset="1" stop-color="#f0f1f1"/></linearGradient><linearGradient id="linear-gradient-3" x1="727.43" y1="132.04" x2="741.94" y2="132.04" gradientUnits="userSpaceOnUse"><stop offset="0" stop-color="#006838"/><stop offset="0.04" stop-color="#006d3a"/><stop offset="0.25" stop-color="#008644"/><stop offset="0.48" stop-color="#00974b"/><stop offset="0.72" stop-color="#00a250"/><stop offset="1" stop-color="#00a551"/></linearGradient></defs><path id="Iran" class="cls-1" d="M476.85,203.54l1.41.38L479,205,480,207.7l.88.87v.49l2.11,1.27,1.16,1.2,1.06,1.7.7,1.75.5-.17,2.18.7,1.48.78v.7l1,.67.49,1,.77.59V220l.42.6,2,.88,2,.31h1.87l1.58.57,4.33.81,1.48.59,1.41.29,1.27-.29,1.76-1.3,1.8-.17,2.57,1,.78-.21.91-1.27.28-1.19.49-.7,1.26-1,.42-1.27.58-.7.81-1.6.59-.16,1.16.27,1.1-.87.39-1.49.59-1.75.89-.71,1.79-.89.7-.49,1.27-2.11L530,206l2-.79.76-1.09,2.47-1.76.88-1.3.71-.49h1.57l.51-.6.77.28,1.47,1.2,4.16,4.15,1.69,1.27,1.41,1.76-.7.36-.92.76-1.15.29-1,1-.31.78.21,1,1,1.41,1.48,1.15,1.59.82,1,1.66v1.4l-.81.6-3.52.78v.6l-1,1,.21,1.15.6.82,1.48,1,3,1.4.59.78.11,1,2,1.65h.71l1.37-.49.56,1.3,4.48,4.61h1l1-.34,1.16-1,2,.21.49,2.36v.88l.6,2,.6,1,1,3.37,1.41,3.17.07,1.16.39,1,1,1.2v.77l1.09,2,1.41,1.69,1.66,1.48,1.7,1.06,3.51,1.79,1.7.5,7.91,1,2-.7.17.63,1.9.57,2.75.6,1,.42.82.57.07,1,1.41,2.29.78,1.48.76,1,2.58,2,1.3,1.2.7.28,2.54,1.59.81.28,1,1,3.67,1.76,3.33,2.12,1.87.76,5.92,1.1,3.77,1,3.94.7,3.77,1,3.52-.6,3.06-1.48,3.28-1,6.69-1.76,6.33-2.46,6.35-1.81.88-.21,7.78-.77,1.41-.39.77-1,.11,1.05-1,.5-1.4.21-1,.49-.93-.21-1,.42L669.2,274l-.49.36.7.81,1,.42,3.17.18.67.31,2.36-.81.21-.7-.6-2.82-1-.81.28-1.4-1.15-1.76-1-2.26-1.19-2.18-.71-2.29,5.64.32.7-.21.6-.71h1.37l.6-.28,3-2.25,1.65.17.71-.17.38-.6,1.76-1.7.15-1.26-.11-1-.81-1.41.1-1.86.61-1.16,2.57-2.41.7-1.05v-.7l.78-.31.28-1,1.68-.49.4-.71,1.09-.46,2-1.9,1.58-.28,3.78-1,2,.21,1.15.49h1l1.59.49,2.78-.7,2,.49,1.59-.39.28-1.19-1-1.17.11-.42,1-1.26,1.16-.89h1.91l1.26.5,1.69-.92,1.06-.18,2.12,1.16,3.17.49,1.26.42,1-1,.49-1,.5-.61,1,.29,1.62,2.4,1.15,1.15,1,1.42.32.94v1.49l.56.7,3.17,1.2,1-.32,1.41.32,1.55-.11,1,.5.7.1.78.78,1-.18.7.18,3.57,1.47,2.07.43,1,.35,1,2.6.82.49,1.69.18,1.15.6,2-.49.5-1.26,1-.21,1.16,1,1,.28h1l.31-.36h1l.17-1,1.42.71,1.65.28,1.2.6,1.2.28.77.7,3.17,2,1.47-.5h.5l1,1,.6,1.58v.78l1,2.46,2.47,2.12v.78l1.16.59.6-.31.7.49.7,1.41.5.07.71-.71,3.12,1,2.36,1.58,1.76.28.82.28.88.92,1.2,1.65,1.26,1.59,2.79,2.78.59.7,1.66,2.47.7.35,14.73-.78,1.86.32.81,1.55v1.76l.36.7v2.3l.34,1.41.36,1,.7.61.6,1.47.39.5,1,2.86v1.58l-.49.39.28,1.09-.7,1,1.41.5.77.8.91,1.27.88,3,.11,2.68,1.06,1.47,1,2-.5,1.68-.21,1.67-.21,1.57.42,1.42-.42.77-1,.39.35,2.57,1.12,1.2.36,1-.36,1.27.18,3-.18.92.36,1,.21,2-.57.18-.21,1.3-.77,1,.35,1.47-.07,1h-.78l-1,2-.81.39-1.58.49.81,1.58.77.39,3.06,3.46.29.48-4.93.5.31.59-1,1-1,1.91-.31,1.26.1,1.31,1,2.64,1.4,4.23.18,1-.21,1.66v1l1,2,1.58,1.27,1.76.77h1.69l1.48-.07,1.48.18,1.09,1-.35.5-1.3.42.35,1.26-.07.89-1,1L831.5,372l.5,2.56.59,1.77L839.22,390l3,6.62.49,2.29.11,2.64-.39,1.3,1,2.46.18,1.66,1.09,4,.21,2,.78,2,.81,2.57.7.35,17.26,2.29,1,.49,1.26,1.58.22,1.77,1,1.62.7,1.65,1.17,2.36.1,1-.21,1,.6,2.26-.18,1.4-4.86,9.44L858,458.85l-2.12,3.88,3.5,3.62,7.88,8.53,1.48,1,.31.57V478l.36,1,1.23,1.4.77,1.55.71.21.71,1.3.56.29V485l1,.8,1.31,2.26.49,1.48.77.7.88,1.58.82.78,2.57,2.29,1,1.26,2.47,2.3,1.78.6,1.78.77,2.1.29,1.94.91,2.89.49.56.36.92,1,1,.49.87,1.4,1.6,1.56.49.28,3.24-.88.49.31.32,1,.49,5.91,1.76,4.66,2.47,9.15V528l-.5,2.95.5.6.1,1.48-.49.21,1.47,1.06.71-.18.6.28,1.27.11,1.68-.39,1-.38h1.16l1.09-.5,2,1,1,1,1,1.75-1.26.11-.29,1.76.71,3.07.84,1.41-.28,1-.77.08-.42.7.59,3.94v1.2l-.35.49-.81-.31-.82.21-1.67-.21h-4.94l-.6.91-1,.49-.7-.21-.84.7-3.46.6-.7.78h-.81l-1,1,.21.78-.71,1.58.6,1.59-.39.31-2.68-.59-.35,1.65-1.62.61-.6.6-2.46,1-.35.39-.25,1.57.49,9.17-.28,1-1.2.21-.28.78.7,2.08v1l-.42,1.27,1,9.09-.18,2.29-.39-.81-1.9,1.09,1,.6-.28,1.27-1.2,1.09-.36.81-3.76-1.41-1.3-.28-.49-1-3.17-1.26-3.63-.6-3.06-.81-2-.18-.91-1.48-.5-2.18-1.26-1h-.71l-1.66.78-.59,1.09.28,1,.7.21,1,1-.29.21-2.1-1h-.95l-1.2-1.3-1.48.21.39,1.47-2-.49-1-.81-2.85.39-.71.7-1-.28-1-1-1-.32L852,587l-1.68-.42L849,585.45l-.81-.49-5.32,1.15-1.09.72-1-.21-1.47.21-.71-.5-2-2.57-.88-.38h-1l-.61-1-1.87.11-3.94-.71-1.3.28h-1.2l-.28-.71-1.26.21-.71.72-.6-.11-1,.38-.7.61-.7.21-2.12-.5-1.23-1-1-1.7-.7-.87-.84-.21-1.59.81-1,1h-.42v-1.76l-.36-.76-.92-.5-2.08.35-1-.24-1.47.06-1.42-.7-2.82-.07-.49-.6-.42-1.41-1.37-2.92-.88-1h-.5L797,568.65v-.59l.7-1.38-.41-1L795.59,564l-.6-2.15-1-1.59-.5-1.31-.21-3.45-.28-1.25-2.4-6.42-1.16-1.2-.39-.88-.71-.49.71-.6-.32-.49-.88-.11-.78-.7-.49.11-.31-1,.39-.6-1.16-.71-.71-1.15-.49.38-.88-.1-.71-.57H780l-1.2-.42-2-.17-2-.6-1.87.27-.81.71-2,.28-.38,1-2,1.68-.88,1.1-2,.49h-.91l-.71.5-1.65-.21-1.41,1.4-.35,1,.17,1.59-.28,1.3-1.3,1.27-1.87.21-1.76-.7-1-.1-.71.49-.38,1.4-2,.71-3.17,3.62-2,1.6-.5.49-1.09-.21-1.76.21-1-.21-.77-1.38-.78-.71-1-.17-1.9.17-.78-.49-1.48-2.36-.7-.6-3.35.32-2.1-.6-.46-.39h-.88l-1.31.78-2.15.49-1.47-.28-.82.18-1.26-1.05-1.7-1-2.36-1.9-.59-1-.21-1.26-.71-1-.77-.49-7.62-2.67-1-.21-.88-1.17-1.26-.31-.49-.88-1.49-.6-2-1.76-.88-.49-3-1.42-.6-1,.39-.61h1.3l.21-.37-.6-1-1.3-.6-1-1.47-1.76-1.9-1.58-1-3.94-.88-.88-.39-2.9-2.67-1.76-1-1-.1-1.46.21-.82-.39-2.75.7-3-.6-.49-.8L669.8,522l-1.2-1.48-1,.49-.71-1.69-2-3.17-1-.88-.17-.5.17-1.57-.71-1.49-1-1.05-1-1.41-1-1-1.88-3.7-.3-.81-.6-3.52-.34-1.2-1.31-1.68-.81-.5-2.18-.28-.49-.91-1.17-1.38-.49-1.27.28-1,1,.57h.6l.49-.72.1-.94-.38-1-1.2-1.19L651,489l-.29-1-.59-.11-2,.17-.49.42-1.09-.48-.49-1.42.28-1.57.6.21V484l-.78-.82-.1-1.76-.6-1.75-.88-1.21-.39.28-.81-1-1.2-1-1-1.4-.7-.78-1.33-.49-.42-.78L637,471.14l-2-2.74-1.41-1-.94-1-.43-1.19v-1.48l-.71-1.59v-.71l-1-1.26-.4-.81-1.09-.5-.81-.07-1.48.49-5.7,4.93-.71.4-.77-.21-.72-1-.27-1.65-.61-1-1.19-.31-.88.21-.81-.32-1.05.5-1.2-.18-.21-1.2-1-.77-.7.38-.88-.88-.88-.21-1.87-1.15-.7-1.42-1.27-.49.49-.6h1.26l1-.28,2.57,1,.71.7.77-2.18-1-1.26-1.26-1-.61.29-2.18-.5H606l-.6,1,1.26.43.82.88-.32.5h-1.76l-1,1.19-.21.78.28,1.4,1.41,1.17.77,2.28v1.6l.21.76-.31,1-.71.61-1.44-.21h-2.18l-1-.51-.31.39.59,1.31-.07.49-.81.5H599l-.88-.39-1-.82-1-2.14-.6-.92-.49-1.05.39-.71-.35-1.09-1.7-1.68-.59-.79-.81-.28h-1.48l-1.26-2.78-1-.7-2.19-.29-.17-.88-2-13.14-.35-.49-6.83.11L575,427.4l1.58-9.85v-1.22l-1.75-1.57-.49-.89-.61-.39-1.09-1.69-.49-1-1.2-.78-1-1.79-.82-.21-1.2-1v-1.27l-.6-1.06L565,402l.28-1.05-2-2.19-2-.71-1.16.71H558.8l-1.37-.87-7.23-6-1-1-1.59-1-1-.78-2.26-1.26-.7-.6-2.25-1-2.29-.81-2.36.39-1.27-.18-.6-1,.77-1.09-.17-.88-.7-.39-1-.11v-1H535l1-1.41-.59-2.57-1.09-.88-1-1.26-1-.71L532,373l-.57-.95-1.19-1.2-1,.6-1.13-.39,1.09-1.19v-1l-1-.77v-.81l-1.47.1-.78.88-.81.21-.39-1.41-1.48-1.05-.59-1-.71-1.41-1-.94L518.51,359h-1.16l-1-.89.6-.59.35-2,1.41-1.69v-.71l-.39-1,.18-.78.11-1.3-.29-1.27-.38-.59-1-.29-.31.39-.78-.88-1-2.18,1.16-.71.31-.77-.48-2.68,2.26.81,2,.17-.71-2.75-.56-1-1-.81.6-1.15V335l1.26-.7-.11-2h.4l1.3.6.18-.49.11-1.69-.5-1.48.81-.77v-1l2.15.7,1-.8,1.58-.39-.49-.91.49-1.56v-.7l-1.15-.31-.51-.57.36-1.09L525,321l-2-1.65-1.58-2.29-.36-.78.18-1-.6-1.41.71-.18-.5-2,.71-1H523l1.37-.71h1.16l.5-.77.81-.81-.11-1.27-.88-.31-.6.49-1.19.42-.88-.11-.7-1-1.27-.39-1,.49-2.57.18-1.2.7-.56-.31-.7.31-.72-.49-.76-1.4-1.21-1.38-1.25-.71-1.21-.94-1.87-.42-1.68,1H506l-.6-.87.32-2.08-1.05-1.47-.64-2.37-.78-.6.18-.7-.7-1-.18-1.2-.6-1.3-1-.5-1.59.6-.88-.6-1-2-1.17-1,.29-.71v-1.44l.21-1L496.4,284l-1-1.42-1-.27-.72-.61h-.91l-1-.35v-1.19l.7-1.42V278l-.7-1.55v-1.57l-.92-.51-.7.11-.95-1-.5-1,.08-.71-.5-1.47v-1l.6-.81-.1-1-.57-.5-1.3-.77-.71-1-.66.11-.72-1-1-.31-.6-.6.11-.78-.35-1v-2l-.15-.49-1-.77-.11-.82.7-1v-.6l-.88-1-1.19-.6-1,.32-.6-.89-.59-.2-.78-1.2-1.26-.57h-2l-.49-.49.28-1-.21-1,.6-1.76.31-1.3.71-.57-.35-.81.63-.6V243l-.32-1.27,1-1.3.39-.72-.29-.94-.7-.49-1.15.28-1.59-.39-.39-2v-1.59l-.42-1.41-.18-1.65-.6-.71-1-1.94.21-2.6-.21-.77-1.2-.5-.78-.7-.59-1.48-1-1.37.6-1.06-.39-1.09.28-1.3-.28-.71L464.67,216v-1l-1.3-2.74-.78-1,.78-.81h1.19l1.47-.29,1.49.72h1l1-.61.49-.92-.28-1,.07-1-.28-1.86.39-1.41-.18-1.94,1.76-2,.78.07,1,1.2,1.3.6ZM740.18,564l.6.6-.32,1-.77-.28-.21-1Zm-11-4.62-1.7-.1-.77-.39-.6-.82.77-.76,2,.27.5,1Zm-16.49-8.21-.7.18-1.27-.18-1.48-1,.29-.6,1.86.6,1.58.1Zm63.18-2.46.29-1.3,1.3-.36.21.84-.5.61Zm-3-4.65,1,.39.78,1-.57.39-1.3.41-.39.5-.39,1.76-1,1.69-.7.49-1.21,1.58-.49.36-1.66-1.15-2,1.46-1.47-.1-.82.42-1,1-1.05.59-1,.88-1.26.18-2.79,1.3-.59-1.05v-.8L754.8,554l1.47.31,1-.81,3.35-1.4,1.19-1,1.27-.71h.7l.5-.78.28-1-.57-1.68-1-.88.49-.39,3.18,1.26.76-.28,2-1.69,2.56-.77Zm4.92-3,.81.49v1l-.6.2-.7-.2v-.71ZM639,484.63l.6.39.1,1-.48.21-.71-1.47Zm128.54,68.52.42,1-.21.6h-.78l.11-1.2Z" transform="translate(0.3 0.3)"/><path id="Türkiye" class="cls-1" d="M442,164.24v.7l.91,1.58,1.27.49,1.86,1,1.09,1.36.6,1.66,1.42,2,.34,1,.53,1.76-.42,1.2.31.59-.58,1v1.21l-1.06.6-.42,1.25,1.46,1.21-.2,2,2,2.18.21,1,1.28,1.65-.18.32-1,.49.39.78,1,.49,2,.49,2.36,1.31,2.46.28,1.3-.77.6.35,2.25-.57,1.48.21,3.06,1.59,1.42,1,1,1,.17.7,2,1.76.71.18,2.36,2.57,1,1.69-2.36-1.48-1.3-.6-1-1.2h-.77l-1.76,1.9.17,2-.38,1.38.27,2v1l.21,1-.6.81-1,.49-.88.07-1.47-.7-1.49.36h-1.3l-.78.77.88,1,1.2,2.74.11,1,2.47,1.41.27.67-.27,1.3.35,1.05-.57,1.2,1,1.26.59,1.49.78.7,1.2.5.21.8-.1,2.57.88,2,.6.78.21,1.58.34,1.38v1.59l.42,2,1.6.39,1.15-.28.71.6.32.88-.32.7-1,1.26.27,1.41v1.45l-.6.49.28.81-.7.6-.28,1.37-.6,1.66.31,1-.38,1,.49.6,2-.08,1.26.57.82,1.2.56.21.5,1,1.09-.42,1.19.69,1,1-.11.61-.7.87v.82l1,.88.21.39v2l.38,1-.07.81.49.57,1.06.31.71,1h.7l.71,1,1.26.7.61.57v.91l-.61.71.1,1.05.51,1.48-.82-.7-2.18-.28-1,.39-.56.59-1,1.48-1,.81-1.46.57-.54,1.9-.35.17-1-.39-1.66-2.74v-1.2l.88-.77v-1l-.81-1.57-1-.72-2-.88-1.17-.1-.91.21-.56.7-1,1.66-1,.28-.49.49-1-.7-1-.18-2,.21-1.66-.6-1.2.21-3.27-2-1.48.32-2.95-1.48h-1l-1.41.59-1.23.78-2.57-.7-.42-.57-.57-.21-1,.49-.21,1-1.76,3.94-.21,1-4,1-.21-1-.49-.6v-1.58l-1-1-1.87-.56-.39-1-.49.49-.81,1.48-1.27,1.59-.81.56-10.17,3-5.64.49-1.37-.49-4.93-1-3.73.71-1,.49-2.4,1.7-1.76.49-.71.38-3.62,3.17-2.11.78-1.87,1.41-3.94,1.86-10.36,2.47h-1l-3.37-1-1.48.18-3.24.31L369,287l-1.37-.7-3.18-3-1.05-.71-4.05-1.15h-2l-1.4.6-2,1.67-.57.19-3,1.68-3.27.79L346,287l-2.65,2.19h-.8l-3.36-.6-1.68.49-1.06-.21-1,.91-.78-.59-.1-1.2-.29-1-1.09-.88-1.3-.49h-1.26l-3.95-1.4-.81,2.28.11,1.69-.29,1.76.29,2.36-.39,1v1l.6,1.38.77.59.32,1.66,1,.21,1,1.6v.76l-1.47.39-2-.27-.81.76-1.41-.34-.35.94.49,4.37-.21,1-1.27-.21v1l-1.47.21-.32.78.11,2-.5.81L318.8,311l-1.9-.57-.39-1.3-1.41.21.81-2,.11-.81-.77-1.87-2.47-3.35-.32-.91-1-1-.38-1,.49-1,.78-.49.21-.71.59-.56v-.81l1.38-.88.77-1.26,2.79-2.19.38-1.48-.49-1.4-.28-1.66-.42-.88-1.38-1.76-1.66-1.41-.8-.21-1.26,1-1,1.57-.7.61-.78,1.09-2.46.39-1.51.7-.49,1,1,.21.6,2.36-.6.5h-1.06l-.8-.6-2,.88-1,1-1.27-.71-5.53-3.25-1.76-.76h-.71l-.81-.5-1-1-1.69-.91-1.59.1-2.64,1.3-.31.78-.57.38L282,289.61l-2,1.51-.5.59-1.41,2.47-.17.7L276,296.54l.42,2.29-1.47.77-.49,1.49-1-1.21-1.2-.55-1,1.36-.21,1-1,.38-.71,1-.28,1-1-1.42-.5.36-1.15,1.55-.21-.49-1.77-.29-1.41.6-1.27-.42-.31.49-2.47.32-1.05-.21-.81,1.4-3-.52-1.31.81-1.26,1.26h-1l-1.77-.49-2.28-1.27-1.05-.21-1.73-1-.49-.49-1.05-.5-1.21-1.27-.77-.59-.32-1-.49-.82-1.42-1.15-.55-1.21-1-1-.7-1.26-1.76-1.49-1.21-.49h-1.26l-.39-.5-2.58-.8-.8-.78h-.6l-1.66-.81-.7-.7-4-1.76h-.6l-.17-.7-.71-.46-8.28-1.2-3.38.28-.49-.17-1.36-1-1.6,1.55-.38,1.47.28,4.48.6,1.16-.11,1.3-.88,1.06-.1,1-.5,1.37v.49l1,1.21-.57,1-.6,1.76L199,300.81l-2,.28-.1,1.19-.71.35-1.06-.06-1.3.8h-1.58l-1.31.78-.88,1.26-.6.21-.7-.77-1.26.57-.71-.28-.08-1-.7-.39h-2.25l-2.47-1.41-.42.71-.7-.28-1.45-1.42-.49-.7-1.3-.35-.78-1-1-.42.49-.72-.1-.94-.71-.71.6-.39-.39-1.57-.7-.21-1,.42-.36-1.21.67-.7,1.15-.6-.55-.78-1.41-1-1.55-.7-.49-.71-1.3,1.68.1,1.1.27.6-.16.81-.93-.32.42-.7-.8-.49-1.26-1.05-1-.22-.71.28-.39-.7-.6.42-.38-.78v-1.4l-.81-1h-.57l-.49.81-1.2-.7-.28-1.59-1.4.6.1.6.78.21-.5,1h-.35l-1.51-.59-.78-1-.7,1,.39,1.25,1,.72-.77.39-.29.77-1.3.81-.88,1.87-1,.21-.21.7-1.06.28-.6-.39-.21-.7H153l1-1.19-1-1.05-.49.27-1-.49,1-.39.28-.42,1.47-.36-.7-.52.71-1.05-.78-.11-.7,1h-.49l-2,.57h-1.26l-.72-.5H146.5l-1,1v1.76l-1.41-.46-.94-.21-1.41.6-1.37-.11-1.07-.77.88-.32.18-.7,1-.57,2.67-.28.11-1,.5-.21,1,.6,1.36.11.71-.71,1.76-.1,1.05.31,1.91.08.39-.36-1-1.4.92-.39-.81-1.48.31-.32,2,.21.88-.31.39-1.06.6-.81,1.69-.71-.6-.45-2.57.49h-1l-.6.35-2.26-.35-.42.35h-1.59l-2,.82-1.26-.29-1.31.29-.35.38-1-.35-2.08.18-1-1-1,.6-.43-.42-.78.21v.77l-1.09.6-.28-.39-.71-2.29.11-.56.77-.42.39-.56,1.69-.32,1,.32.88.7,1.48-1L141,277.6l.92-.21.59-1.49v-.6l-1.3.11v.7l-1.65-.81.28-.49-1.87-.7-.1-1.16.7-.71-.7-.56-.7.17-.57,1.48-2,.11-1-.21.67-1.26-.28-.71V270h-.6l-.49-1.77.49-.6v-.91l-1.69-1-1.76-.36-.81-.42.5-.7h1.76l1.68-.7.61-.88v-2l-.5-.72.5-2.36-1-1.54-1.16.17-1.3-.27-1-.72-.21-.59-2.37-.71-1.57.81-.57-1v-.71l-.6-1.15-1.1-.82-.39-1.05-1,.28h-1.47v1.86l-.31.81-1-.42-2.57-2.36-.6.21-.88-.81h-1l-.88-.7-.5-.67.39-.88.49-.49,1.2.59,2-1.46-.31-1h.59l.21-.81-2.36-1.48-.7-1-.81-2.57v-1.06l1.2-.52,1,.1.89.6,1.19,1.15.7,1.31,1,1,.49,1.47h-.7l-.28,1.41H119l1.58,2.93.36-.5-.46-.49-.21-1,.49-1.31.7.21.78,1.59.6.17,1-.38,1.48-.21,1.7-1,1.57.31.89-1,.29-.6-1.6.18-1-.28-1.58.77-1.31-2.15L123,241l.06-1.3-.28-.28-1.68-.32L121,237.8l-.92-1.47,1.41-.5.49-.49,1.49.6.77-1-.89-1.31.78-.39,1.42-1,.77-1.32-.39-.59-1.2.49-.39-.49-1.57.71-1.6-1-.28-1.26v-1l1.37-1-.21-.49-1.15-1.58-1.88-1.3-.59-1.77-1.77-.1v-1.27l.68.18.7-.88,2-1.69-.49-1,1.16-.27v-.71l1.2-.35.17-1.52-.28-1-.88-.21-1.09.7-.6-.27-6.79,1.46-1.76,1-1.3-.11-2.78.89h-.78l-.88-.36-.11-.63.5-2.75.7-.82v-2.14l-.6-1v-2.39l-.31-.28.21-1.69-.21-1.16.7-1.77,1,.36,1.19-.7,1-1.27v-1l.34-.18v-2.39l1.81-.49,1-1.6,1-.55,1.69-2.79.38-.27h2.57l.6-.21.78.38h1.58l1.48-1.66,2.4.07,1-.56.7.28.67,1.2-.71.17,1,1,1.2.71,1.26.6,1.41.27h.78l1-.6,1.47.42.51-.31,1.47.1.39-.7,1-.7v-.45l-1.05-.32-1.31-.89-1.69-1.87,1.41-1,1,.39,3.25.49,1.4.78-.21.59-1.69,1-.39.49.11.7.77.18,1.58-.18,1.69-.7,4.66-.28,1,.18,3,.1,2,.7,2-.59.5-.5,2.25.39,1.47.6h1.59l.6-.39.32-1.4,1.16-.18-1-.88-.88-.39H160l-.77.57-1-.18-2-1.2-1-.21.18-.88,2-1,1.48-1.48,5.84-.71.78-.28,1.21-1,.59.59,1.47-1,.57.16.81.78,3.66-1,2.26-.21,1.19.32v-1.09l-.91-.11-2.46.32-.6-.5-1.49-.31-4.61.31-1,.5-.42-.11-.57-1.4-1.58-1.45-1-.31-1.58-1-1.41-1.06-1-.63-.61-1.37,1-1.27.21-1.7-.42-.39,1-1.57.71-.61,1.19-.21,3.73.6,4.17,1,5.31.6,4.93.11h.6l1.09-.77.81-1.1,1.27.18.8.6,6.69,1.48,1,.81,1.75.28,5.08-.28.49-.31,1,.1,1.58-.39,1.37-.81,1-1.05.28-.82V165l-.35-1,1.26-.17.29-.6,3.06-1.47,3.73-3,2.3-1.3.77-.7,1.76-.67,1.8-2.68.31-.71,1.66-.28.6-.7.6.1.59-.76,1.69-1h.57l.6-.7h1.4l1.37-.56h.78l2.47-.71,1.47-1,3-1.19,2.78-1.76,2.18.17h2.06l1.46.42,5.26.36,2.46-.28,6.63.8,2.18-.7h.7l1.66.49,2.57.11,2-.49,1.58-1.26.78-1.7v-.81l1.48.21.6,1,1.31.88.16.81v1.13l.21,1,2.37,3,.81,1,1.55,1.27,2.18.59,1,.88,1.76.71h1.8l1-.71,1.3-.28,1.87-1,.88-.21.7-.71h.88l1.42.81,1.82,2,.42.78.18,1.09v1.76l.39.92,1.7,1.47.8,1.27,2.15,1,.32.8,1.05,1,1.2.28,1.2-.56,1-1,.6-2.18,1,.28h1.76l1.58.32,3.17,1.47.71.5.45.88.42,1.69,2,.88h2.57l1.26.49,1.6.39,1,.88.78.21.6.7,1.57.08.5-.36.6-1.79.6-.71.59.71,1.27-.21.39,1.69.39.49,1.09.49,1,1,.7-.32,1,.11,2.47.8,2.09.5,1.67-.21,1,.77,1-.28,1.31.21,1.69-.31.88-1,.77-.39,1,.7.81-.21,1-1.25,1.76-.51,1-.7h2.18l1.48-.49.6-.6,1.27.1,1.19.6,1.42-.7,1.33-1,1.31.21,1,1,1.4,1,1.55.7,1.05-.53.71.42h.81l1.41,1h1l1.69-.49,2,1.47.78.08,3.27-1.38,2.75-2.36.81.29h1.05l1.21-1.17,1.3-.49,1-1.69,1-1,1.42.17,1.15-.6,1.1-.38.71-.6,1-1.2,1.27-.28,1.58-1.7,2-.7.5-.78v-1.19l1.19-1.26.21-.5,2.26.88,1.31-.29.55.78.93.1.88.78,1-.78.5-1,1-.49,1.47.49,1.21-.39h1.47l.71.39h1.44l3.67,1.27.87-.29.81-2,.11-1.47.77-.5,1-.21,2.79.21.49.18-.21,1-.49,1,1.4.7.57-.7.6.81,1.46.88,1.21,1.41,1.66,1,1.09,1,1.26.32-.35.77.36.72,1.57,2,1.7-.7,1.19.1,1.27.88.39.6Zm-306.72-16.8.66,1.9-1.2.5.11,1.76L136,153l.49,1.16,1.16,1.28-.17.49.88,1.3.6.39.88,1,1.19,1.09,3.26,2,4.42,1.77,6.52,3,2.47.49.21-.32,1.4.5-.6,1.68-.49.29.7,1-.52,2-.6.5-.18,1-.91-.11-.7.6-1.45.7-1.58-.52-2.29.38-.71-.28v-.88l-.45-.31v-.72l-.7-.94-.29.34.71.93L149,174h-.61l-1.19-1.2-2.53-.82-1.42-.06-.56-.42h-1.41l-3,1.3-.39.5-.7,1.4-1.66-.21-1-.6-1.48-.31-4.15.81-.6.38-.28.88-.21,2.19-.39.77-1.58,2-.71,1.58-1.58,1.41-.35.57-1.21.49-1.3.11-1,1.4-1.47.28-1.7,1.42-1.16.17L114,189.1l-.28,1.19-.71.6v.88l-1.37,1.58-.6.11L110,195.05l-1.89,1.16.8,1.2-.91,1-1.76,1.47-1,.39.5-2.56.7-1.27v-1.87l-1.09-1-.11-1,.5-.49,1.4-.5.18-.49,1.76-1.59,1.09-.42.81-.78,1.05-.7h1.49l1.09-1.55.49.28,1.2-.78.1-.49-1-1.57-1.4.17-.7.38-1.94.21-1.3,1-1.27-.6-.88.42-.5-.21-1.41.39h-3.62l-.92-.28-.57-1.3v-1l-.42-1.05h.7l1-.92.28-1.17,1-1-.06-.91.49-.18.27-1,.71-.1,1-1-.45-.49.56-1.42-.49-.27-.71-1.27-.18-.92.29-.78-.35-1,.06-1.05-.1-.71,1.21-.21,1.67-1.41.89-1.15,1,.58.7-.31.08-1-.72-2.46-.76-3.52H108l-2.15-1.3.11-.81-1.42-.36-.6-.52h-1l-.35-.88.17-1.27.77-.7h2l1-.32.32-.89v-1.36l-.32-.51.82-1,.6-.21,1.86.31,1.2-.7,1,.31.5-.48,1.55-.21.42-1,.57-.32.41-1h1.16l.71.42h1l.53-.81,1.42-.11,1.26,1,1,1.3,1,.88,1.54.82.92,1,1.26-1.31,1.49-.39h.81l1.36.6.21-1.4h.79l1.4.42.95-.11Zm-31.64,58.67.39.1v1l-.28.35-1.69-.94v-.5Zm-2-8.92v.61l-.81.42-1.36.18-.79.49-1.76.28-2.18-.77.35-1,1.3-1.19,1.41-.29,1.55-.71,1.3.49.21,1.91Zm31-13.8,1.41.29-.11.8-1.09.29-1,.8-1.48-.7-.31-1,1.46-.7Zm.42,5.32-1.3-.11.39-1,.7.27Z" transform="translate(0.3 0.3)"/><path id="Cyprus" class="cls-1" d="M288.87,316l-4.05,2.39L284,319l-2.75.94-.88,1.2-1,.39-.81.71L274.64,324l-1-.17-2.25,1.57-4.65,1-3.06-.39-.39-.1-2.57-.32h-1.4l-1.76-.28-1.42-.6.52,1.58.21,3-.21.81-.76,1.15-.81.3-1.06-.57-1.41-.31h-.39l.61,1.3h0l-.61-1.3h0l-.7-.11h-.39l-.7.21-.39.21h0l-.6-.1-.49.49-.39,1.4-.88,1.35-.7.42h-.71l-1.94-1.41v1.3l.71,1.27.28,1.41.49.71.08.94,1.19,1,1,2.67,1.76,1.27,1.69.32,2,1.05,1,.21,1-.16.71-.5.6-.92h.6l.56,1,1.09.21.32-.6.7.1.18.78.49.31,1-1.46.6-.32,1.47-.18,1.48.11,1-.5,1.48-.41.77-.79,2-.81.5-.77,1.19-.21.5-.89-.11-1.65.21-.81.88-.78v-.45l-.17-1-.49-.29v-.59l.7-.18,1.05.77c1-.1.88.29.61.5l.77.39.71.21.21.77.55.11,1.21-.6,1.05-.18.63.35h1l-1-1.65-.6-.6-.21-.18-.77-.7-.6-1-1.27-1-.11-2.19.17-1,.82-1.15,1,.17.77-.29.39-1.3,1-1.25,4-3,1.54-1.69,1.9-1.58.6-.08v-1.3Zm-13.64,18.77h-.1c-.39.39-.1.28.1,0" transform="translate(0.3 0.3)"/><path id="Egypt" class="cls-1" d="M297.08,438.32l2.36,5.92,4.22,9.19.71,2.18.31,1.58.7.89v1.19l.18,1,1.48,1.55L311,471l.29,1.76,2.28,5.35.88,2.86.21,1.9,1,2.15-.6.7-1.3,3.27-.7,1.06.21.42-.18,1.06.1,1.48-.59,1-.21,1.47.21,2,.28,1.26-.7.61.31,2.85-.49.5.1,1.46.39.51-.39,2-.39.81-.21,1.19-1,2.47.39.77-1,1.48-.39,2.3-.49,1.76.39,1.4v.67l1,1.77-.38,2.28.49.78-.21,2-.49.42-.5,1.16-.56.32-.32,1.48-.7-.11-.36,1,.18.38-1.48.89-.49-.29-2.12-.21-.55-.34-1.59-2-1.59-1.26-.56-.1-3-2.31v-.69l-1-.67v-.49l-.82-.78-.28-1-1-.71-1.68-3-3-2-1.58-2.11-1.69-1.34-.7-1.31-.18-.88-.7.21-.36-1.57-.7-1.31.49-2.36-.6-1.2-.49-.28-.6-2.29.21-.49-.42-1.55.21-.31-.77-1.17-1.48-.91-.49-1-2.47-2.64-1.58-1.09L274,491l-.72-.61-.49-1.09-.21-1.57-1.76-1-.49-1v-1.41l-.39-1.06-.81-.49-.1-1.69.1-1.27-.1-.7-1-1.66-1-.8.35-.6-.36-1.27-1-1,.17-.39-.49-.82-1.4.61-.47,1,.71,1.68-1.69,3.25-.6,1.76.11,1.09-.32.92,1.2,2,1.48,1,1,1.27,1.42,1.2.81,1.27.49,1.58.7,1.31v.7l1,2.92v.61l-.6,1.09.21.31v1.76l1.19,1.41.18,1.05,1.69,2.08.78.11.92,1.37,1.47,4.65,1.28.71,1,1.36.7.29,1,2.46,1.58,1.42.49,1.65,2.75,3,.28,1,.7.21,1.31,1.25v.82l1.37.78,1,.21,1.66,1.58,1,1.66.59,1.3-.17,1-1.77-.88-.13.72,1.19,1.93.81-.29-.49,2.26-.49.82.49.27,1.06,1.76v1l1.69,1,.28,1.16.7,1,.71,2.11.71.78,2.25,1.37.35.78-.07,1.3.39,1.76,1.47,1.69v.77l1.42,2.68,1,.59.29,1.6-1.06,1,.28,2-.21,1.58.21.78,1,.6.7.6.28.78.78,1,1.3,3.27,1.86,3,2.18,4.82,1,1.42,1,2.25,2,2.68.49,1.15,1.66,2.48,1,1.19,2.3,4.23.39,1.3.7,1.19.28,1.38L323.9,598l.61,1.48.81,1.21.35,1.05,3.27,5.74.5,1.58.91,1,.28,2.08.39.7,1.2,1.06.49.81.78,2.46,1.3,2.36-.21,1.58,1,.39,1.2,2.36,3.17,2.47.5.6,1,2.68,1.54,2.07.72-.28.6.28.88,1,.49,1.48.7.39.6-.11,1.15.42.82.6.57,1.27-.88-.29-1,.57-1-.28-1.41-.29-.66-.8-.78-.29-.49,1.59.28,1.27-.18,2,.18.7.71.49.1,2,.18,3.45-.18,1.68,1.36,2.37.3.78v1.3l.91,3.24,1.15,2,.82,1.76.49,2.47.78,1.4,1.3.32.78,2.37,1.58,2,.88.7,2.18,1,1.16.1,1.77.4,1.73.6,1.76,1.57.39.72.31,1.25.35.82,1.52,1.27,1.19.49v.81l.36,1.06L369,680l1.26.88,1.41,1.27,2.15,2.18.88-.29,1,.72.91,1.43,1.38.82.21,1.41-.32.56-30,.39-25.07.32-25,.28-37,.39.89-4.17-.28-1.25-1-.78h-.8l-.88,1-1.69,5.1-.29.21-48.94.5-46,.38-39.79.39-1-15.89L120,660l-1-15.92-1-15.77-1-16-1-15.79-1-15.91-1.1-15.88-2-27.26-1.68-22.54-1.42-18.73-.27-1.59-.49-1.36L106,488.51l-.35-2v-2.68l-.42-1.19-1.27-2-.21-1.19.21-1.37-.1-1.17-2.3-5-.88-1.81v-1l.21-1,1.17-3.16,1-1.59,1.09-2,.39-1,.1-1.48.5-2,.1-1.42.51-2.91-.39-1.2-1.09-2.19-.39-1.36-.88-1.67-.92-3.48-.17-2.15-.5-3.27.17-1,3.18-3,.49-2.36.5-1,1.25-1.21.42,2,.72,1.41,1.44.18.92.49,1.36-.21.71.31,4.72-1.68,3.78-1.49,1-.17,2,.06,8.45,2.48,6.06.8.7.39h1.45l2.46,1h1l1-.39.71.6,2.64,1,1.4.18.95.42.32-.42h1.59l1,1.41.57,1.65.81.88,1.26.6,2.41.5.34-.29,1.13.7,1.16-.31,2.4-1.41.57.14.7,2.15.28,1.09.6.39,1,.21h3.88l.77.49H173l1.26.29,1.66-.78.91.28.78.7,1.58.29,4,1.48,1.76.8.31,1,4.45,2.36,3.27-.17.7-.21,5.5-3.25,5-4.57.31-.78,1.17-.18,2.19-2.56,1.3-1.3.28-.71,1.2,1,1.66.28-.6.6.6,1,1.19-.39.78-.81-1.87-.39,1.47-.88,1.07-1.3.42-.88.1-2.18-.21-1,.32-.27,1.37,1,1.48.28.88-.07,2.78-1,3.88-1.41-2.61,1.59-2,1.57-1.47.3-.29.8,1.16.18,1.19-.28.29-.7,1.19,1,.5-1,.88-.72.81.53.77-.21.82.31.49-.59,1.15-.21.11-1,.5-.88,2,.39-.38-1-2.29-1.49,1.75-.38.63.11,2,.7,3.45,1.55,1,.81,2.25,1,1.59.17,2.95-1,1.76-1.27.26.7.7.95-.42.21v1.69l-1,1.37.21,1-.48.29.35.7h1l1.65,1.76h1l.71-.7,1,1,.31,1.19,1.36,1.48.79.28.49-.28.39-.91.49.42h1l.6-.71v-2.18l-.6-1,.49-.78.7.18.71,1,.7.21,2,2.07.71,1.2,1.27,1,.8.18h1.76l1,.6.82-.21,1.15-1,1-.35,1.91.18.17.59.71.18.7-1L271,441.7l.55-.71.42-1,1.39-.81,1.46,2-.58.53.38.56-.07.92,1-.5,1.15-.8,1-.39,1.86-.29-.28-.49,1.3-.49,1.27.57,3.17.2,4.12-1.3,3.77-1.86,3-2.36.6,1ZM303.58,559h.36l.81,1.6-.28.31Zm-.8-19.71.39.28.31,1-2.28-.78-.49-.8,1-.29ZM313.66,527l1,1h-1.57l-.71-.29-.18-1,1.27-.21Zm3.17-.1.07,1-.5.39-1-.57.28-.8Z" transform="translate(0.3 0.3)"/><path id="Iraq" class="cls-2" d="M488.83,271.85l-.11.81.35,1,1.13,1,.7-.21.78.5v1.58l.7,1.59v.71l-.7,1.43.1,1.1,1,.38h1l.77.71.88.21,1,1.47.42,1-.21,1v1.59l-.29.7,1.05.94,1.1,2,.89.6,1.57-.6,1,.5.6,1.3.21,1.19.7,1-.21.71.78.56.49,2.36,1.2,1.48-.32,2.11.6.88h.49l1.69-1,1.87.49,1.2.88,1.26.71,1.21,1.36.77,1.49.71.35.7-.28.6.32,1.15-.71,2.58-.18,1-.49,1.3.28.7,1.05.84.15,1.21-.42.59-.36.88.29v1.15l-.77.82-.42.77h-1.27l-1.26.81h-1.41l-.71,1,.53,2-.71.07.6,1.41-.31,1,.42.78,1.76,2.29,2,1.65.21.82-.39,1.05.49.6,1.06.31v.71l-.35,1.66.35.81-1.47.34-1,.82-2.08-.7-.07,1-.81.88.5,1.4v1.66l-.29.49-1.3-.49h-.35v2l-1.2.6v1.48l-.6,1.16,1,.81.6,1,.7,2.86-2-.28-2.26-.81.49,2.68-.42.77-1.05.71,1,2.18.78,1,.31-.39,1,.18.34.59.36,1.26v1.31l-.36.78.53,1-.11.71-1.4,1.58-.35,2.08-.7.59,1,1h1.26l2.48,3.52,1,1,.71,1.47.59.89,1.48,1,.39,1.46.81-.21.77-.76,1.48-.21v.81l1,.77v1l-1,1.19.94.5,1.2-.71,1.19,1.2.61,1,.35,1.4.81.67,1,1.27,1.1,1,.7,2.46-1,1.41-1.2.07v.91h1l.7.49.06.89-.7,1,.63,1.06,1.28.21,2.36-.35,2.29.67,2.25,1,.7.7,2.18,1.26,1.06.79,1.51,1,1,1,7.18,5.94,1.49,1h1.41l1.15-.81,2,.71,2,2.18L565,402l2.25,2.67.71,1-.11,1.47,1.2,1,.77.1,1.09,1.77,1.2.81.39,1,1.19,1.68.61.35.49,1,1.65,1.47.11,1.28L575,427.36l1.68,11.28,6.91-.11.28.49,2,13.25.17.77,2.29.28.88.71,1.27,2.78H592l.81.28.49.78,1.76,1.67.42,1-.42.78.42,1.09.78.91,1,2.25,1,.78.77.21-.06,1-2.4-.29-1.66-.6L592,465l-2-.51-1.66.32L586.65,466l-4.93-2.46-1.19-.29-5.43.18-1.2.21-3.06,1.59-1,1-.49,1.06-1,5.29-.59,1.65v1.47l-.18,1-1.2,2.95-.28,2-1.4,2.28-1,2.47-3,4.92-3.52,1-34.87-2.85-.6-.21-29.61-23.81-13.53-10.84-8.91-7.61-9.57-8-37.51-22.34-1-.48-7.33-1.37-18.49-3.06h-.17v-.18l2.07-2.4.36-1-1-2.57-.5-.28-3.77,1.27-.49-.5-1.58-3.94,1.57-.7-5.14-13.49-3.94-10.27,16.49-12.44,8.21-6.24,10.9-8.3,4.72-1.66,1-1.2L425,346l2.39-7.61V337l-1.9-9.85v-1.66l.31-3.39-.31-2.63v-.92l1.3-2.75.21-1.68-.7-3.74-.6-1.79-3-4.93-.21-1-.36-6.91v-.7l1.16-3.88.78-.94,1.3-.21,6-1.59,1-.77,7.12-10.49,1.65-2-.71-1.26,4-1.06.18-1,1.75-3.94.35-1,.95-.38.5.07.42.6,2.54.7,1.3-.78,1.48-.59h1l3,1.48,1.42-.32,3.24,2,1.19-.18,1.66.6,2-.21,1,.21,1,.7.49-.52,1.09-.18,1-1.76.49-.7,1-.21,1,.21,2.19.77.88.71.8,1.65v1l-1,.7.07,1.2,1.58,2.83,1.1.34.38-.21.5-1.76,1.58-.71.88-.81,1-1.4.59-.67,1-.39,2.19.28Z" transform="translate(0.3 0.3)"/><g id="Iraq_label" data-name="Iraq label" class="cls-3"><text class="cls-4" transform="translate(450.17 414.36)">IRAQ</text></g><path id="Jordan" class="cls-1" d="M320.57,405.85l-.39-.71.28-1.47v-1l-.39-.6.11-1.36-.49-2,1-1H321l1-.88,1.41-1,2.93.88,1.4,1.48h1l.17,1.27,1.69,2.47,2.18-.29,2.47,1.87,2,2,2.36.6,3.67.39.78.59.8-.16,1.37.34.5-.07,3-2.68,2.95-2.35,11.66-9.37,5.64-4.58,8.8-7,4.51-3.66,3.95,10.24,5.13,13.53-1.58.6,1.57,4,.51.56,3.77-1.26.38.27,1.19,2.69-.49.87-2.18,2.4v.18l-.49.49-2.08,2.67-.7.29-20,7.31-19.71,7.29,12.42,13L377,456.42l-5.94,4.23-.7,1-1.94,8.29-.42.42-14.52,3.83-1,1-3.63,9.15-7.6,8.2-1.09.32-22.83-4.05.21-.21-.11-2.57.39-1.76v-.49l-1-.6v-1.41l.38-1.16v-2.25l.71-3-.21-2.3.42-3,.71-1.57.18-.89v-.88l-.72-1.68v-2.68l.39-.88-.06-.78-.6-1.48.77-5.14.88-2.79.21-2,.5-.59v-2.15l1-2V443l.7-2.21-.21-1.46-.71-1.27-.45-1.41.34-1.27-.17-.77.6-2-.21-2.4-.18-2.14.07-2,.71-2.58.6-.8-.6-1.47.1-.61-.71-2.15.32-.31-.81-3.46.31-.77-.31-.7.39-1.2-.07-.49.07-1.76-.56-2.47Z" transform="translate(0.3 0.3)"/><path id="Syria" class="cls-1" d="M323.31,396l1.41-2.36v-1.87l.7-1.3-.81-1.27-.59-2.57-.78-.71.28-1.36-.21-.79-.49-.31-.18-1.26-.88-.61.57-1.2-.88-.56.88-.71v-1.33l2-1.48.1-1-.07-.87,1-.21.7-.51.25-1-.57-.49-2-.88.35-.89-.06-.7.7-1.65.57-.71.41-.88,1.66-1,.6.59,1.69-.59,2,.77.49-.49v-.49l-1.26-.39-1-1,.7-2,1.24-1.76,1.69-.32.21-1,1.05-1.41.92-1.65-.78-.78-.31-1,.21-.6-1.58-2,.11-1.48-1.77-1.31-.53-.88-2,.1-.39-.6,1.2-1v-1.2l1-.1-.1-.88-1,.21-1-.6-.6-1-.81.21v1l-.28.35h-4.54l-1.48-.56-1.31-2.68-.06-1-.6-.93-1.21-2.74.21-.42-.31-1.06.42-1.2-.42-1-.17-1.42.87-1.93.39-.49-1.26-2.47.1-.92-.81-2.85-1.2-1.41-1-.77-1,.1v-1l-.88-.5v-.77l.7-.7-.31-1.69.49-.18.49-1.69-.18-1.27-.7-1.19,1.2-.5.59-1.76,1.38-.31.39,1.26,1.86.6,1.31,1,.5-1-.11-1.86.27-.78,1.48-.21v-1l1.21.1.31-1-.49-4.22.35-1,1.41.39.78-.78,2,.29,1.37-.36v-.81l-.88-1.57-1-.22-.32-1.66-.77-.59-.6-1.48v-.81l.39-1-.29-2.46.29-1.76v-1.7l.7-2.29,3.94,1.42h1.27l1.3.49,1,1,.39.88v1.19l1,.56.88-.88,1,.21,1.69-.48,3.46.59h.8l2.65-2.19,1.19-.6,3.24-.76,3-1.7.49-.21L356,282l1.27-.59h2l4.16,1.19,1,.57,3.24,3.06,1.4.7,1.38.21,3.24-.31,1.48-.17,3.27,1h1.06l10.27-2.46,4.06-1.91,1.9-1.36,2-.79,3.68-3.16.69-.39,1.76-.5,2.46-1.68,1-.39,3.56-.7,5,1,1.4.39,5.64-.36,10.14-3,.81-.7,1.26-1.55.71-1.48.6-.49.36,1,1.79.57,1.2,1-.11,1.57.49.5.21,1.2.6,1.26-1.57,2-7.13,10.48-1,.79-6,1.57-1.37.3-.78,1-1.2,3.77v.77l.39,6.93.21.78,3,5,.6,1.77.71,3.77-.21,1.68-1.21,2.76v.88l.21,2.67-.38,3.36.11,1.67,1.87,9.86v1.42L425,346l-.5,1.76-.92,1.2-4.82,1.59-10.89,8.38-8.17,6.23-16.41,12.43-4.54,3.53-8.87,7-5.53,4.54-11.62,9.48-3,2.36-3,2.68h-.49l-1.42-.29-.76.18-.78-.6-3.67-.35-2.24-.7-2.12-1.9-2.47-1.87-2.15.28-1.69-2.46-.17-1.27h-1l-1.48-1.48Z" transform="translate(0.3 0.3)"/><path id="Oman" class="cls-1" d="M781.08,590.17h.56l.5.81,1,.18v.8l-1,.6-1.16,1-.61-.32-.1-1,.49-.29-.18-1.3Zm-6.94-20v-1.26l1-2.68.42-1.2H776l.57.81,1.68-.21-.11-2.46.71-1.06.89-.36,1.19,1.13-1,1.37,1.15,1-.17,1,1,1-1,.21-.49-.91-.88-.49-.7,1,1,1.2.43.78h2l-.49.59-1.05.81.77.7-.32.88.39,1.48v1l-.56,1.76.17.81-.77,1.66-.6.2-.1,2,.38,1.19-1.16.35-.81-.84-.88-.32-.49-2,.39-.59v-.78l-.6-.7-.18-1,.39-1-.28-2.47v-1.4l-.71-1.56ZM785,599.74l.88,2.3,1.87,3.35.31.31.49,1.76,3.36,5.53,2,2,2.85,3.27,1.09,2.15,2.57,3,5.14,4.37.78.6,3.27,1.26,4.06,1.2,1.76.78,1.3.49,1.47.21H820l.81.88,2,.78,2.75-.28,2,.28,2.18,1,1.41,1.2.77.28h2l1.47-.56v-.5l1.59.08,1,.42.77,1.37,1.09.7.71.72.56.16.6-.38.6.77.88,2.57.31.49,1.48,1.42.78.35,1.19,2.11,1.16,1.26.43,1.67,1.58,1.57.36,1,1,1,2,1.41,1.2,1.55L856,658.8l1.28.88,1.57,2.47,1,1,2,1.42.49.7,1.58-.7,1.59,1h1.76l.6.17.49.72.7,1.76.18,4.57-.35,2.25-1,2.15-.78,1.09-.21,2.47v2l-.88.42-.39,1.48-1.3,2.86-.59,3.66L862.22,695l-.29,1.26-2.77,1.7-.57.39-2,2.46-2.47,3.78-.71,1.67-.49.51-.7,2-.11,1.76-1,1.31.07.5-1,1-.32,1,.38.81-.39,2L849,718l-.32,1.19v1.59l-.6,2.25v1.76l-1,.6v.81l-1,.28-1.37-.6H843l-1.69-.56-.11-.6.71-.49-.39-1.3.35-1.05v-1.7l-.67-.7-1.16.31-1.51.88-.28.5-.29,1.26.29.81-1.59,1.06-.71,1.2.6,1.41-.07.56-1.3.81-.88,1.16-.49,1.7v.6l.77,1.76-.28,2.57v1.19l-.6,3.74-1.05,2.46v1.58l.67.92.17,1.55-.07,1.69,1.47,2.56.5,1.21v1.47l-.21,1.28.11,1.19.6,1.41,1,1.66v1.65l1,1.9.08.36-.78,1-1,.21-.77.78-4.58-.21-6.19,1.4-2.58,1L818.68,770l-1.29,1.2-1.27,1.05-.28.92-2,2.86-.42,1v1.26l.42,1.31-.5,2.18V784l-.81,3.27.38,1.06-.59,1-1.26.92-.61,1.37L810,792l-1,1.41-.1.88-3.45-.49-1.47.56-2-.07-2.47,1-5.52.39-2.79.88-1.55.7-.41,1.57-1.06,3-1.81,2-.49,1.41-.11,1.16.39,1,.81.54.71,1.05v1.77l-.71,1.51.28,2-.77.49-.5,1.87-1,.49-1.3,2.4-.88.88-.39-.39-.7.78-3.46,1.3-1.58-.1-.77-.6-.81-1.06-1.76-.53-1,.21-.77-.21-1,.39-1.69-.35-.81.17-4,.71h-1.76l-1.3.67-.18,1.4-.49.78-1.57.18-2,.59-1,.6-.39-.21-.81,1-.77,1.4-1.76,1h-3.49l-1.86.49-3.39,1.38-1.76,1.16-7.89-17-.59-.6-1-.31L723,792.59l-7.21-15.81-4.54-10.15,16.41-7.6,17.78-8.21L773.09,738l2-14,2.46-17.63,2-15.32,1-8-.34-1.3-11.88-18.56-.27-3.94-.71-4.15v-.78l.28-2.67,1.48-4.23.32-1.69.1-3.73,1.16-2.3.32-3.45,1-2.56-.71-3-.39-.6-1.31-.88-.16-1,1.75-.59,1-.71,1-.35h1.75l.71-.21,1,.56,2.39-1.26,1.26-.39.22-.5-1-1.68-1-2.09-.6-.27-1.2.59-2-.49v-1l.71-2.12-.21-1.37-.89-1-.28-2-.49-1.66.34-.81v-1l.53-.6-.8-1.66-.18-2-.49-2.18v-.82l.6-1,1.26-1.37.78-.28.92.17.7.42.88,2.58-1.2-.6-.21.88,1,.78.81,2,.77.49,1.2-.07.6-1.41.17-1.06,1.41-.49,1.27-1.79-.11-1.6Zm18.77,205.11.28.7.6.35-1.3.81-1.26-.21-.32-.6Zm51.91-85.93.31,1,1,2-.11.49-2,1.76-.49,1.59-.21,1.86v.82l-1,2-.77.17-.71,1-.49-1.26-.18-1.6-.21-2.18.29-.77.7-.71v-.7l1.06-.18.63-1.19.17-2,.82-1.66.35-2h.81Z" transform="translate(0.3 0.3)"/><path id="United_Arab_Emirates" data-name="United Arab Emirates" class="cls-1" d="M780.16,582l1.41.6,1,2.15.5,4.36.6,1,.07,3.28.6,4.23.8,2.18-1.3.49v1.6l-1.15,1.75-1.52.52-.18,1-.49,1.47-1.2.08-.77-.57-.88-1.89-1-.78.18-1,1.19.71-.91-2.61-.56-.35-1-.21-.81.27-1.2,1.42-.5.94-.06.82.49,2.15.18,2,.81,1.67-.49.7v1l-.39.7.49,1.76.28,2,1,1v1.3l-.6,2.15v.88l2,.49,1.2-.55.7.27.88,2.09,1,1.67-.21.51-1.27.34-2.29,1.31-1-.6-.78.31-1.69-.1-1.16.39-1,.71-1.64.7.16.88,1.31,1,.39.49.6,3-1,2.56-.21,3.46-1.16,2.25-.1,3.77-.32,1.68-1.49,4.24-.28,2.67V655l.71,4.05.28,3.94-1.05,2.4h-.36L711.85,658l-1-.71-14.78-18.56-9.41-12-.71-1.37-.17-2.48-.28-1,.28-.76v-1.31l-.61-1,.32-.49.89,1.2.59,3.17,1.16-.31.42.38.5-1.55.28-.42.71,1.41v1.76l.56,2,.21,1.3.7,1.56,2,.41,1-.21h1.6l1,.71,1-.21,2.39-.21,1-.72,1.37-.16.6-1,1.41-.6.18-.6,2.26-2v-1.25l.31-.29.78.5,1,1.25,1-.21,1.4.32,1.16-.38,2.37.35,1-.78,1.59,1.1.8-.39,1,.39-.32-1.16.42-.11,1.17.71,1,1.15h1.2l2.68-.7,1,.71h.88l1,.6.49.7,1-.31.6.21,1-.6.6.17h2.56l2-1.16,1.26-.31,1.26-.78.93-.21.59-.56.57-1,1.3-.6,1.27-1.41,1.41.49,1-1.76.6-2-.17-.71.28-.59,1.2-.71-.21-.67-1.2-.1L745,613l.93-.21.27-.78,1,1.48.6.49.88-.28.77-2.46.21-2.29-.6-1.48.11-.7,1-1.27.81.39.49-.39-.31-.82,2.18-1.64,1.76-2,1.57-1,.61-.71,1.26-2.18,1.7-3.35v-.78l.7-.42.08-1,.8-1.48,1-.7.49-1.17h.7l.57-3.67.91.61,1.27-.39.39-1.76.7-1,.72-.34.34-.91,1.69-1,.6-.71,1-1.76.5.77.1-2,.81-1-.11-.89.5-2.18.1-2,1.76-.39.71,1.59v1.41l.28,2.47-.39.94.18,1,.6.81v.71l-.39.45.49,2,1,.42.7,1Zm.92,8.17-.5.49.18,1.3-.49.29v1l.7.32,1-1,1-.6v-.8l-.91-.18-.5-.7Zm-50.76,33.6-.69-.42,1.87-1.66h1l1.3-1,1.37,1.25,1.41.39.29.82-.21.7-.6.29-2-.32-.5.42-1.41.06-1.26-.55Zm11.14-2.19-.28-.5-1.58-.7-.29-.7.57-.88,1.3,1.4Zm-34.87-2.47.6-.88.92.57.18,1.19-1,1.59-1-1.47Zm16.2,1.87-.34-.39-.92.11-.78-.6,2.58-1.57.55-1.42,1.1.63-.17,1.37-2,1.21Zm21.94-5.32-1.09-.39v-.41l.7-1,2.26,1.76-.27.53Zm-2,4-.88.38-1-.88.29-1,.59-.21,1.06,1.48Zm1-2.11.28.63-.39,1-.78-1.19Zm-43.56-3.74.8,1-.49.81-.7-.6Z" transform="translate(0.3 0.3)"/><path id="Qatar" class="cls-5" d="M667.51,608.76l.81-.59.07-.81-.49-2.57-1.48-2.64-.07-2.3-.81-.6-1-4.93-.17-2-.6-2.07v-1.77l-.21-.31.38-.88,1-.49v-1l-1-1,1.69-.49v1.26l.39,1.31.5.18-.11-1.48.32-.57h.7l.28-1.09-1,.35-1-.94v-1.69l.18-.39-.29-1.27,1.47-.7-.69-.61.32-2.18.38-1.47.21-1.56.35-.81,1.73-.78.57-1.19,1.57-1,1.91,1,.35.39L674,573l.71.35.49,1.62.77.35,2,.14.7.49.88,1.27.81,3-.81.39.1,1.41-.88.6,1.2,1v.49l-.91.56v1.77l-.35.7,1,1.9.28.77.32,3.27.49.36,1.27.21.82,1.76.27,2.29.21,2.89-.11,2.14-1.46,2.79-.21,2.67-.3.5v1.65l-1.3,1.3v.6l-1,.78.31-1.41-.21-.28H678v-.36l-1.42.47v.49l-1.26,1.4-1,.46-2.57-.17-1.09-.5-1.2-1.3Z" transform="translate(0.3 0.3)"/><g id="Qatar_label" data-name="Qatar label" class="cls-3"><text class="cls-6" transform="translate(685.48 603.87)">QATAR</text></g><path id="Saudi_Arabia" data-name="Saudi Arabia" class="cls-7" d="M667.51,608.76l2,3,1.09,1.37,1.2.5,2.46.17,1-.49,1.31-1.37h1.09l1,.81-.28.49.28,1.55.81-.28.35-1.26.91-1.31h.72l.34.81,1,.49-1.09.56-.77,1.9-1.2,1.06-.39,1.2v1.69l-.39.1.18,1,1.42.16,1.36-.77,1.38.39,1.2,1.06,1,.41.28,1,.21,2.48.7,1.4,9.36,11.93,14.79,18.56,1,.71,55.1,7.4h.28l1.06-2.3,11.87,18.56.42,1.2-1,8.11-2.11,15.3L775,724l-1.94,14-27.65,12.82L727.66,759l-16.41,7.6-30.61,5.81-30.11,5.64-2,1L631.2,790.69l-.42.42L624.69,802l-4.65,8.2-.31.88L618,819.36l-.59,1-4.93,3.73-1.3.5-3.17-.08-.28-.21-5.53-8.21-.88-.49L593,817.06l-19.58-2.14-1-.42L568.54,812l-1.15-.18H556.05l-1.76.77h-.6l-1.47-.28H550.8l-2,.18-2.15.6-1.41-.39-.77,1.48-1,.1-.88-.49-.81.28-.88,1.42-1-.42-.11-.79-3.06.11-1.41-1-1.66-2-1-.7-1.64-.84-1.48-.21-1,.27-1.78,1.48-1.77,2-1,1.65,1.27.49.78,1v.59l-1.56.72-.42.49-.07,1.66-.49,1.67.49,1.49v1.2l-.42,1.66,1,2.57,1.19.49.39,1.19-.78,1,.5,1.48-.5.6L524,833l-.33.1v1.49l-.77,2.25-1.3,1-1.17.42-.31.5.21.88-.71.92-1.76.88-.21-1.41v-1.37l-1.16-1.49-.42-1.15v-2.89l-.71-1v-.88l-1.77-2-.87-.6h-.38l-.88-1.2.27-1.16-.49-2.29-.71-.88h-1.15l-.5-.7-1-2.75h-1l.72,1.2-.53.35.38,1.8h-.35l-.14-2-.5-1.59-.7-3.73-.28-1.06-.07-2-.42-.88-.57-.21-.31-.7-2.57-2.36-.39-.11-1-2h-1l-.21-.6-1-1.16-.49.18-1-1.38-1.65-1.65-.42.28-1.56-1.3-1.41-1.37-1-1.38-.27-1.27-2-2.4.18-.49-1-1.65v-.42L486,790.4l-.21-1h-.57v-.88l-.6-1.2-.38-1.48-.11-1.48-.7-1-.88-.72-.49-1.09-.6-.49-.39.39-1-.78-.7-1.48-.77-1.09v-1l.59-2.79-.91-.77-.88-.21-.28-1-.6-.78V771l.6-3-.21-.5-2.26-1.09L474,765v-1.17l-.28-1.26-.71-1-1.26-1.2-.6-2.36.34-.7-.34-1.41-2.47-.95-1.2-1.41.21-1.26-.32-2-1.15-1.68-.49-.36h-2l-1.65-2.61-.71-.49v-1l-.38-.88-1.77-1-1.3-1.47-1.25-.4-1.6-1.2-.81-1-.28-.71-1.3-.31-1.16-1.42-1.09-.94-1,.18-.6.42-1.59-.92v1L445.09,734l-1.48-.88-.42-.78-2.26-2.19-1.47-2.46-.5-.39-.11-.91-.7-.78-.29-1.19-.88-1,.18-1-1.48-.28-.17-.88.56-.21-.28-.88h-.88l-1.09-1-.5-.59.29-.78-.71-.42h-.67l-.77-1.37-.21-1.2-.6-1-1.48-1.27-.49-1.59.21-.71-1-1.87L426.71,707l1.57-1.78.21-.7-.59-2.85-.82-.21-.49-.88-.38-1.47-.21-1.7-.28-.7.6-1.16-1,.17-.38-.88-.42-1.06-1.39-1.68-.7-1.69-.57-2.26.5-.82.71,1h.35v-1.47l.41-.4.11-1.75-.32-1V681.8l.6-1,.11-1.15,1.06-2.12-.78-.46-.76.36.16-1.17-.28-1.48v-1.47l-.27-.78-.93-1.3-1.36-2.75.48-1.19L420.61,666l-.14,1.05-1.37-1.87L417.83,663h.59l1,1.77.57.31.41-.48-.7-1.21-.77-.7-.32-.7-2.07-1-.6-1.1.49-1.47-.28-1.48-.39.28-1.69-2.67-.88-1.87-.28-1.17-.71-1.4-.59-3-.6-.77-.18-.93-1.19.72-.21-1.27-1-1.42-1.37-3.84-1.21-.77L405,637.3l-1.26-.61-1.2-1.41-.77-.18-.92-.59-1-1-1.47-1.58-.71.1-2.54-2-.31-.39-1.16.18-2.3-2-.28-.49-2-1.38-1,.32.18,1h-1l-.88-.8-.49.21-1.42-2-.78-.7-.34-1,.77-.11v-1L380.67,617,378.42,614V612.5h-.78l-.7-.6-.49-1h1.48l.77-.6-.07-1.37.28-1.19-.77-2.36v-1.7l-.32-1.16-.49-1-1.16-1.31-1.9-2.15-.5-1.47-.7-1.21v-1l-1.05-1-.71-1.57-1.48-2.58-1.27-.78L367,586.23l-.7,1-1.17-.88-.81-1.05-.1-.81-.78-.88v-1.2l.71-1.21v-.76l-.42-1.42-1.27-.94-2.3-.6-.6-.82L357.89,573l-1.68-2.4-2-4.43-2.08-3.46L351,561.26l-2-2-.42-1.21-.78-1.26-.6-1.69-.39.1-1-1.19-1.48-1.41-2-2.54-.81-1.76.21-1-.82-1.1-2-2.46L338,543l-1.59-2-.7-.7-1.26-2.48-.21-1.46-.4-1-1.3-1.47-.7-1.67-.46-.7-1-.6-.81-2-1.69-2.18-1.65-1.27L326,525l.81-.49V524l-1.77-.59h-.63l-1.26-1.05-1.2.06-2,1-1.06-.11v-1l-1.2.31-.31.36-1.06-.36-.52-.81-1.18,1.3.49.36-.59,1.3-.5-.28-.28-1.41-.7-.46.21-.49,1.48-1.41v-2.64l.35-.42.53-2,.1-1.26.36-.71.15-1.26.49-1.21-.49-2.57-.42-1.15.21-1.7.58-2.46v-1.69l-.49-.6.49-1.76v-1.2l-.37-1,.34-1.17.36-4,.55-.49-.27-1,.49-.5-.31-1.2,22.82,3.94,1-.21,7.64-8.17,3.73-9.29,1-1,14.51-3.74.42-.49,2-8.31.6-1,5.91-4.23-12-13.63-12.48-13,19.66-7.33,20.07-7.22.7-.35,2.05-2.71.6-.35h.17l18.6,2.92,7.18,1.47,1.19.5,37.44,22.22,9.58,8.1,8.88,7.61,13.52,10.84,29.62,23.7.59.32,34.87,2.85,3.52-1,9.61,1.06,9.65,1.3,1.69,2.47,1.69,3.56.5,2.18,1,2.29,1.6,1.27.21.77,16.09-.56,1.41,1.06.46,1.4v1.59l.6.28v1l.6,1.26,2,2.19v1.41l.21,1,1.27,1.76v.53l1.19.6h1l1,.35-1,.71v.6l.88.81,1,.77,1.59,1.77-.32,1h-.77l-.39-.36-.21,1.94.81,1.3h.71l.06.78.7.21-.41,1,.1.49,2.36-.49,1.19,1,1.7,1h1.16l.92-.29,1,.29,1.52,1.48.49,1.2-2.28-.21-.89.81,1,.88.63-.88.58.35-.57,1.19v1l1-.71.82.36-.11.57.5,1.57.21,1.21.56,1,.92-.91.59.42-.21,1.15.29.82,1.19-.42,1-1.16,1,1,.6,1.47.88.71,1.48,2.15.81,1,1.66,1.09,1.41.7.94.7h1.53l1.36,1.17,1.77,2.36,1.68,1.31-2.29-.32-1.15-.29.17,1,.6.6.21,2.14.89,2,1,1.21,2,.7.7.6.49,1,.29,1.15.38,3-.07,1.3-.91-.21.21,2.11-.5,1.55-.38-1.57-1-.72-.31-1.15-1-.71-.49,1.3-.28.35,1,1.72-.39.5.29,1.16.7-.49.88,1,.7.21.78,1.48-.32.6.42,1.27,1.16,2.29,1.59,1.76-.7.39-.71-.71-.35.52.88.79.39-.1,1.09,2,3,3.55.21-.56,1.17,1,1.19.49.78,1.56,1,2.67.21,1.69.81,1.58.17,1.6.6,1.64,1,.32,1.4,1.77.57,1.75,1.05.92.62,2.65,1,1.57ZM504,832.38v1.48l.32,1.27-.71.59-.7-1-1.15-.39,1-.7-.88-1-1.58.42-.7.5-1.41-1.1-.46-.1-1.2-1-.49-1.46-1-.4v-1.68l1,.48.7,1,.18,1,1,1h.8l.29.39,1.19-.18.5-1.68.49-.4,1,.6.29,1.37Zm-5.91-2.29-.39-.28L496,827.35l1.2-.39.38-.81.71-.18.17,2.47v.88l1.2.6-.39.59ZM631.38,537.74l1.3.7-1.2.81-.28-.92ZM372.29,595.41l-1-.21-.49-1.36,1.3.69Zm-1.76,0v.39l-.7,1.3-.49-.42-2-2,.28-.49,1.47.81ZM369.34,592l-.21-1.3h.6Zm-4.76-.59-.28.59-2.19-1.3-.76.21-.82-.88v-1l1.58,1,.93.88Zm-3.35-4.23-.17-2,1.26,1.19-.21,1.58Z" transform="translate(0.3 0.3)"/><g id="Saudi_Arabia_label" data-name="Saudi Arabia label" class="cls-3"><text class="cls-8" transform="translate(435.18 603.87)">SAUDI ARABIA</text></g><g id="Saudi_Arabia_label-2" data-name="Saudi Arabia label" class="cls-3"><text class="cls-9" transform="translate(685.39 54.34)">PRESENCE OF</text></g><path id="Yemen" class="cls-1" d="M711.24,766.63l4.58,10.07L723,792.58l9.16,20.54,1,.31.59.5,7.89,17.15-1.41.7-.88-.28-1,.57-.5.7-1.15.81-1,.17-1.47,1-3,1-1.3,1-2.26,2-2,2.4-.49.71-.56,1.55-.82,1.68.21,1-.49,1.2-.21,1-.49,1.31.88,1.76-.18,1.09,1.21.88v2.4l.49,2.36.35.61-.29,1-.59.17L721.53,861l-.39.49-.81.21-1.58.78-.78.7-.1,1.15-.89-.48-1.47.6-1.59,1.19-.39.78.39,1-.39.2-2.28.29-2,1.47-1.76,1.2-.6-.21-1.6,1-4.15,1.48-4.72,1.19-3.94,1.41-2.39.28-2.57,1.58L686.06,879l-1.15.49-1.31.82-1.26,1.26-.71-.17-2.26.88-.31-.88-2,.35-3,1.31-4.72,1.57L667,886.38l-2,.71-1.17,1-1.76,1-.81.88-.1.91-1-.49-1.3.77-1,2-.35,2,.17,1-1.41.91v.72l-1,.45-.18,1.09-.49,1.27-1.09.7-1.2,2-1.15.82h-2.58l-1.3,1-.71.42-.46-.59-.8-.1h-1.66l-.7.38-2.47,1v-.71l-1.2-.95-2.75-.82-2.11,1-.94,1.68-1,.71-3.27,1.47-.49.29-1.59,2.36-2.64,3.06-.81.71-4.93,2-5.43,1.48L611.55,920,609,921.24l-1.69-.28-1,.17-1.27.6h-4.58l-1.75-.6-.78.5-1.9.42-3.74.18-1.4.59-1.55.21-3,.89-.7.5-2,2.67-.78,1-.21,1-1,1.59-.59.77-.78.49L576.58,933,575,934.48l-.5,1-.6,3,.21,1.09-.49.59-1.41-.7.42-.6h.78l-.28-1-1.68.21-.19.6-.81.38.6.71-.21.56-.7.6L568,939.74l-1.2.87-.21-1.09-.59-.6-1-.39h-1l-1.4.6-1,1.16-1.3,1.69-1.65.7-1.42.78h-1.26l-.71-.27-1-.11-2,1.2-1,.17-.49-.17-1,.34-1-1.25-.7-.3-1.87-1-1.15-.32L543.8,941H543l-1.2-.5-1.26,1.69-.81.28-.7-.28.41-2.29-.31-2-1.27-1.58-.6-1.26-.59-2-.78-1-.88-2.18-1.42-2-.55-2,.27-1.76-.1-4.93.6-1.42-.21-2.95-.17-1-1-2-.31-2.29-1.67-2-1.2-2.74-.49-.93-.6-2.95-.77-2.26-1.68-5.91.59-.11.17-1.19-.94-2.57.06-.88-.88-1.2-.6-2.15.21-2-.59-2.46-1.2-1.59-.28-1.1v-1.47l-.39-1-.81-.39-1.27-1-1-.59H518l-.42.7-1.17-.63v-1l1,.11.42-.49.11-1.48,1.77,1.4.7-.21-.21-2.11-.77-2.11-.21-1.9-1.42-2.18.36-.6-.71-1.37V860l-.31-.71,1-1.15V856.7l.31-.61,1-1,.28-1.19v-3.74l-.21-1.3-.88-3.88-.18-1.92-.6-1.59,1.76-1,.71-.82-.21-1,.31-.34,1.15-.36,1.32-1.15.7-2.26.07-1.49.32-.1,1.47.39.36-.6-.46-1.47.88-1-.39-1.19-1.19-.49-1-2.57.39-1.66v-1.21l-.49-1.47L524,820v-1.66l.49-.49,1.48-.72v-.59l-.7-1-1.27-.34,1-1.8,1.77-2,1.79-1.47,1-.31L531,810l1.69.81,1,.6,1.59,2.08,1.47,1,3.07-.11v.77l1,.39.92-1.37.78-.29.91.49,1-.1.77-1.47,1.41.38,2-.6,2.12-.28h1.33l1.48.38h.6l1.76-.77h11.38l1.19.28,3.74,2.36,1,.42,19.76,2.15,8.21-1.47,1,.48,5.42,8.21.31.21,3.17.08,1.37-.36,4.83-3.77.49-1.08,1.76-8.32.31-.88,4.72-8.2,6.14-10.85.39-.39,17.39-11.65,2-1,30-5.64Zm39.42,187.7.59.29.21.88-.7.1-.71-.28-.87-.91Zm-16.8-.49.59.28,1.2-.28.49.36-.7.91-.6.21-2-.32-.49-.59-1,.21-1-.88-.5.17-1-.56.49-.6,1.2.18,1.15.81ZM781,944l1-.52.28.59-1.58.49-.18,1-2.46,1h-1l-.8.36-.5.94-1.69,1.42h-2.35l-.5.57-.88-.29-4.16,1-1,.21-1.26-.21-2.29-.7-1.59-2.26-.59-.28-3.36-2.47-.48-1,1,.21.6-.38.21-1-.21-1.67,1.59-.4.59-1.2,2.36.32,1-.11,2.57,2.26,1.86.59.6-1.4.61-.08.77.32,1.47-.11,2.41-1.57,1,1,.72-.29.49.57.88.1.21.5,2.08.82,1.37.76Zm-260-30.43,1-.91.6.6-1,1.76-1,.7v-1Zm.42-8.91.78.82.21.7-.6,1.66-1.58-1v-1.19Zm-5.28-37.78-.45.35.49,1.2-.21,2.18-.36.78-.52.31-.6-.7.11-2.64.88-1.47Z" transform="translate(0.3 0.3)"/><path id="Lebanon" class="cls-1" d="M308.7,386.8l.31-1.2,1-1,.38-1.57v-.89l-.59-.71.7-1,.18-1v-1.52l.21-1.37,1.48-1.48.1-1.2,1-4.61.49-2.18-.11-1.87-.34-.82,1.76-.1.35-.29.52-2.18h.39l-.27-1.36.06-2-.49-1-.18-1.3.28-.56v-1.77l.11-.7.77-.1.7-2,1-.81.28-.6-.34-.57,1.93-.59,1.31-1.69v-1.7l-.6-1.36,1.47.59h4.55l.28-.38v-1l.81-.11.6,1,1,.49,1-.21V345h-1l.11,1.15-1.2,1.21.39.49h2l.49.77,1.87,1.3-.07,1.47,1.58,2-.31.71.31.88.78.77-.88,1.69-1.09,1.42-.21.94-1.66.32-1.3,1.76-.78,2,1.05,1,1.21.39.1.5-.6.49-1.86-.77-1.69.6-.6-.6-1.66,1-.38,1-.6.6-.7,1.68v.71l-.39.95,2,.81.7.57-.31,1-.78.49-1,.1.17,1-.17.91-1.77,1.48-.62,1.37-.78.71-.88.28-1,1.27-1,.7-1-.77-.31,1.55v2.12l-.4,1.65-1.57.5-1.42.37-1.15-1.15-2,.49Z" transform="translate(0.3 0.3)"/><path id="Kuwait" class="cls-10" d="M586.65,466l.81,1.41.49,2.25,1.17,2.19.8,1h.47l1.3,2.36,1,1.47.7,1-.49.71-1.57-1-1.42-.21-1.15.31-1,1.16-1.09.89-.77,1-.6,1.46-1,.61v.81L586,483l1-.35-.29,1.34.6.42,1-.42v-.7h.82l.77-.95,1,1.05.91.32.7-.21.08,1.69.59,2,.71,1.19,1.27,4.23.49,1,1.31,1.7,1.15.71.21,1.46,1.42,2.16,1.45.42-.18.5.18,1.55.59,2,1,1.51-16,.57-.32-.71L585,504.1l-1.16-2.18-.49-2.18-1.69-3.67L580,493.6l-9.76-1.25-9.51-1.11,3-4.92,1-2.57,1.37-2.18.28-2,1.2-2.95.18-1v-1.48l.6-1.7,1-5.21.49-1.19,1-.88L574,463.5l1.09-.18h5.43l1.19.18ZM597,480.4l.82.49.77,1.16-.6.1-.88-.69-1.37-.18-.1-.7.48-.49Zm-.7-6.94-.78,1.91-.7.77-.67.5-1-.11-.49-.71-1-1.93-1.2-1.76-1-.91,1.31-1v-1l.7-.21.28-1.57-.81-.19-.17-1.4,1,.31,3.94,5.14.5,1Zm-6.87-7.89-1,1-.5-.49.78-1Z" transform="translate(0.3 0.3)"/><g id="Kuwait_label" data-name="Kuwait label" class="cls-3"><text class="cls-11" transform="translate(599.95 491.43)">KUWAIT</text></g><path id="Israel" class="cls-1" d="M297.08,438.32l1.26-1.27.71-1-.42-1.77.42-1,2-2.58,1-1v-.6l-1.2-1,2-4.93,1.3-4.59.29-.7,1.57-8.94.4-7.72V399l.31-2.26-.21-2.46.39-.7L308,394l.71-1,.07-1.16-.28-.5v-2.12l.18-2.46h1.68l2-.35,1.19,1.16,1.42-.38,1.54-.49.39-1.7v-2l.31-1.68.89.8,1-.71,1.05-1.25,1-.32.71-.71.56-1.38-.1,1.3-.88.78.88.6-.57,1,.88.71.18,1.27.49.31.21.78-.28,1.41.78.67.59,2.57.78,1.26-.7,1.31v2L323.31,396l-1.37.91-.88.88h-.49l-.88,1,.49,2v1.48l.34.49v1l-.45,1.48.5.71-3.36-.81-.48-2.15-.71-.42h-2l-1.3-.88L310,403.87l-.32.78-.18,2.46-.38.21v1.6l.49.55-.21.72-.88,1.46.6,1.32.56,2.56.21,2.36.88,2-1,.59v1H311l.7-.6,1.38.6,1.58.28.57.6v1l-1.55.38-2.78,3-.6,1.31v2.36l-.7,1.75-.18,1,.31.82,1.06.49,2.29-.49h2.57l1.16-.6,2-2.19,1.21-.77,1.4-.1.18,2.46-.6,1.89.32.78-.49,1.26.49,1.42.7,1.15.18,1.6-.7,2.18v1.68l-1,2v2.15l-.49.59-.18,2-1,2.79-.7,5.14.6,1.48v.78l-.21,1v2.57l.6,1.69v.88l-.21,1-.71,1.47-.29,3v2.3l-.6,3v2.25l-.28,1.2-.1,1.25-.78,2h-.49l-1-2.15-.21-2-.88-2.77-2.28-5.32-.29-1.91L307,461.81l-1.48-1.55-.31-1,.1-1.19-.7-.88-.28-1.59-.71-2.18-4.22-9.27Z" transform="translate(0.3 0.3)"/><path id="Palestinian_Territories" data-name="Palestinian Territories" class="cls-1" d="M300.81,428.08l1.09,1v.6l-.77,1L299,433.29l-.35,1,.35,1.9-.66.88-1.21,1.26-.7-1.75-.67-1,1.48-1.76.38-.91.93-.78.28-.92,1.3-1.87Zm19.71-22.23v1.48l.71,2.47-.07,1.76.07.49-.28,1.2.28.7-.35.78.78,3.45-.32.31.81,2.15-.21.6.6,1.48-.5.8-.71,2.58-.06,2v2.14l-1.3.1-1.06.82-2,2.15-1.2.6h-2.64l-2.29.49-1-.49-.36-.89.18-1,.7-1.69V428l.57-1.41,2.78-2.81,1.65-.36-.18-.95-.59-.71-1.47-.28-1.42-.6-.67.7-1.05-.1-.25-1,1-.59-.78-2-.21-2.39-.56-2.53-.6-1.3,1-1.48v-.72l-.38-.55v-1.59l.35-.21.21-2.47.32-.78,2.74-2.28,1.41.88H316l.71.42.49,2.15Z" transform="translate(0.3 0.3)"/><polygon id="selection-rectangle" class="cls-12" points="0.3 0.3 0.3 0.3 0.3 0.3 0.3 0.3"/><rect id="selection-ellipse" class="cls-12" x="0.3" y="0.3"/><path id="selection-polygon" class="cls-12" d="M1000,0" transform="translate(0.3 0.3)"/><path id="selection-polyline" class="cls-12" d="M1000,0" transform="translate(0.3 0.3)"/><g id="credit-text-svg" class="cls-3"><text class="cls-13" transform="translate(874.83 1013.79)">Created with mapchart.net</text></g><path class="cls-14" d="M490.53,533.78c32.36-73.85,96.33-42.53,96.33-42.53,3.35-5.06,19.12-122.54-76.09-106.08" transform="translate(0.3 0.3)"/><path class="cls-15" d="M485.17,547.89c5-5.68,12.38-12.28,18.78-15.67L491.31,532l-9.55-8.28C484.24,530.48,485.27,540.32,485.17,547.89Z" transform="translate(0.3 0.3)"/><path class="cls-15" d="M496.06,388.55c6.37-4.09,14-10.37,18.33-16.19l-1.66,12.54,6.75,10.68C513.13,392.11,503.56,389.6,496.06,388.55Z" transform="translate(0.3 0.3)"/><path class="cls-14" d="M586.86,491.13s86.59,5.27,87.48,82.69" transform="translate(0.3 0.3)"/><path class="cls-15" d="M673.49,588.89c-2.28-7.22-6.33-16.24-10.82-21.93l11.67,4.88,12.08-3.71C681.4,573.35,676.47,581.93,673.49,588.89Z" transform="translate(0.3 0.3)"/><rect class="cls-16" x="701.61" y="80.72" width="206.82" height="103.95" rx="51.98"/><path class="cls-17" d="M782,121.94v-2h2.17v2Zm0,9.39v-8.07h2.11v8.07Z" transform="translate(0.3 0.3)"/><path class="cls-17" d="M786.25,128.85v-8.07h2.1v2.48H791v1.83h-2.63V129a.43.43,0,0,0,.49.49h2.3v1.15l-.92.69h-1.5A2.19,2.19,0,0,1,786.25,128.85Z" transform="translate(0.3 0.3)"/><path class="cls-17" d="M794.83,131.33a2.43,2.43,0,1,1,0-4.86h2.11v-.89a.43.43,0,0,0-.49-.49h-3.24V124l.92-.69h2.45a2.18,2.18,0,0,1,2.47,2.47v5.6Zm-.36-2.33a.43.43,0,0,0,.49.49h2v-1.37h-2a.43.43,0,0,0-.49.49Z" transform="translate(0.3 0.3)"/><path class="cls-17" d="M801.13,128.39V120h2.11v8.59a1,1,0,0,0,1,1v1.83Q801.13,131.48,801.13,128.39Z" transform="translate(0.3 0.3)"/><path class="cls-17" d="M805.9,121.94v-2h2.17v2Zm0,9.39v-8.07H808v8.07Z" transform="translate(0.3 0.3)"/><path class="cls-17" d="M812.29,131.33a2.43,2.43,0,1,1,0-4.86h2.11v-.89a.43.43,0,0,0-.49-.49h-3.24V124l.91-.69H814a2.19,2.19,0,0,1,2.48,2.47v5.6Zm-.37-2.33a.43.43,0,0,0,.49.49h2v-1.37h-2a.43.43,0,0,0-.49.49Z" transform="translate(0.3 0.3)"/><path class="cls-17" d="M818.58,129v-3.28a2.08,2.08,0,0,1,2.36-2.34h4.34V132a2.08,2.08,0,0,1-2.36,2.35h-3l-.7-.52v-.78h3.66a.79.79,0,0,0,.89-.9v-.85h-2.84A2.09,2.09,0,0,1,818.58,129Zm1.5.16a.79.79,0,0,0,.89.9h2.81v-5.38H821a.78.78,0,0,0-.89.88Z" transform="translate(0.3 0.3)"/><path class="cls-17" d="M826.73,123.59l.17-.24h1.28l2.19,6.68h.26l2.18-6.68h1.29l.15.24-3.62,10.79h-1.29l-.15-.24,1-2.81h-.84Z" transform="translate(0.3 0.3)"/><path class="cls-17" d="M835.75,134.38v-11h4.32a2.07,2.07,0,0,1,2.35,2.34V129a2.08,2.08,0,0,1-2.35,2.36h-2.84v3Zm1.48-4.35H840a.79.79,0,0,0,.89-.9v-3.6a.78.78,0,0,0-.89-.88h-2.81Z" transform="translate(0.3 0.3)"/><path class="cls-17" d="M844.37,130.81V130h3.51a.81.81,0,0,0,.9-.92c0-.62-.26-1-.78-1.07l-1.77-.29a1.94,1.94,0,0,1-1.86-2.08,2.06,2.06,0,0,1,2.35-2.32h2.47l.71.52v.78h-3.15a.8.8,0,0,0-.9.91.85.85,0,0,0,.78,1l1.78.31a2,2,0,0,1,1.85,2.18,2.06,2.06,0,0,1-2.33,2.33h-2.86Z" transform="translate(0.3 0.3)"/><path class="cls-17" d="M852.28,129v-5.62h1.48v5.78a.8.8,0,0,0,.91.9h2.79v-6.68H859v8h-4.34A2.08,2.08,0,0,1,852.28,129Z" transform="translate(0.3 0.3)"/><path class="cls-17" d="M861.33,131.33v-8h9.06a2.08,2.08,0,0,1,2.36,2.34v5.64h-1.5v-5.8a.78.78,0,0,0-.89-.88h-2.58v6.68h-1.5v-6.68h-3.47v6.68Z" transform="translate(0.3 0.3)"/><path class="cls-17" d="M798.88,144.67v-3.53h2.41v.67h-1.67v.87h1.52v.66h-1.52v1.33Z" transform="translate(0.3 0.3)"/><path class="cls-17" d="M803.14,144.67v-3.53h.73v3.53Z" transform="translate(0.3 0.3)"/><path class="cls-17" d="M806,144.67v-3.53h.79l1.4,2.32v-2.32h.74v3.53h-.8l-1.4-2.32v2.32Z" transform="translate(0.3 0.3)"/><path class="cls-17" d="M811,144.67v-3.53h2.41v.67h-1.67v.71h1.52v.67h-1.52V144h1.67v.67Z" transform="translate(0.3 0.3)"/><path class="cls-17" d="M815.24,144.4V144h1.58a.13.13,0,0,0,.15-.15v-.37a.15.15,0,0,0-.12-.17l-1-.2a.73.73,0,0,1-.61-.82V142a.76.76,0,0,1,.86-.86h1.16l.35.27v.4h-1.48c-.11,0-.16.05-.16.15v.33a.16.16,0,0,0,.13.17l1,.2a.74.74,0,0,1,.61.82v.33a.76.76,0,0,1-.86.86h-1.27Z" transform="translate(0.3 0.3)"/><path class="cls-17" d="M819.37,141.81v-.67h2.88v.67h-1.07v2.86h-.73v-2.86Z" transform="translate(0.3 0.3)"/><path class="cls-17" d="M826.52,143.81V142a.76.76,0,0,1,.86-.86h1.16a.76.76,0,0,1,.86.86v1.81a.74.74,0,0,1-.57.83l.33.64-.09.15h-.63l-.39-.76h-.67A.76.76,0,0,1,826.52,143.81Zm.74,0a.13.13,0,0,0,.15.15h1.1a.14.14,0,0,0,.16-.15V142a.14.14,0,0,0-.16-.15h-1.1a.13.13,0,0,0-.15.15Z" transform="translate(0.3 0.3)"/><path class="cls-17" d="M831.43,143.81v-2.67h.74v2.71a.13.13,0,0,0,.15.15h1a.13.13,0,0,0,.15-.15v-2.71h.74v2.67a.76.76,0,0,1-.86.86h-1.06A.76.76,0,0,1,831.43,143.81Z" transform="translate(0.3 0.3)"/><path class="cls-17" d="M836,144.53l1-3.39h1.13l1,3.39-.09.14h-.61l-.22-.72h-1.38l-.21.72h-.61Zm1.11-1.24h1l-.45-1.48h-.08Z" transform="translate(0.3 0.3)"/><path class="cls-17" d="M841,144.67v-3.53h.73V144h1.53v.67Z" transform="translate(0.3 0.3)"/><path class="cls-17" d="M845,144.67v-3.53h.74v3.53Z" transform="translate(0.3 0.3)"/><path class="cls-17" d="M847.6,141.81v-.67h2.88v.67H849.4v2.86h-.73v-2.86Z" transform="translate(0.3 0.3)"/><path class="cls-17" d="M852,141.28l.08-.14h.63l.77,1.5.76-1.5h.63l.09.14-1.12,2.14v1.25h-.73v-1.25Z" transform="translate(0.3 0.3)"/><polygon class="cls-18" points="775.43 119.43 759.84 128.42 759.84 145.27 775.42 136.27 775.42 119.45 775.43 119.45 775.43 119.43"/><polygon class="cls-19" points="759.82 128.45 744.2 119.43 744.17 119.45 744.17 136.27 759.8 145.28 759.82 145.29 759.84 145.29 759.85 145.29 759.84 145.28 759.84 145.27 759.84 128.42 759.82 128.45"/><polygon class="cls-20" points="741.94 119.43 727.43 127.8 727.43 144.64 741.92 136.27 741.92 119.45 741.94 119.45 741.94 119.43"/><path class="cls-21" d="M498.75,570.9l-7.64,7.65-7.65-7.65a10.81,10.81,0,1,1,15.29,0Zm-7.64-5.24a2.4,2.4,0,1,0-2.4-2.4A2.41,2.41,0,0,0,491.11,565.66Z" transform="translate(0.3 0.3)"/><path class="cls-21" d="M485.48,385.47l-5.18,5.19-5.18-5.19a7.33,7.33,0,1,1,10.36,0Zm-5.18-3.55a1.63,1.63,0,1,0-1.63-1.63A1.63,1.63,0,0,0,480.3,381.92Z" transform="translate(0.3 0.3)"/><path class="cls-21" d="M676.39,599.15l-2.9,2.89-2.89-2.89a4.09,4.09,0,1,1,5.79,0Zm-2.9-2a.91.91,0,1,0-.91-.91A.9.9,0,0,0,673.49,597.16Z" transform="translate(0.3 0.3)"/></svg>