<?xml version="1.0" encoding="utf-8"?>
<!-- Generator: Adobe Illustrator 25.0.0, SVG Export Plug-In . SVG Version: 6.00 Build 0)  -->
<svg version="1.1" id="map" xmlns="http://www.w3.org/2000/svg" xmlns:xlink="http://www.w3.org/1999/xlink" x="0px" y="0px"
	 viewBox="0 0 1000 1023" style="enable-background:new 0 0 1000 1023;" xml:space="preserve">
<style type="text/css">
	.st0{fill:#FF99FD;stroke:#F7FCFD;stroke-width:0.8396;stroke-linecap:round;stroke-linejoin:round;}
	.st1{fill:#020C56;}
	.st2{font-family:'GillSansMT';}
	.st3{font-size:32.8518px;}
	.st4{font-size:35.6065px;}
	.st5{fill:#92FFEF;stroke:#F7FCFD;stroke-width:0.8396;stroke-linecap:round;stroke-linejoin:round;}
	.st6{font-size:26.5753px;}
	.st7{fill:#EA073D;}
	.st8{font-family:'GillSansMT-BoldItalic';}
	.st9{font-size:36.2005px;}
	.st10{fill:#FF1D58;stroke:#F7FCFD;stroke-width:0.8396;stroke-linecap:round;stroke-linejoin:round;}
	.st11{font-size:28.3175px;}
	.st12{display:none;}
	.st13{display:inline;fill:#F0F0F0;stroke:#F7FCFD;stroke-width:0.8396;stroke-linecap:round;stroke-linejoin:round;}
	.st14{display:inline;fill:#2E3436;}
	.st15{font-family:'ArialMT';}
	.st16{font-size:19.0577px;}
	.st17{font-size:19.061px;}
	.st18{stroke:#222222;stroke-width:0.6;stroke-linecap:round;stroke-linejoin:round;}
	.st19{fill:#EFEFEF;}
	.st20{font-family:'CenturyGothic-Bold';}
	.st21{font-size:8px;}
	.st22{fill:none;stroke:#00B000;stroke-width:2;stroke-linecap:round;stroke-linejoin:round;}
	.st23{fill:#00B000;}
	.st24{fill:#171B3A;}
	.st25{fill:#FFFFFF;}
	.st26{fill:url(#XMLID_2_);}
	.st27{fill:url(#XMLID_3_);}
	.st28{fill:url(#XMLID_4_);}
	.st29{fill:#FC0698;stroke:#F7FCFD;stroke-width:0.8396;stroke-linecap:round;stroke-linejoin:round;}
</style>
<path id="Iraq" class="st0" d="M377,82.2l-0.2,1.2l0.5,1.5l1.8,1.5l1.1-0.3l1.2,0.8v2.4l1.1,2.5v1.1l-1.1,2.2l0.2,1.7l1.5,0.6h1.5
	l1.2,1.1l1.4,0.3l1.5,2.3l0.6,1.5l-0.3,1.5v2.4l-0.4,1.1l1.6,1.5l1.7,3.1l1.4,0.9l2.4-0.9l1.5,0.8l0.9,2l0.3,1.8l1.1,1.5l-0.3,1.1
	l1.2,0.9l0.8,3.7l1.8,2.3l-0.5,3.3l0.9,1.4h0.8l2.6-1.5l2.9,0.8l1.8,1.4l2,1.1l1.9,2.1l1.2,2.3l1.1,0.6l1.1-0.4l0.9,0.5l1.8-1.1
	l4-0.3l1.5-0.8l2,0.4l1.1,1.6l1.3,0.2l1.9-0.6l0.9-0.6l1.4,0.4v1.8l-1.2,1.3l-0.6,1.2h-2l-1.9,1.2h-2.2l-1.1,1.5l0.8,3l-1.1,0.1
	l0.9,2.2l-0.5,1.5l0.6,1.2l2.7,3.5l3,2.6l0.3,1.3l-0.6,1.6l0.8,0.9l1.6,0.5v1.1l-0.6,2.6l0.6,1.2L433,168l-1.5,1.3l-3.2-1.1
	l-0.1,1.6l-1.2,1.4l0.8,2.2v2.6l-0.4,0.8l-2-0.8h-0.6v3l-1.8,0.9v2.3l-0.9,1.8l1.5,1.2l0.9,1.5l1.1,4.4l-3.1-0.4l-3.5-1.3l0.8,4.2
	l-0.6,1.2l-1.6,1.1l1.5,3.4l1.2,1.5l0.5-0.6l1.5,0.3l0.5,0.9l0.6,1.9v2l-0.6,1.2l0.8,1.5l-0.2,1.1l-2.2,2.4l-0.5,3.2l-1.1,0.9
	l1.5,1.5h1.9l3.8,5.5l1.5,1.6l1.1,2.3l0.9,1.4l2.3,1.5l0.6,2.3l1.2-0.3l1.2-1.2l2.3-0.3v1.2l1.5,1.2v1.5l-1.6,1.8l1.5,0.8l1.8-1.1
	l1.8,1.8l0.9,1.5l0.5,2.2l1.2,1l1.5,2l1.7,1.5l1.1,3.8l-1.5,2.2l-1.8,0.1v1.4h1.5l1.1,0.8l0.1,1.4l-1.1,1.5l1,1.6l2,0.3l3.7-0.5
	l3.5,1l3.5,1.5l1.1,1.1l3.4,1.9l1.6,1.2l2.3,1.5l1.5,1.5l11.1,9.2l2.3,1.5h2.2l1.8-1.2l3.1,1.1l3,3.4l-0.4,1.6l3.5,4.1l1.1,1.5
	l-0.2,2.3l1.8,1.5l1.2,0.2l1.7,2.7l1.8,1.3l0.6,1.5l1.8,2.6l0.9,0.6l0.8,1.6l2.5,2.3l0.2,2l-2.4,15.1l2.6,17.4l10.7-0.2l0.4,0.8
	l3.1,20.5l0.3,1.2l3.5,0.4l1.4,1.1l2,4.3h2.3l1.2,0.4l0.8,1.2l2.7,2.6l0.6,1.5l-0.6,1.2l0.6,1.7l1.2,1.4l1.5,3.5l1.5,1.2l1.2,0.3
	l-0.1,1.5l-3.7-0.4l-2.6-0.9l-4.5-2.6l-3-0.8l-2.6,0.5l-2.6,1.8l-7.6-3.8l-1.8-0.4l-8.4,0.3l-1.8,0.3l-4.7,2.4l-1.5,1.5l-0.8,1.6
	l-1.5,8.2l-0.9,2.6v2.3l-0.3,1.5l-1.8,4.6l-0.4,3l-2.2,3.5l-1.5,3.8l-4.6,7.6l-5.5,1.5l-53.9-4.4l-0.9-0.3l-45.8-36.8l-20.9-16.8
	L347.4,353l-14.8-12.4l-58-34.6l-1.6-0.7l-11.3-2.1l-28.6-4.7h-0.3v-0.3l3.2-3.7l0.6-1.5l-1.5-4l-0.8-0.4l-5.8,2l-0.7-0.8l-2.4-6.1
	l2.4-1.1l-7.9-20.9l-6.1-15.9l25.5-19.2l12.7-9.7l16.9-12.8l7.3-2.6l1.5-1.8l0.6-2.7l3.7-11.8V183l-2.9-15.2v-2.6l0.5-5.2l-0.5-4.1
	v-1.4l2-4.3l0.3-2.6l-1.1-5.8l-0.9-2.8l-4.6-7.6l-0.3-1.5l-0.6-10.7v-1.1l1.8-6l1.2-1.5l2-0.3l9.2-2.4l1.6-1.2l11-16.2l2.5-3.1
	l-1.1-1.9l6.2-1.6l0.3-1.6l2.7-6.1l0.6-1.5l1.5-0.6l0.8,0.1l0.6,0.9l3.9,1.1l2-1.2l2.3-0.9h1.5l4.6,2.3l2.2-0.5l5,3l1.8-0.3l2.6,0.9
	l3-0.3l1.5,0.3l1.5,1.1l0.8-0.8l1.7-0.3l1.5-2.7l0.8-1.1l1.5-0.3l1.5,0.3l3.4,1.2l1.4,1.1l1.2,2.6V82l-1.5,1.1l0.1,1.8l2.4,4.4
	l1.7,0.5l0.6-0.3l0.8-2.7l2.4-1.1l1.4-1.2l1.5-2.2l0.9-1l1.5-0.6l3.4,0.4L377,82.2z"/>
<text transform="matrix(1 0 0 1 329.8746 299.0018)" class="st1 st2 st3">IRAQ</text>
<text transform="matrix(1 0 0 1 685.9615 582.7742)" class="st1 st2 st4">QATAR</text>
<path id="Saudi_Arabia" class="st5" d="M653.4,603.4l3,4.6l1.7,2.1l1.8,0.8l3.8,0.3l1.6-0.8l2-2.1h1.7l1.5,1.2l-0.4,0.8l0.4,2.4
	l1.2-0.4l0.6-1.9l1.4-2h1.1l0.5,1.2l1.6,0.8l-1.7,0.9l-1.2,2.9l-1.9,1.6l-0.6,1.8v2.6l-0.6,0.2l0.3,1.5l2.2,0.3l2.1-1.2l2.1,0.6
	l1.8,1.6l1.5,0.6l0.4,1.5l0.3,3.8l1.1,2.2l14.5,18.5l22.9,28.7l1.5,1.1l85.3,11.5h0.4l1.6-3.6l18.4,28.7l0.6,1.8l-1.5,12.5
	l-3.3,23.7l-3.8,27.3l-3,21.7L774,823.2l-27.5,12.7l-25.4,11.8l-47.4,9l-46.6,8.7l-3,1.5l-26.9,18l-0.6,0.6l-9.4,16.8L580,915
	l-0.5,1.4l-2.7,12.9l-0.9,1.5l-7.6,5.8l-2,0.8l-4.9-0.1l-0.4-0.3l-8.5-12.7l-1.4-0.8l-12.8,2.3l-30.3-3.3l-1.5-0.6l-6-3.8l-1.8-0.3
	H481l-2.7,1.2h-0.9l-2.3-0.4h-2.2l-3,0.3l-3.3,0.9l-2.2-0.6l-1.2,2.3l-1.5,0.2l-1.4-0.8l-1.2,0.4l-1.4,2.2l-1.5-0.6l-0.2-1.2
	l-4.7,0.2l-2.2-1.5l-2.6-3.1l-1.5-1.1l-2.5-1.3l-2.3-0.3l-1.5,0.4l-2.8,2.3l-2.7,3.1l-1.5,2.5l2,0.8l1.2,1.5v0.9l-2.4,1.1l-0.6,0.8
	l-0.1,2.6l-0.8,2.6l0.8,2.3v1.8l-0.6,2.6l1.5,4l1.8,0.8l0.6,1.8l-1.2,1.5l0.8,2.3l-0.8,0.9l-2.3-0.6l-0.5,0.2v2.3l-1.2,3.5l-2,1.6
	l-1.8,0.6l-0.5,0.8l0.3,1.4l-1.1,1.4l-2.7,1.4l-0.3-2.2v-2.1l-1.8-2.3l-0.6-1.8v-4.5l-1.1-1.5v-1.4l-2.7-3l-1.3-0.9h-0.6l-1.4-1.8
	l0.4-1.8l-0.8-3.5l-1.1-1.4h-1.8l-0.8-1.1l-1.5-4.3h-1.5l1.1,1.8l-0.8,0.5l0.6,2.8h-0.5l-0.2-3l-0.8-2.4l-1.1-5.8l-0.4-1.6l-0.1-3.1
	l-0.6-1.4l-0.9-0.3l-0.5-1.1l-4-3.7l-0.6-0.2l-1.5-3H393l-0.3-0.9l-1.5-1.8l-0.8,0.3l-1.5-2.1l-2.6-2.6l-0.6,0.4l-2.4-2l-2.2-2.1
	l-1.5-2.1l-0.4-2l-3.1-3.7l0.3-0.8l-1.6-2.5v-0.6l-2-2.3l-0.3-1.5h-0.9v-1.4l-0.9-1.8l-0.6-2.3l-0.2-2.3l-1.1-1.6l-1.4-1.1l-0.8-1.7
	l-0.9-0.8l-0.6,0.6l-1.5-1.2l-1.1-2.3l-1.2-1.7v-1.5l0.9-4.3l-1.4-1.2l-1.4-0.3l-0.4-1.5l-0.9-1.2v-0.9l0.9-4.6l-0.3-0.8l-3.5-1.7
	l-1.1-2.2v-1.8l-0.4-1.9l-1.1-1.5l-2-1.8l-0.9-3.7l0.5-1.1l-0.5-2.2l-3.8-1.5l-1.9-2.2l0.3-1.9l-0.5-3.1l-1.8-2.6l-0.8-0.6h-3.1
	l-2.6-4l-1.1-0.8V813l-0.6-1.4l-2.7-1.5l-2-2.3l-1.9-0.6l-2.5-1.8l-1.2-1.6l-0.4-1.1l-2-0.5l-1.8-2.2l-1.7-1.5l-1.5,0.3l-0.9,0.6
	l-2.5-1.4v1.5l-3.3-2.3l-2.3-1.4l-0.6-1.2l-3.5-3.4l-2.3-3.8l-0.8-0.6l-0.2-1.4l-1.1-1.2l-0.4-1.8l-1.4-1.5l0.3-1.5l-2.3-0.4
	l-0.3-1.4l0.9-0.3l-0.4-1.4h-1.4l-1.7-1.5l-0.8-0.9l0.4-1.2l-1.1-0.6h-1l-1.2-2.1l-0.3-1.8l-0.9-1.5l-2.3-2l-0.8-2.4l0.3-1.1
	l-1.5-2.9l-1.8-2.3l2.4-2.7l0.3-1.1l-0.9-4.4l-1.3-0.3l-0.8-1.4l-0.6-2.3l-0.3-2.6l-0.4-1.1l0.9-1.8l-1.5,0.3l-0.6-1.4l-0.6-1.6
	l-2.1-2.6l-1.1-2.6l-0.9-3.5l0.8-1.3l1.1,1.5h0.5v-2.3l0.6-0.6l0.2-2.7l-0.5-1.5v-3l0.9-1.5l0.2-1.8l1.6-3.3l-1.2-0.7l-1.2,0.6
	l0.3-1.8l-0.4-2.3v-2.3l-0.4-1.2l-1.4-2l-2.1-4.3l0.7-1.8l-1.6-2l-0.2,1.6l-2.1-2.9l-2-3.5h0.9l1.5,2.7l0.9,0.5l0.6-0.7l-1.1-1.9
	l-1.2-1.1l-0.5-1.1l-3.2-1.5l-0.9-1.7l0.8-2.3l-0.4-2.3l-0.6,0.4l-2.6-4.1l-1.4-2.9l-0.4-1.8l-1.1-2.2l-0.9-4.6l-0.9-1.2l-0.3-1.4
	l-1.8,1.1l-0.3-2l-1.5-2.2l-2.1-5.9l-1.9-1.2l-1.4-2.4l-1.9-0.9l-1.9-2.2l-1.2-0.3l-1.4-0.9l-1.5-1.5l-2.3-2.4l-1.1,0.2l-3.9-3
	l-0.5-0.6l-1.8,0.3l-3.6-3l-0.4-0.8l-3-2.1l-1.5,0.5l0.3,1.5h-1.5l-1.4-1.2l-0.8,0.3l-2.2-3l-1.2-1.1l-0.5-1.5l1.2-0.2v-1.5
	l-5.4-7.6l-3.5-4.7v-2.3H205l-1.1-0.9l-0.8-1.5h2.3l1.2-0.9l-0.1-2.1l0.4-1.8l-1.2-3.7v-2.6l-0.5-1.8l-0.8-1.5l-1.8-2l-3-3.3
	l-0.8-2.3l-1.1-1.9v-1.5l-1.6-1.5l-1.1-2.4l-2.3-4l-2-1.2l-2.4-3.5l-1.1,1.5l-1.8-1.4l-1.2-1.6l-0.2-1.3l-1.2-1.4v-1.8l1.1-1.9v-1.2
	l-0.6-2.2l-2-1.5l-3.6-0.9l-0.9-1.3l-2.6-5.6l-2.6-3.7l-3.1-6.9l-3.2-5.4l-1.8-2.3l-3.1-3L160,525l-1.2-1.9l-0.9-2.6l-0.6,0.2
	l-1.5-1.8l-2.3-2.2l-3-3.9l-1.2-2.7l0.3-1.5l-1.3-1.7l-3-3.8l-1.6-1.2l-2.5-3l-1.1-1.1l-1.9-3.8l-0.3-2.3l-0.6-1.5l-2-2.3L134,485
	l-0.7-1.1l-1.5-0.9l-1.2-3l-2.6-3.4l-2.6-2l-0.3-0.8l1.2-0.8v-0.8l-2.7-0.9h-1l-2-1.6l-1.8,0.1l-3,1.5l-1.6-0.2v-1.5l-1.8,0.5
	l-0.5,0.6l-1.6-0.6l-0.8-1.2l-1.8,2l0.8,0.6l-0.9,2l-0.8-0.4l-0.4-2.2l-1.1-0.7l0.3-0.8l2.3-2.2v-4.1l0.6-0.6l0.8-3.1l0.2-1.9
	l0.6-1.1l0.2-1.9l0.8-1.9l-0.8-4l-0.6-1.8l0.3-2.6l0.9-3.8v-2.6l-0.8-0.9l0.8-2.7v-1.8l-0.6-1.5l0.5-1.8l0.6-6.2l0.9-0.8l-0.4-1.6
	l0.8-0.8l-0.5-1.8l35.3,6.1l1.6-0.3l11.8-12.6l5.8-14.4l1.5-1.5l22.5-5.8l0.6-0.8l3-12.9l0.9-1.5l9.1-6.5l-18.6-21.1l-19.3-20.1
	l30.4-11.3l31.1-11.2l1.1-0.6l3.2-4.2l0.9-0.6h0.3l28.8,4.5l11.1,2.3l1.8,0.8l57.9,34.4l14.8,12.5l13.7,11.8l20.9,16.8l45.8,36.7
	l0.9,0.5l53.9,4.4l5.5-1.5l14.9,1.6l14.9,2l2.6,3.8l2.6,5.5l0.8,3.4l1.6,3.5l2.5,2l0.3,1.2l24.9-0.9l2.2,1.6l0.7,2.2v2.4l0.9,0.4
	v1.5l0.9,2l3,3.4v2.2l0.3,1.6l2,2.7v0.8l1.8,0.9h1.5l1.5,0.5l-1.5,1.1v0.9l1.4,1.2l1.5,1.2l2.4,2.7l-0.5,1.5h-1.2l-0.6-0.6l-0.3,3
	l1.2,2h1.1l0.1,1.2l1.1,0.3l-0.6,1.5l0.2,0.8l3.7-0.8l1.8,1.5l2.6,1.5h1.8l1.4-0.4l1.6,0.4l2.4,2.3l0.8,1.9l-3.5-0.3l-1.4,1.2
	l1.6,1.4l1-1.4l0.9,0.5l-0.9,1.8v1.5l1.6-1.1l1.3,0.6l-0.2,0.9l0.8,2.4l0.3,1.9l0.9,1.5l1.4-1.4l0.9,0.6l-0.3,1.8l0.4,1.3l1.8-0.6
	l1.5-1.8l1.5,1.5l0.9,2.3l1.4,1.1l2.3,3.3l1.2,1.5l2.6,1.7l2.2,1.1l1.5,1.1h2.4l2.1,1.8l2.7,3.7l2.6,2l-3.5-0.5l-1.8-0.5l0.3,1.5
	l0.9,0.9l0.3,3.3l1.4,3l1.6,1.9l3.1,1.1l1.1,0.9l0.8,1.5l0.4,1.8l0.6,4.6l-0.1,2l-1.4-0.3l0.3,3.3l-0.8,2.4l-0.6-2.4l-1.5-1.1
	l-0.5-1.8l-1.5-1.1l-0.8,2l-0.4,0.6l1.5,2.7l-0.6,0.8l0.4,1.8l1.1-0.8l1.4,1.5l1.1,0.3l1.2,2.3l-0.5,0.9l0.6,2l1.8,3.6l2.5,2.7
	l-1.1,0.6l-1.1-1.1l-0.6,0.8l1.4,1.2l0.6-0.2l1.7,3l4.6,5.5l0.3-0.9l1.8,1.5l1.8,0.8l1.2,2.4l1.5,4.1l0.3,2.6l1.3,2.4l0.3,2.5
	l0.9,2.5l1.5,0.5l2.2,2.7l0.9,2.7l1.6,1.4l1,4.1l1.5,2.4L653.4,603.4z M400.4,949.4v2.3l0.5,2l-1.1,0.9l-1.1-1.5l-1.8-0.6l1.5-1.1
	l-1.4-1.5l-2.4,0.6l-1.1,0.8l-2.2-1.7l-0.7-0.2l-1.8-1.5l-0.8-2.3l-1.5-0.6v-2.6l1.5,0.7l1.1,1.5l0.3,1.5l1.5,1.5h1.2l0.4,0.6
	l1.8-0.3l0.8-2.6l0.8-0.6l1.5,0.9l0.4,2.1L400.4,949.4z M391.3,945.8l-0.6-0.4l-2.6-3.8l1.8-0.6l0.6-1.2l1.1-0.3l0.3,3.8v1.4
	l1.8,0.9l-0.6,0.9L391.3,945.8z M597.5,493.5l2,1.1l-1.8,1.2l-0.4-1.4L597.5,493.5z M196.7,582.8l-1.5-0.3l-0.8-2.1l2,1.1
	L196.7,582.8z M194,582.8v0.6l-1.1,2l-0.8-0.6l-3-3l0.4-0.8l2.3,1.2L194,582.8z M192.1,577.4l-0.3-2h0.9L192.1,577.4z M184.7,576.5
	l-0.4,0.9l-3.4-2l-1.2,0.3l-1.3-1.4v-1.5l2.4,1.5l1.4,1.4L184.7,576.5z M179.6,570l-0.3-3.1l1.9,1.8l-0.3,2.4L179.6,570z"/>
<text transform="matrix(1 0 0 1 316.0396 593.4305)" class="st1 st2 st6">SAUDI ARABIA</text>
<text transform="matrix(1 0 0 1 685.0894 54.0449)" class="st7 st8 st9">PRESENCE OF</text>
<path id="Kuwait" class="st10" d="M533.3,363.3l2.1,3.6l1.3,5.8l3,5.6l2.1,2.5h1.2l3.3,6.1l2.5,3.8l1.8,2.6l-1.3,1.8l-4-2.5
	l-3.6-0.5l-3,0.8l-2.6,3l-2.8,2.3l-2,2.5l-1.5,3.8l-2.5,1.6v2.1l4.3-0.8l2.5-0.9l-0.7,3.5l1.5,1.1l2.7-1.1v-1.8h2.1l2-2.4l2.5,2.7
	l2.3,0.8l1.8-0.5l0.2,4.3l1.5,5.1l1.8,3.1l3.3,10.9l1.3,2.5l3.4,4.4l3,1.8l0.5,3.8l3.6,5.6l3.7,1.1l-0.5,1.3l0.5,4l1.5,5.1l2.5,3.9
	l-41.1,1.5l-0.8-1.8l-3.8-3.5l-3-5.6l-1.3-5.6l-4.3-9.4l-4.1-6.3l-25.1-3.2l-24.5-2.8l7.7-12.7l2.5-6.6l3.5-5.6l0.7-5.1l3.1-7.6
	l0.5-2.5v-3.8l1.5-4.4l2.5-13.4l1.3-3.1l2.5-2.3l8.1-4.3l2.8-0.5h14l3.1,0.5L533.3,363.3z M560,400.4l2.1,1.3l2,3l-1.5,0.3l-2.3-1.8
	l-3.5-0.5l-0.3-1.8l1.2-1.3L560,400.4z M558.1,382.5l-2,4.9l-1.8,2l-1.7,1.3l-2.5-0.3l-1.3-1.8l-2.5-5l-3.1-4.5l-2.5-2.3l3.3-2.6
	v-2.5l1.8-0.5l0.7-4l-2.1-0.5L544,363l2.5,0.8l10.1,13.2l1.3,2.6L558.1,382.5z M540.5,362.3l-2.5,2.5l-1.3-1.3l2-2.5L540.5,362.3z"
	/>
<text transform="matrix(1 0 0 1 556.4479 411.3797)" class="st1 st2 st11">KUWAIT</text>
<g class="st12">
	<path id="Iran" class="st13" d="M476.9,203.5l1.4,0.4l0.7,1l1.1,2.7l0.9,0.9v0.5l2.1,1.3l1.2,1.2l1.1,1.7l0.7,1.8l0.5-0.2l2.2,0.7
		l1.5,0.8v0.7l1,0.7l0.5,1l0.8,0.6v0.8l0.4,0.6l2,0.9l2,0.3h1.9l1.6,0.6l4.3,0.8l1.5,0.6l1.4,0.3l1.3-0.3l1.8-1.3l1.8-0.2l2.6,1
		l0.8-0.2l0.9-1.3l0.3-1.2l0.5-0.7l1.3-1l0.4-1.3l0.6-0.7l0.8-1.6l0.6-0.2l1.2,0.3l1.1-0.9l0.4-1.5l0.6-1.8l0.9-0.7l1.8-0.9l0.7-0.5
		l1.3-2.1l1.2-1.2l2-0.8l0.8-1.1l2.5-1.8l0.9-1.3l0.7-0.5h1.6l0.5-0.6l0.8,0.3l1.5,1.2l4.2,4.2l1.7,1.3l1.4,1.8l-0.7,0.4l-0.9,0.8
		l-1.2,0.3l-1,1l-0.3,0.8l0.2,1l1,1.4l1.5,1.2l1.6,0.8l1,1.7v1.4l-0.8,0.6l-3.5,0.8v0.6l-1,1l0.2,1.2l0.6,0.8l1.5,1l3,1.4l0.6,0.8
		l0.1,1l2,1.7h0.7l1.4-0.5l0.6,1.3l4.5,4.6h1l1-0.3l1.2-1l2,0.2l0.5,2.4v0.9l0.6,2l0.6,1l1,3.4l1.4,3.2l0.1,1.2l0.4,1l1,1.2v0.8
		l1.1,2l1.4,1.7l1.7,1.5l1.7,1.1l3.5,1.8l1.7,0.5l7.9,1l2-0.7l0.2,0.6l1.9,0.6l2.7,0.6l1,0.4l0.8,0.6l0.1,1l1.4,2.3l0.8,1.5l0.8,1
		l2.6,2l1.3,1.2l0.7,0.3l2.5,1.6l0.8,0.3l1,1l3.7,1.8l3.3,2.1l1.9,0.8l5.9,1.1l3.8,1l3.9,0.7l3.8,1l3.5-0.6l3.1-1.5l3.3-1l6.7-1.8
		l6.3-2.5l6.3-1.8l0.9-0.2l7.8-0.8l1.4-0.4l0.8-1l0.1,1.1l-1,0.5l-1.4,0.2l-1,0.5l-0.9-0.2l-1,0.4l-1.3-0.1l-0.5,0.4l0.7,0.8l1,0.4
		l3.2,0.2l0.7,0.3l2.4-0.8l0.2-0.7l-0.6-2.8l-1-0.8l0.3-1.4l-1.2-1.8l-1-2.3l-1.2-2.2l-0.7-2.3l5.6,0.3l0.7-0.2l0.6-0.7h1.4l0.6-0.3
		l3-2.3l1.6,0.2l0.7-0.2l0.4-0.6l1.8-1.7l0.1-1.3l-0.1-1L687,252l0.1-1.9l0.6-1.2l2.6-2.4l0.7-1v-0.7l0.8-0.3l0.3-1l1.7-0.5l0.4-0.7
		l1.1-0.5l2-1.9l1.6-0.3l3.8-1l2,0.2l1.2,0.5h1l1.6,0.5l2.8-0.7l2,0.5l1.6-0.4l0.3-1.2l-1-1.2l0.1-0.4l1-1.3l1.2-0.9h1.9l1.3,0.5
		l1.7-0.9l1.1-0.2l2.1,1.2l3.2,0.5l1.3,0.4l1-1l0.5-1l0.5-0.6l1,0.3l1.6,2.4l1.2,1.2l1,1.4l0.3,0.9v1.5l0.6,0.7l3.2,1.2l1-0.3
		l1.4,0.3l1.6-0.1l1,0.5l0.7,0.1l0.8,0.8l1-0.2l0.7,0.2l3.6,1.5l2.1,0.4l1,0.4l1,2.6l0.8,0.5l1.7,0.2l1.2,0.6l2-0.5l0.5-1.3l1-0.2
		l1.2,1l1,0.3h1l0.3-0.4h1l0.2-1l1.4,0.7l1.6,0.3l1.2,0.6l1.2,0.3l0.8,0.7l3.2,2l1.5-0.5h0.5l1,1l0.6,1.6v0.8l1,2.5l2.5,2.1v0.8
		l1.2,0.6l0.6-0.3l0.7,0.5l0.7,1.4l0.5,0.1l0.7-0.7l3.1,1l2.4,1.6l1.8,0.3l0.8,0.3l0.9,0.9l1.2,1.7l1.3,1.6l2.8,2.8l0.6,0.7l1.7,2.5
		l0.7,0.3l14.7-0.8l1.9,0.3l0.8,1.6v1.8l0.4,0.7v2.3l0.3,1.4l0.4,1l0.7,0.6l0.6,1.5l0.4,0.5l1,2.9v1.6l-0.5,0.4l0.3,1.1l-0.7,1
		l1.4,0.5l0.8,0.8l0.9,1.3l0.9,3l0.1,2.7l1.1,1.5l1,2l-0.5,1.7l-0.2,1.7l-0.2,1.6l0.4,1.4l-0.4,0.8l-1,0.4l0.3,2.6l1.1,1.2l0.4,1
		l-0.4,1.3l0.2,3l-0.2,0.9l0.4,1l0.2,2l-0.6,0.2l-0.2,1.3l-0.8,1l0.4,1.5l-0.1,1h-0.8l-1,2l-0.8,0.4l-1.6,0.5l0.8,1.6l0.8,0.4
		l3.1,3.5l0.3,0.5l-4.9,0.5l0.3,0.6l-1,1l-1,1.9l-0.3,1.3l0.1,1.3l1,2.6l1.4,4.2l0.2,1l-0.2,1.7v1l1,2l1.6,1.3l1.8,0.8h1.7l1.5-0.1
		l1.5,0.2l1.1,1l-0.3,0.5l-1.3,0.4l0.3,1.3l-0.1,0.9l-1,1l-2.7,6.1l0.5,2.6l0.6,1.8l6.6,13.7l3,6.6l0.5,2.3l0.1,2.6l-0.4,1.3l1,2.5
		l0.2,1.7l1.1,4l0.2,2l0.8,2l0.8,2.6l0.7,0.4l17.3,2.3l1,0.5l1.3,1.6l0.2,1.8l1,1.6l0.7,1.6l1.2,2.4l0.1,1l-0.2,1l0.6,2.3l-0.2,1.4
		l-4.9,9.4l-7.2,14.1l-2.1,3.9l3.5,3.6l7.9,8.5l1.5,1l0.3,0.6v1.6l0.4,1l1.2,1.4l0.8,1.6l0.7,0.2l0.7,1.3l0.6,0.3v1.3l1,0.8l1.3,2.3
		l0.5,1.5l0.8,0.7l0.9,1.6l0.8,0.8l2.6,2.3l1,1.3l2.5,2.3l1.8,0.6l1.8,0.8l2.1,0.3l1.9,0.9l2.9,0.5l0.6,0.4l0.9,1l1,0.5l0.9,1.4
		l1.6,1.6l0.5,0.3l3.2-0.9l0.5,0.3l0.3,1l0.5,5.9l1.8,4.7l2.5,9.2v1.2l-0.5,3l0.5,0.6l0.1,1.5l-0.5,0.2l1.5,1.1l0.7-0.2l0.6,0.3
		l1.3,0.1l1.7-0.4l1-0.4h1.2l1.1-0.5l2,1l1,1l1,1.8l-1.3,0.1l-0.3,1.8l0.7,3.1l0.8,1.4l-0.3,1l-0.8,0.1l-0.4,0.7l0.6,3.9v1.2
		l-0.3,0.5l-0.8-0.3l-0.8,0.2l-1.7-0.2h-4.9l-0.6,0.9l-1,0.5l-0.7-0.2l-0.8,0.7l-3.5,0.6l-0.7,0.8h-0.8l-1,1l0.2,0.8l-0.7,1.6
		l0.6,1.6l-0.4,0.3l-2.7-0.6l-0.3,1.6l-1.6,0.6l-0.6,0.6l-2.5,1l-0.3,0.4l-0.3,1.6l0.5,9.2l-0.3,1l-1.2,0.2l-0.3,0.8l0.7,2.1v1
		l-0.4,1.3l1,9.1l-0.2,2.3l-0.4-0.8l-1.9,1.1l1,0.6l-0.3,1.3l-1.2,1.1l-0.4,0.8l-3.8-1.4l-1.3-0.3l-0.5-1l-3.2-1.3l-3.6-0.6
		l-3.1-0.8l-2-0.2l-0.9-1.5l-0.5-2.2l-1.3-1h-0.7l-1.7,0.8l-0.6,1.1l0.3,1l0.7,0.2l1,1l-0.3,0.2l-2.1-1h-0.9l-1.2-1.3l-1.5,0.2
		l0.4,1.5l-2-0.5l-1-0.8l-2.9,0.4l-0.7,0.7l-1-0.3l-1-1l-1-0.3L852,587l-1.7-0.4l-1.3-1.2l-0.8-0.5l-5.3,1.2l-1.1,0.7l-1-0.2
		l-1.5,0.2l-0.7-0.5l-2-2.6l-0.9-0.4h-1l-0.6-1l-1.9,0.1l-3.9-0.7l-1.3,0.3h-1.2l-0.3-0.7l-1.3,0.2l-0.7,0.7l-0.6-0.1l-1,0.4
		l-0.7,0.6l-0.7,0.2l-2.1-0.5l-1.2-1l-1-1.7l-0.7-0.9l-0.8-0.2l-1.6,0.8l-1,1h-0.4v-1.8l-0.4-0.8l-0.9-0.5l-2.1,0.3l-1-0.2l-1.5,0.1
		l-1.4-0.7l-2.8-0.1l-0.5-0.6l-0.4-1.4l-1.4-2.9l-0.9-1h-0.5l-1.1-2.8v-0.6l0.7-1.4l-0.4-1l-1.7-1.7l-0.6-2.1l-1-1.6l-0.5-1.3
		l-0.2-3.4l-0.3-1.3l-2.4-6.4l-1.2-1.2l-0.4-0.9l-0.7-0.5l0.7-0.6l-0.3-0.5l-0.9-0.1l-0.8-0.7l-0.5,0.1l-0.3-1l0.4-0.6l-1.2-0.7
		l-0.7-1.2l-0.5,0.4l-0.9-0.1l-0.7-0.6H780l-1.2-0.4l-2-0.2l-2-0.6l-1.9,0.3l-0.8,0.7l-2,0.3l-0.4,1l-2,1.7l-0.9,1.1l-2,0.5h-0.9
		l-0.7,0.5l-1.7-0.2l-1.4,1.4l-0.4,1l0.2,1.6l-0.3,1.3l-1.3,1.3l-1.9,0.2l-1.8-0.7l-1-0.1l-0.7,0.5l-0.4,1.4l-2,0.7l-3.2,3.6l-2,1.6
		l-0.5,0.5l-1.1-0.2l-1.8,0.2l-1-0.2l-0.8-1.4l-0.8-0.7l-1-0.2l-1.9,0.2l-0.8-0.5l-1.5-2.4l-0.7-0.6l-3.4,0.3l-2.1-0.6l-0.5-0.4
		h-0.9l-1.3,0.8l-2.1,0.5l-1.5-0.3l-0.8,0.2l-1.3-1l-1.7-1l-2.4-1.9l-0.6-1l-0.2-1.3l-0.7-1l-0.8-0.5l-7.6-2.7l-1-0.2l-0.9-1.2
		l-1.3-0.3l-0.5-0.9l-1.5-0.6l-2-1.8l-0.9-0.5l-3-1.4l-0.6-1l0.4-0.6h1.3l0.2-0.4l-0.6-1l-1.3-0.6l-1-1.5l-1.8-1.9l-1.6-1l-3.9-0.9
		l-0.9-0.4l-2.9-2.7l-1.8-1l-1-0.1l-1.5,0.2l-0.8-0.4l-2.7,0.7l-3-0.6l-0.5-0.8l-1.6-0.4l-1.2-1.5l-1,0.5l-0.7-1.7l-2-3.2l-1-0.9
		l-0.2-0.5l0.2-1.6l-0.7-1.5l-1-1l-1-1.4l-1-1l-1.9-3.7l-0.3-0.8l-0.6-3.5l-0.3-1.2l-1.3-1.7l-0.8-0.5l-2.2-0.3l-0.5-0.9l-1.2-1.4
		l-0.5-1.3l0.3-1l1,0.6h0.6l0.5-0.7l0.1-0.9l-0.4-1l-1.2-1.2L651,489l-0.3-1l-0.6-0.1l-2,0.2l-0.5,0.4l-1.1-0.5l-0.5-1.4l0.3-1.6
		l0.6,0.2V484l-0.8-0.8l-0.1-1.8l-0.6-1.8l-0.9-1.2l-0.4,0.3l-0.8-1l-1.2-1l-1-1.4l-0.7-0.8l-1.3-0.5l-0.4-0.8l-1.8-2.2l-2-2.7
		l-1.4-1l-0.9-1l-0.4-1.2v-1.5l-0.7-1.6v-0.7l-1-1.3l-0.4-0.8l-1.1-0.5l-0.8-0.1l-1.5,0.5l-5.7,4.9l-0.7,0.4l-0.8-0.2l-0.7-1
		l-0.3-1.7l-0.6-1l-1.2-0.3l-0.9,0.2l-0.8-0.3l-1,0.5l-1.2-0.2l-0.2-1.2l-1-0.8l-0.7,0.4l-0.9-0.9l-0.9-0.2l-1.9-1.2l-0.7-1.4
		l-1.3-0.5l0.5-0.6h1.3l1-0.3l2.6,1l0.7,0.7l0.8-2.2l-1-1.3l-1.3-1l-0.6,0.3l-2.2-0.5H606l-0.6,1l1.3,0.4l0.8,0.9l-0.3,0.5h-1.8
		l-1,1.2l-0.2,0.8l0.3,1.4l1.4,1.2l0.8,2.3v1.6l0.2,0.8l-0.3,1l-0.7,0.6l-1.4-0.2h-2.2l-1-0.5l-0.3,0.4l0.6,1.3l-0.1,0.5l-0.8,0.5
		H599l-0.9-0.4l-1-0.8l-1-2.1l-0.6-0.9l-0.5-1l0.4-0.7l-0.3-1.1l-1.7-1.7l-0.6-0.8l-0.8-0.3h-1.5l-1.3-2.8l-1-0.7l-2.2-0.3l-0.2-0.9
		l-2-13.1l-0.4-0.5l-6.8,0.1l-1.7-11.3l1.6-9.9v-1.2l-1.8-1.6l-0.5-0.9l-0.6-0.4l-1.1-1.7l-0.5-1l-1.2-0.8l-1-1.8l-0.8-0.2l-1.2-1
		v-1.3l-0.6-1.1L565,402l0.3-1l-2-2.2l-2-0.7l-1.2,0.7h-1.4l-1.4-0.9l-7.2-6l-1-1l-1.6-1l-1-0.8l-2.3-1.3l-0.7-0.6l-2.3-1l-2.3-0.8
		l-2.4,0.4l-1.3-0.2l-0.6-1l0.8-1.1l-0.2-0.9l-0.7-0.4l-1-0.1v-1h1.2l1-1.4l-0.6-2.6l-1.1-0.9l-1-1.3l-1-0.7L532,373l-0.6-1
		l-1.2-1.2l-1,0.6l-1.1-0.4l1.1-1.2v-1l-1-0.8v-0.8l-1.5,0.1l-0.8,0.9l-0.8,0.2l-0.4-1.4l-1.5-1l-0.6-1l-0.7-1.4l-1-0.9l-2.5-3.7
		h-1.2l-1-0.9l0.6-0.6l0.3-2l1.4-1.7v-0.7l-0.4-1l0.2-0.8l0.1-1.3l-0.3-1.3l-0.4-0.6l-1-0.3l-0.3,0.4l-0.8-0.9l-1-2.2l1.2-0.7
		l0.3-0.8l-0.5-2.7l2.3,0.8l2,0.2l-0.7-2.7l-0.6-1l-1-0.8l0.6-1.2v-1.5l1.3-0.7l-0.1-2h0.4l1.3,0.6l0.2-0.5l0.1-1.7l-0.5-1.5
		l0.8-0.8v-1l2.1,0.7l1-0.8l1.6-0.4l-0.5-0.9l0.5-1.6v-0.7l-1.2-0.3l-0.5-0.6l0.4-1.1L525,321l-2-1.7l-1.6-2.3l-0.4-0.8l0.2-1
		l-0.6-1.4l0.7-0.2l-0.5-2l0.7-1h1.4l1.4-0.7h1.2l0.5-0.8l0.8-0.8l-0.1-1.3l-0.9-0.3l-0.6,0.5l-1.2,0.4l-0.9-0.1l-0.7-1l-1.3-0.4
		l-1,0.5l-2.6,0.2l-1.2,0.7l-0.6-0.3l-0.7,0.3l-0.7-0.5l-0.8-1.4l-1.2-1.4l-1.3-0.7l-1.2-0.9l-1.9-0.4l-1.7,1H506l-0.6-0.9l0.3-2.1
		l-1-1.5l-0.6-2.4l-0.8-0.6l0.2-0.7l-0.7-0.9l-0.2-1.2l-0.6-1.3l-1-0.5l-1.6,0.6l-0.9-0.6l-1-2l-1.2-1l0.3-0.7v-1.4l0.2-1l-0.4-1.2
		l-1-1.4l-1-0.3l-0.7-0.6h-0.9l-1-0.3v-1.2l0.7-1.4V278l-0.7-1.6v-1.6l-0.9-0.5l-0.7,0.1l-1-1l-0.5-1l0.1-0.7l-0.5-1.5v-1l0.6-0.8
		l-0.1-1l-0.6-0.5l-1.3-0.8l-0.7-1l-0.7,0.1l-0.7-1l-1-0.3l-0.6-0.6l0.1-0.8l-0.3-1v-2l-0.1-0.5l-1-0.8l-0.1-0.8l0.7-1v-0.6l-0.9-1
		l-1.2-0.6l-1,0.3l-0.6-0.9l-0.6-0.2l-0.8-1.2l-1.3-0.6h-2l-0.5-0.5l0.3-1l-0.2-1l0.6-1.8l0.3-1.3l0.7-0.6l-0.3-0.8l0.6-0.6V243
		l-0.3-1.3l1-1.3l0.4-0.7l-0.3-0.9l-0.7-0.5l-1.2,0.3l-1.6-0.4l-0.4-2v-1.6l-0.4-1.4l-0.2-1.7l-0.6-0.7l-1-1.9l0.2-2.6l-0.2-0.8
		l-1.2-0.5l-0.8-0.7l-0.6-1.5l-1-1.4l0.6-1.1l-0.4-1.1l0.3-1.3l-0.3-0.7l-2.5-1.4v-1l-1.3-2.7l-0.8-1l0.8-0.8h1.2l1.5-0.3l1.5,0.7h1
		l1-0.6l0.5-0.9l-0.3-1l0.1-1l-0.3-1.9l0.4-1.4l-0.2-1.9l1.8-2l0.8,0.1l1,1.2l1.3,0.6L476.9,203.5z M740.2,564l0.6,0.6l-0.3,1
		l-0.8-0.3l-0.2-1L740.2,564z M729.1,559.4l-1.7-0.1l-0.8-0.4l-0.6-0.8l0.8-0.8l2,0.3l0.5,1L729.1,559.4z M712.6,551.2l-0.7,0.2
		l-1.3-0.2l-1.5-1l0.3-0.6l1.9,0.6l1.6,0.1L712.6,551.2z M775.8,548.7l0.3-1.3l1.3-0.4l0.2,0.8l-0.5,0.6L775.8,548.7z M772.9,544.1
		l1,0.4l0.8,1l-0.6,0.4l-1.3,0.4l-0.4,0.5l-0.4,1.8l-1,1.7l-0.7,0.5l-1.2,1.6l-0.5,0.4l-1.7-1.2l-2,1.5l-1.5-0.1l-0.8,0.4l-1,1
		l-1,0.6l-1,0.9l-1.3,0.2l-2.8,1.3l-0.6-1v-0.8l-0.2-1.3l1.5,0.3l1-0.8l3.3-1.4l1.2-1l1.3-0.7h0.7l0.5-0.8l0.3-1l-0.6-1.7l-1-0.9
		l0.5-0.4l3.2,1.3l0.8-0.3l2-1.7l2.6-0.8L772.9,544.1z M777.8,541.1l0.8,0.5v1l-0.6,0.2l-0.7-0.2v-0.7L777.8,541.1z M639,484.6
		l0.6,0.4l0.1,1l-0.5,0.2l-0.7-1.5L639,484.6z M767.5,553.2l0.4,1l-0.2,0.6h-0.8l0.1-1.2L767.5,553.2z"/>
	<path id="Türkiye" class="st13" d="M442,164.2v0.7l0.9,1.6l1.3,0.5l1.9,1l1.1,1.4l0.6,1.7l1.4,2l0.3,1l0.5,1.8l-0.4,1.2l0.3,0.6
		l-0.6,1v1.2l-1.1,0.6l-0.4,1.3l1.5,1.2l-0.2,2l2,2.2l0.2,1l1.3,1.7l-0.2,0.3l-1,0.5l0.4,0.8l1,0.5l2,0.5l2.4,1.3l2.5,0.3l1.3-0.8
		l0.6,0.3l2.3-0.6l1.5,0.2l3.1,1.6l1.4,1l1,1l0.2,0.7l2,1.8l0.7,0.2l2.4,2.6l1,1.7l-2.4-1.5l-1.3-0.6l-1-1.2h-0.8l-1.8,1.9l0.2,2
		l-0.4,1.4l0.3,2v1l0.2,1l-0.6,0.8l-1,0.5l-0.9,0.1l-1.5-0.7l-1.5,0.4h-1.3l-0.8,0.8l0.9,1l1.2,2.7l0.1,1l2.5,1.4l0.3,0.7l-0.3,1.3
		l0.3,1l-0.6,1.2l1,1.3l0.6,1.5l0.8,0.7l1.2,0.5l0.2,0.8l-0.1,2.6l0.9,2l0.6,0.8l0.2,1.6l0.3,1.4v1.6l0.4,2l1.6,0.4l1.2-0.3l0.7,0.6
		l0.3,0.9l-0.3,0.7l-1,1.3l0.3,1.4v1.4l-0.6,0.5l0.3,0.8l-0.7,0.6l-0.3,1.4l-0.6,1.7l0.3,1l-0.4,1l0.5,0.6l2-0.1l1.3,0.6l0.8,1.2
		l0.6,0.2l0.5,1l1.1-0.4l1.2,0.7l1,1l-0.1,0.6l-0.7,0.9v0.8l1,0.9l0.2,0.4v2l0.4,1l-0.1,0.8l0.5,0.6l1.1,0.3l0.7,1h0.7l0.7,1
		l1.3,0.7l0.6,0.6v0.9l-0.6,0.7l0.1,1.1l0.5,1.5l-0.8-0.7l-2.2-0.3l-1,0.4l-0.6,0.6l-1,1.5l-1,0.8l-1.5,0.6l-0.5,1.9l-0.4,0.2
		l-1-0.4l-1.7-2.7v-1.2l0.9-0.8v-1l-0.8-1.6l-1-0.7l-2-0.9l-1.2-0.1l-0.9,0.2l-0.6,0.7l-1,1.7l-1,0.3l-0.5,0.5l-1-0.7l-1-0.2l-2,0.2
		l-1.7-0.6l-1.2,0.2l-3.3-2l-1.5,0.3l-3-1.5h-1l-1.4,0.6l-1.2,0.8l-2.6-0.7l-0.4-0.6l-0.6-0.2l-1,0.5l-0.2,1l-1.8,3.9l-0.2,1l-4,1
		l-0.2-1l-0.5-0.6v-1.6l-1-1l-1.9-0.6l-0.4-1l-0.5,0.5l-0.8,1.5l-1.3,1.6l-0.8,0.6l-10.2,3l-5.6,0.5l-1.4-0.5l-4.9-1l-3.7,0.7
		l-1,0.5l-2.4,1.7l-1.8,0.5l-0.7,0.4l-3.6,3.2l-2.1,0.8l-1.9,1.4l-3.9,1.9l-10.4,2.5h-1l-3.4-1l-1.5,0.2l-3.2,0.3L369,287l-1.4-0.7
		l-3.2-3l-1-0.7l-4.1-1.2h-2L356,282l-2,1.7l-0.6,0.2l-3,1.7l-3.3,0.8L346,287l-2.6,2.2h-0.8l-3.4-0.6l-1.7,0.5l-1.1-0.2l-1,0.9
		l-0.8-0.6l-0.1-1.2l-0.3-1l-1.1-0.9l-1.3-0.5h-1.3l-4-1.4l-0.8,2.3l0.1,1.7l-0.3,1.8l0.3,2.4l-0.4,1v1l0.6,1.4l0.8,0.6l0.3,1.7
		l1,0.2l1,1.6v0.8l-1.5,0.4l-2-0.3l-0.8,0.8l-1.4-0.3l-0.3,0.9l0.5,4.4l-0.2,1l-1.3-0.2v1l-1.5,0.2l-0.3,0.8l0.1,2l-0.5,0.8
		l-1.3-0.9l-1.9-0.6l-0.4-1.3l-1.4,0.2l0.8-2l0.1-0.8l-0.8-1.9l-2.5-3.4l-0.3-0.9l-1-1l-0.4-1l0.5-1l0.8-0.5l0.2-0.7l0.6-0.6v-0.8
		l1.4-0.9l0.8-1.3l2.8-2.2l0.4-1.5l-0.5-1.4l-0.3-1.7l-0.4-0.9l-1.4-1.8l-1.7-1.4l-0.8-0.2l-1.3,1l-1,1.6l-0.7,0.6l-0.8,1.1
		l-2.5,0.4l-1.5,0.7l-0.5,1l1,0.2l0.6,2.4l-0.6,0.5h-1.1l-0.8-0.6l-2,0.9l-1,1l-1.3-0.7l-5.5-3.3l-1.8-0.8h-0.7l-0.8-0.5l-1-1
		l-1.7-0.9l-1.6,0.1l-2.6,1.3l-0.3,0.8l-0.6,0.4l-1.6,1.8l-2,1.5l-0.5,0.6l-1.4,2.5l-0.2,0.7l-1.9,1.7l0.4,2.3l-1.5,0.8l-0.5,1.5
		l-1-1.2l-1.2-0.6l-1,1.4l-0.2,1l-1,0.4l-0.7,1l-0.3,1l-1-1.4l-0.5,0.4l-1.2,1.6l-0.2-0.5l-1.8-0.3l-1.4,0.6l-1.3-0.4l-0.3,0.5
		l-2.5,0.3l-1.1-0.2l-0.8,1.4l-3-0.5l-1.3,0.8l-1.3,1.3h-1l-1.8-0.5l-2.3-1.3l-1-0.2l-1.7-1l-0.5-0.5l-1-0.5l-1.2-1.3l-0.8-0.6
		l-0.3-1l-0.5-0.8l-1.4-1.2l-0.6-1.2l-1-1l-0.7-1.3l-1.8-1.5l-1.2-0.5h-1.3l-0.4-0.5l-2.6-0.8l-0.8-0.8h-0.6l-1.7-0.8l-0.7-0.7
		l-4-1.8h-0.6l-0.2-0.7l-0.7-0.5l-8.3-1.2l-3.4,0.3l-0.5-0.2l-1.4-1l-1.6,1.6l-0.4,1.5l0.3,4.5l0.6,1.2l-0.1,1.3l-0.9,1.1l-0.1,1
		l-0.5,1.4v0.5l1,1.2l-0.6,1l-0.6,1.8l-3.9-1.8l-2,0.3l-0.1,1.2l-0.7,0.3l-1.1-0.1l-1.3,0.8h-1.6l-1.3,0.8l-0.9,1.3l-0.6,0.2
		l-0.7-0.8l-1.3,0.6l-0.7-0.3l-0.1-1l-0.7-0.4h-2.3l-2.5-1.4l-0.4,0.7l-0.7-0.3l-1.4-1.4l-0.5-0.7l-1.3-0.3l-0.8-1l-1-0.4l0.5-0.7
		l-0.1-0.9l-0.7-0.7l0.6-0.4l-0.4-1.6l-0.7-0.2l-1,0.4l-0.4-1.2l0.7-0.7l1.2-0.6l-0.6-0.8l-1.4-1l-1.6-0.7l-0.5-0.7l-1.3,1.7
		l0.1,1.1l0.3,0.6l-0.2,0.8l-0.9-0.3l0.4-0.7l-0.8-0.5l-1.3-1l-1-0.2l-0.7,0.3l-0.4-0.7l-0.6,0.4l-0.4-0.8v-1.4l-0.8-1h-0.6
		l-0.5,0.8l-1.2-0.7l-0.3-1.6l-1.4,0.6l0.1,0.6l0.8,0.2l-0.5,1h-0.4l-1.5-0.6l-0.8-1l-0.7,1l0.4,1.3l1,0.7l-0.8,0.4l-0.3,0.8
		l-1.3,0.8l-0.9,1.9l-1,0.2l-0.2,0.7l-1.1,0.3l-0.6-0.4l-0.2-0.7h1.5l1-1.2l-1-1l-0.5,0.3l-1-0.5l1-0.4l0.3-0.4l1.5-0.4l-0.7-0.5
		l0.7-1l-0.8-0.1l-0.7,1h-0.5l-2,0.6h-1.3l-0.7-0.5h-1.9l-1,1v1.8l-1.4-0.5l-0.9-0.2l-1.4,0.6l-1.4-0.1l-1.1-0.8l0.9-0.3l0.2-0.7
		l1-0.6l2.7-0.3l0.1-1l0.5-0.2l1,0.6l1.4,0.1l0.7-0.7l1.8-0.1l1,0.3l1.9,0.1l0.4-0.4l-1-1.4l0.9-0.4l-0.8-1.5l0.3-0.3l2,0.2l0.9-0.3
		l0.4-1.1l0.6-0.8l1.7-0.7l-0.6-0.5l-2.6,0.5h-1l-0.6,0.3l-2.3-0.3l-0.4,0.3h-1.6l-2,0.8l-1.3-0.3l-1.3,0.3l-0.3,0.4l-1-0.4
		l-2.1,0.2l-1-1l-1,0.6l-0.4-0.4l-0.8,0.2v0.8l-1.1,0.6l-0.3-0.4l-0.7-2.3l0.1-0.6l0.8-0.4l0.4-0.6l1.7-0.3l1,0.3l0.9,0.7l1.5-1
		l-0.7-1.8l0.9-0.2l0.6-1.5v-0.6l-1.3,0.1v0.7l-1.7-0.8l0.3-0.5l-1.9-0.7l-0.1-1.2l0.7-0.7l-0.7-0.6l-0.7,0.2l-0.6,1.5l-2,0.1
		l-1-0.2l0.7-1.3l-0.3-0.7V270h-0.6l-0.5-1.8l0.5-0.6v-0.9l-1.7-1l-1.8-0.4l-0.8-0.4l0.5-0.7h1.8l1.7-0.7l0.6-0.9v-2l-0.5-0.7
		l0.5-2.4l-1-1.5l-1.2,0.2l-1.3-0.3l-1-0.7l-0.2-0.6l-2.4-0.7l-1.6,0.8l-0.6-1v-0.7l-0.6-1.2l-1.1-0.8l-0.4-1l-1,0.3h-1.5v1.9
		l-0.3,0.8l-1-0.4l-2.6-2.4l-0.6,0.2l-0.9-0.8h-1l-0.9-0.7l-0.5-0.7l0.4-0.9l0.5-0.5l1.2,0.6l2-1.5l-0.3-1h0.6l0.2-0.8l-2.4-1.5
		l-0.7-1l-0.8-2.6v-1.1l1.2-0.5l1,0.1l0.9,0.6l1.2,1.2l0.7,1.3l1,1l0.5,1.5h-0.7l-0.3,1.4h0.5l1.6,2.9l0.4-0.5l-0.5-0.5l-0.2-1
		l0.5-1.3l0.7,0.2l0.8,1.6l0.6,0.2l1-0.4l1.5-0.2l1.7-1l1.6,0.3l0.9-1l0.3-0.6l-1.6,0.2l-1-0.3l-1.6,0.8l-1.3-2.1L123,241l0.1-1.3
		l-0.3-0.3l-1.7-0.3l-0.1-1.3l-0.9-1.5l1.4-0.5l0.5-0.5l1.5,0.6l0.8-1l-0.9-1.3l0.8-0.4l1.4-1l0.8-1.3l-0.4-0.6l-1.2,0.5l-0.4-0.5
		l-1.6,0.7l-1.6-1l-0.3-1.3v-1l1.4-1l-0.2-0.5l-1.2-1.6l-1.9-1.3l-0.6-1.8l-1.8-0.1v-1.3l0.7,0.2l0.7-0.9l2-1.7l-0.5-1l1.2-0.3v-0.7
		l1.2-0.3l0.2-1.5l-0.3-1l-0.9-0.2l-1.1,0.7l-0.6-0.3l-6.8,1.5l-1.8,1l-1.3-0.1l-2.8,0.9h-0.8l-0.9-0.4l-0.1-0.6l0.5-2.7l0.7-0.8
		v-2.1l-0.6-1v-2.4l-0.3-0.3l0.2-1.7l-0.2-1.2l0.7-1.8l1,0.4l1.2-0.7l1-1.3v-1l0.3-0.2v-2.4l1.8-0.5l1-1.6l1-0.6l1.7-2.8l0.4-0.3
		h2.6l0.6-0.2l0.8,0.4h1.6l1.5-1.7l2.4,0.1l1-0.6l0.7,0.3l0.7,1.2l-0.7,0.2l1,1l1.2,0.7l1.3,0.6l1.4,0.3h0.8l1-0.6l1.5,0.4l0.5-0.3
		l1.5,0.1l0.4-0.7l1-0.7v-0.5l-1-0.3l-1.3-0.9l-1.7-1.9l1.4-1l1,0.4l3.3,0.5l1.4,0.8l-0.2,0.6l-1.7,1l-0.4,0.5l0.1,0.7l0.8,0.2
		l1.6-0.2l1.7-0.7l4.7-0.3l1,0.2l3,0.1l2,0.7l2-0.6l0.5-0.5l2.3,0.4l1.5,0.6h1.6l0.6-0.4l0.3-1.4l1.2-0.2l-1-0.9l-0.9-0.4H160
		l-0.8,0.6l-1-0.2l-2-1.2l-1-0.2l0.2-0.9l2-1l1.5-1.5l5.8-0.7l0.8-0.3l1.2-1l0.6,0.6l1.5-1l0.6,0.2l0.8,0.8l3.7-1l2.3-0.2l1.2,0.3
		v-1.1l-0.9-0.1l-2.5,0.3l-0.6-0.5l-1.5-0.3l-4.6,0.3l-1,0.5l-0.4-0.1l-0.6-1.4l-1.6-1.4l-1-0.3l-1.6-1l-1.4-1.1l-1-0.6l-0.6-1.4
		l1-1.3l0.2-1.7l-0.4-0.4l1-1.6l0.7-0.6l1.2-0.2l3.7,0.6l4.2,1l5.3,0.6l4.9,0.1h0.6l1.1-0.8l0.8-1.1l1.3,0.2l0.8,0.6l6.7,1.5l1,0.8
		l1.8,0.3l5.1-0.3l0.5-0.3l1,0.1l1.6-0.4l1.4-0.8l1-1l0.3-0.8V165l-0.4-1l1.3-0.2l0.3-0.6l3.1-1.5l3.7-3l2.3-1.3l0.8-0.7l1.8-0.7
		l1.8-2.7l0.3-0.7l1.7-0.3l0.6-0.7l0.6,0.1l0.6-0.8l1.7-1h0.6l0.6-0.7h1.4l1.4-0.6h0.8l2.5-0.7l1.5-1l3-1.2l2.8-1.8l2.2,0.2h2.1
		l1.5,0.4l5.3,0.4l2.5-0.3l6.6,0.8l2.2-0.7h0.7l1.7,0.5l2.6,0.1l2-0.5l1.6-1.3l0.8-1.7v-0.8l1.5,0.2l0.6,1l1.3,0.9l0.2,0.8v1.1
		l0.2,1l2.4,3l0.8,1l1.6,1.3l2.2,0.6l1,0.9l1.8,0.7h1.8l1-0.7l1.3-0.3l1.9-1l0.9-0.2l0.7-0.7h0.9l1.4,0.8l1.8,2l0.4,0.8l0.2,1.1v1.8
		l0.4,0.9l1.7,1.5l0.8,1.3l2.1,1l0.3,0.8l1,1l1.2,0.3l1.2-0.6l1-1l0.6-2.2l1,0.3h1.8l1.6,0.3l3.2,1.5l0.7,0.5l0.5,0.9l0.4,1.7l2,0.9
		h2.6l1.3,0.5l1.6,0.4l1,0.9l0.8,0.2l0.6,0.7l1.6,0.1l0.5-0.4l0.6-1.8l0.6-0.7l0.6,0.7l1.3-0.2l0.4,1.7l0.4,0.5l1.1,0.5l1,1l0.7-0.3
		l1,0.1l2.5,0.8l2.1,0.5l1.7-0.2l1,0.8l1-0.3l1.3,0.2l1.7-0.3l0.9-1l0.8-0.4l1,0.7l0.8-0.2l1-1.3l1.8-0.5l1-0.7h2.2l1.5-0.5l0.6-0.6
		l1.3,0.1l1.2,0.6l1.4-0.7l1.3-1l1.3,0.2l1,1l1.4,1l1.6,0.7l1-0.5l0.7,0.4h0.8l1.4,1h1l1.7-0.5l2,1.5l0.8,0.1l3.3-1.4l2.7-2.4
		l0.8,0.3h1l1.2-1.2l1.3-0.5l1-1.7l1-1l1.4,0.2l1.2-0.6l1.1-0.4l0.7-0.6l1-1.2l1.3-0.3l1.6-1.7l2-0.7l0.5-0.8v-1.2l1.2-1.3l0.2-0.5
		l2.3,0.9l1.3-0.3l0.6,0.8l0.9,0.1l0.9,0.8l1-0.8l0.5-1l1-0.5l1.5,0.5l1.2-0.4h1.5l0.7,0.4h1.4l3.7,1.3l0.9-0.3l0.8-2l0.1-1.5
		l0.8-0.5l1-0.2l2.8,0.2l0.5,0.2l-0.2,1l-0.5,1l1.4,0.7l0.6-0.7l0.6,0.8l1.5,0.9l1.2,1.4l1.7,0.9l1.1,1l1.3,0.3l-0.3,0.8l0.4,0.7
		l1.6,2l1.7-0.7l1.2,0.1l1.3,0.9l0.4,0.6L442,164.2z M135.3,147.4l0.7,1.9l-1.2,0.5l0.1,1.8l1.2,1.4l0.5,1.2l1.2,1.3l-0.2,0.5
		l0.9,1.3l0.6,0.4l0.9,1l1.2,1.1l3.3,2l4.4,1.8l6.5,3l2.5,0.5l0.2-0.3l1.4,0.5l-0.6,1.7l-0.5,0.3l0.7,1l-0.5,2l-0.6,0.5l-0.2,1
		l-0.9-0.1L156,174l-1.4,0.7l-1.6-0.5l-2.3,0.4l-0.7-0.3v-0.9l-0.5-0.3v-0.7l-0.7-0.9l-0.3,0.3l0.7,0.9L149,174h-0.6l-1.2-1.2
		l-2.5-0.8l-1.4-0.1l-0.6-0.4h-1.4l-3,1.3l-0.4,0.5l-0.7,1.4l-1.7-0.2l-1-0.6l-1.5-0.3l-4.2,0.8l-0.6,0.4l-0.3,0.9l-0.2,2.2
		l-0.4,0.8l-1.6,2l-0.7,1.6l-1.6,1.4l-0.4,0.6l-1.2,0.5l-1.3,0.1l-1,1.4l-1.5,0.3l-1.7,1.4l-1.2,0.2l-1.4,1.1l-0.3,1.2l-0.7,0.6v0.9
		l-1.4,1.6l-0.6,0.1l-1.1,1.6l-1.9,1.2l0.8,1.2l-0.9,1l-1.8,1.5l-1,0.4l0.5-2.6l0.7-1.3v-1.9l-1.1-1l-0.1-1l0.5-0.5l1.4-0.5l0.2-0.5
		l1.8-1.6l1.1-0.4l0.8-0.8l1-0.7h1.5l1.1-1.6l0.5,0.3l1.2-0.8l0.1-0.5l-1-1.6l-1.4,0.2l-0.7,0.4l-1.9,0.2l-1.3,1l-1.3-0.6l-0.9,0.4
		l-0.5-0.2l-1.4,0.4h-3.6l-0.9-0.3l-0.6-1.3v-1l-0.4-1h0.7l1-0.9l0.3-1.2l1-1l-0.1-0.9l0.5-0.2l0.3-1l0.7-0.1l1-1l-0.5-0.5l0.6-1.4
		l-0.5-0.3l-0.7-1.3l-0.2-0.9l0.3-0.8l-0.3-1l0.1-1l-0.1-0.7l1.2-0.2l1.7-1.4l0.9-1.2l1,0.6l0.7-0.3l0.1-1l-0.7-2.5l-0.8-3.5H108
		l-2.1-1.3l0.1-0.8l-1.4-0.4l-0.6-0.5h-1l-0.3-0.9l0.2-1.3l0.8-0.7h2l1-0.3l0.3-0.9v-1.4l-0.3-0.5l0.8-1l0.6-0.2l1.9,0.3l1.2-0.7
		l1,0.3l0.5-0.5l1.6-0.2l0.4-1l0.6-0.3l0.4-1h1.2l0.7,0.4h1l0.5-0.8l1.4-0.1l1.3,1l1,1.3l1,0.9l1.5,0.8l0.9,1l1.3-1.3l1.5-0.4h0.8
		l1.4,0.6l0.2-1.4h0.8l1.4,0.4l0.9-0.1L135.3,147.4z M103.6,206.1l0.4,0.1v1l-0.3,0.4l-1.7-0.9v-0.5L103.6,206.1z M101.7,197.2v0.6
		l-0.8,0.4l-1.4,0.2l-0.8,0.5l-1.8,0.3l-2.2-0.8l0.4-1l1.3-1.2l1.4-0.3l1.6-0.7l1.3,0.5l0.2,1.9L101.7,197.2z M132.7,183.4l1.4,0.3
		l-0.1,0.8l-1.1,0.3l-1,0.8l-1.5-0.7l-0.3-1l1.5-0.7L132.7,183.4z M133.1,188.7l-1.3-0.1l0.4-1l0.7,0.3L133.1,188.7z"/>
	<path id="Cyprus" class="st13" d="M288.9,316l-4,2.4L284,319l-2.7,0.9l-0.9,1.2l-1,0.4l-0.8,0.7l-4,1.8l-1-0.2l-2.3,1.6l-4.6,1
		l-3.1-0.4l-0.4-0.1l-2.6-0.3h-1.4l-1.8-0.3l-1.4-0.6l0.5,1.6l0.2,3l-0.2,0.8l-0.8,1.2l-0.8,0.3l-1.1-0.6l-1.4-0.3h-0.4l0.6,1.3l0,0
		l-0.6-1.3l0,0l-0.7-0.1l0,0h-0.4l-0.7,0.2l-0.4,0.2l0,0l-0.6-0.1l-0.5,0.5l-0.4,1.4l-0.9,1.3l-0.7,0.4h-0.7l-1.9-1.4v1.3l0.7,1.3
		l0.3,1.4l0.5,0.7l0.1,0.9l1.2,1l1,2.7l1.8,1.3l1.7,0.3l2,1.1l1,0.2l1-0.2l0.7-0.5l0.6-0.9h0.6l0.6,1l1.1,0.2l0.3-0.6l0.7,0.1
		l0.2,0.8l0.5,0.3l1-1.5l0.6-0.3l1.5-0.2l1.5,0.1l1-0.5l1.5-0.4l0.8-0.8l2-0.8l0.5-0.8l1.2-0.2l0.5-0.9l-0.1-1.7l0.2-0.8l0.9-0.8
		v-0.5l-0.2-1l-0.5-0.3v-0.6l0.7-0.2l1,0.8c1-0.1,0.9,0.3,0.6,0.5l0.8,0.4l0.7,0.2l0.2,0.8l0.6,0.1l1.2-0.6l1-0.2l0.6,0.3h1l-1-1.6
		l-0.6-0.6l-0.2-0.2l-0.8-0.7l-0.6-1l-1.3-1l-0.1-2.2l0.2-1l0.8-1.2l1,0.2l0.8-0.3l0.4-1.3l1-1.3l4-3l1.5-1.7l1.9-1.6l0.6-0.1v-1.3
		L288.9,316z M275.2,334.7h-0.1C274.7,335.1,275,335,275.2,334.7"/>
	<path id="Egypt" class="st13" d="M297.1,438.3l2.4,5.9l4.2,9.2l0.7,2.2l0.3,1.6l0.7,0.9v1.2l0.2,1l1.5,1.6l3.9,9.2l0.3,1.8l2.3,5.3
		l0.9,2.9l0.2,1.9l1,2.1l-0.6,0.7l-1.3,3.3L313,490l0.2,0.4l-0.2,1.1l0.1,1.5l-0.6,1l-0.2,1.5l0.2,2l0.3,1.3l-0.7,0.6l0.3,2.9
		l-0.5,0.5l0.1,1.5l0.4,0.5l-0.4,2l-0.4,0.8l-0.2,1.2l-1,2.5l0.4,0.8l-1,1.5l-0.4,2.3l-0.5,1.8l0.4,1.4v0.7l1,1.8l-0.4,2.3l0.5,0.8
		l-0.2,2l-0.5,0.4l-0.5,1.2l-0.6,0.3l-0.3,1.5l-0.7-0.1l-0.4,1l0.2,0.4l-1.5,0.9l-0.5-0.3l-2.1-0.2l-0.6-0.3l-1.6-2l-1.6-1.3
		l-0.6-0.1l-3-2.3v-0.7l-1-0.7v-0.5l-0.8-0.8l-0.3-1l-1-0.7l-1.7-3l-3-2l-1.6-2.1l-1.7-1.3l-0.7-1.3l-0.2-0.9l-0.7,0.2l-0.4-1.6
		l-0.7-1.3l0.5-2.4l-0.6-1.2l-0.5-0.3l-0.6-2.3l0.2-0.5l-0.4-1.6l0.2-0.3l-0.8-1.2l-1.5-0.9l-0.5-1l-2.5-2.6l-1.6-1.1L274,491
		l-0.7-0.6l-0.5-1.1l-0.2-1.6l-1.8-1l-0.5-1v-1.4l-0.4-1.1l-0.8-0.5l-0.1-1.7l0.1-1.3l-0.1-0.7l-1-1.7l-1-0.8l0.3-0.6l-0.4-1.3l-1-1
		l0.2-0.4l-0.5-0.8l-1.4,0.6l-0.5,1l0.7,1.7l-1.7,3.3l-0.6,1.8l0.1,1.1l-0.3,0.9l1.2,2l1.5,1l1,1.3l1.4,1.2l0.8,1.3l0.5,1.6l0.7,1.3
		v0.7l1,2.9v0.6l-0.6,1.1l0.2,0.3v1.8l1.2,1.4l0.2,1l1.7,2.1l0.8,0.1l0.9,1.4l1.5,4.6l1.3,0.7l1,1.4l0.7,0.3l1,2.5l1.6,1.4l0.5,1.7
		l2.7,3l0.3,1l0.7,0.2l1.3,1.3v0.8l1.4,0.8l1,0.2l1.7,1.6l1,1.7l0.6,1.3l-0.2,1l-1.8-0.9l-0.1,0.7l1.2,1.9l0.8-0.3l-0.5,2.3
		l-0.5,0.8l0.5,0.3l1.1,1.8v1l1.7,1l0.3,1.2l0.7,1l0.7,2.1l0.7,0.8l2.3,1.4l0.3,0.8l-0.1,1.3l0.4,1.8l1.5,1.7v0.8l1.4,2.7l1,0.6
		l0.3,1.6l-1.1,1l0.3,2l-0.2,1.6l0.2,0.8l1,0.6l0.7,0.6l0.3,0.8l0.8,1l1.3,3.3l1.9,3l2.2,4.8l1,1.4l1,2.3l2,2.7l0.5,1.2l1.7,2.5
		l1,1.2l2.3,4.2l0.4,1.3l0.7,1.2l0.3,1.4l1.5,2.1l0.6,1.5l0.8,1.2l0.4,1l3.3,5.7l0.5,1.6l0.9,1l0.3,2.1l0.4,0.7l1.2,1.1l0.5,0.8
		l0.8,2.5l1.3,2.4l-0.2,1.6l1,0.4l1.2,2.4l3.2,2.5l0.5,0.6l1,2.7l1.5,2.1l0.7-0.3l0.6,0.3l0.9,1l0.5,1.5l0.7,0.4l0.6-0.1l1.2,0.4
		l0.8,0.6l0.6,1.3l-0.9-0.3l-1,0.6l-1-0.3l-1.4-0.3l-0.7-0.8l-0.8-0.3l-0.5,1.6l0.3,1.3l-0.2,2l0.2,0.7l0.7,0.5l0.1,2l0.2,3.4
		l-0.2,1.7l1.4,2.4l0.3,0.8v1.3l0.9,3.2l1.2,2l0.8,1.8l0.5,2.5l0.8,1.4l1.3,0.3l0.8,2.4l1.6,2l0.9,0.7l2.2,1l1.2,0.1l1.8,0.4
		l1.7,0.6l1.8,1.6l0.4,0.7l0.3,1.3l0.3,0.8l1.5,1.3l1.2,0.5v0.8l0.4,1.1l1.5,0.8l1.3,0.9l1.4,1.3l2.1,2.2l0.9-0.3l1,0.7l0.9,1.4
		l1.4,0.8l0.2,1.4l-0.3,0.6l-30,0.4l-25.1,0.3l-25,0.3l-37,0.4l0.9-4.2l-0.3-1.3l-1-0.8h-0.8l-0.9,1l-1.7,5.1l-0.3,0.2l-48.9,0.5
		l-46,0.4l-39.8,0.4l-1-15.9L120,660l-1-15.9l-1-15.8l-1-16l-1-15.8l-1-15.9l-1.1-15.9l-2-27.3l-1.7-22.5l-1.4-18.7l-0.3-1.6
		l-0.5-1.4l-2.1-4.7l-0.3-2v-2.7l-0.4-1.2l-1.3-2l-0.2-1.2l0.2-1.4l-0.1-1.2l-2.3-5l-0.9-1.8v-1l0.2-1l1.2-3.2l1-1.6l1.1-2l0.4-1
		l0.1-1.5l0.5-2l0.1-1.4l0.5-2.9l-0.4-1.2l-1.1-2.2l-0.4-1.4l-0.9-1.7l-0.9-3.5l-0.2-2.1l-0.5-3.3l0.2-1l3.2-3l0.5-2.4l0.5-1
		l1.3-1.2l0.4,2l0.7,1.4l1.4,0.2l0.9,0.5l1.4-0.2l0.7,0.3l4.7-1.7l3.8-1.5l1-0.2l2,0.1l8.5,2.5l6.1,0.8l0.7,0.4h1.4l2.5,1h1l1-0.4
		l0.7,0.6l2.6,1l1.4,0.2l0.9,0.4l0.3-0.4h1.6l1,1.4l0.6,1.7l0.8,0.9l1.3,0.6l2.4,0.5l0.3-0.3l1.1,0.7l1.2-0.3l2.4-1.4l0.6,0.1
		l0.7,2.1l0.3,1.1l0.6,0.4l1,0.2h3.9l0.8,0.5h1.4l1.3,0.3l1.7-0.8l0.9,0.3l0.8,0.7l1.6,0.3l3.9,1.5l1.8,0.8l0.3,1l4.4,2.4l3.3-0.2
		l0.7-0.2l5.5-3.3l5-4.6l0.3-0.8l1.2-0.2l2.2-2.6l1.3-1.3l0.3-0.7l1.2,1l1.7,0.3l-0.6,0.6l0.6,1l1.2-0.4l0.8-0.8l-1.9-0.4l1.5-0.9
		l1.1-1.3l0.4-0.9l0.1-2.2l-0.2-1l0.3-0.3l1.4,1l1.5,0.3l0.9-0.1l2.8-1l3.9-1.4l-2.6,1.6l-2,1.6l-1.5,0.3l-0.3,0.8l1.2,0.2l1.2-0.3
		l0.3-0.7l1.2,1l0.5-1l0.9-0.7l0.8,0.5l0.8-0.2l0.8,0.3l0.5-0.6l1.2-0.2l0.1-1l0.5-0.9l2,0.4l-0.4-1l-2.3-1.5l1.8-0.4l0.6,0.1l2,0.7
		l3.4,1.6l1,0.8l2.3,1l1.6,0.2l3-1l1.8-1.3l0.3,0.7l0.7,0.9l-0.4,0.2v1.7l-1,1.4l0.2,1l-0.5,0.3l0.3,0.7h1l1.6,1.8h1l0.7-0.7l1,1
		l0.3,1.2l1.4,1.5l0.8,0.3l0.5-0.3l0.4-0.9l0.5,0.4h1l0.6-0.7v-2.2l-0.6-1l0.5-0.8l0.7,0.2l0.7,1l0.7,0.2l2,2.1l0.7,1.2l1.3,1
		l0.8,0.2h1.8l1,0.6l0.8-0.2l1.2-1l1-0.4l1.9,0.2l0.2,0.6l0.7,0.2l0.7-1l-1.6-0.2l0.6-0.7l0.4-1l1.4-0.8l1.5,2l-0.6,0.5l0.4,0.6
		l-0.1,0.9l1-0.5l1.2-0.8l1-0.4l1.9-0.3l-0.3-0.5l1.3-0.5l1.3,0.6l3.2,0.2l4.1-1.3l3.8-1.9l3-2.4l0.6,1L297.1,438.3z M303.6,559h0.4
		l0.8,1.6l-0.3,0.3L303.6,559z M302.8,539.3l0.4,0.3l0.3,1l-2.3-0.8l-0.5-0.8l1-0.3L302.8,539.3z M313.7,527l1,1h-1.6l-0.7-0.3
		l-0.2-1l1.3-0.2L313.7,527z M316.8,526.9l0.1,1l-0.5,0.4l-1-0.6l0.3-0.8H316.8z"/>
	<path id="Jordan" class="st13" d="M320.6,405.8l-0.4-0.7l0.3-1.5v-1l-0.4-0.6l0.1-1.4l-0.5-2l1-1h0.3l1-0.9l1.4-1l2.9,0.9l1.4,1.5
		h1l0.2,1.3l1.7,2.5l2.2-0.3l2.5,1.9l2,2l2.4,0.6l3.7,0.4l0.8,0.6l0.8-0.2l1.4,0.3l0.5-0.1l3-2.7l3-2.4l11.7-9.4l5.6-4.6l8.8-7
		l4.5-3.7l3.9,10.2l5.1,13.5l-1.6,0.6l1.6,4l0.5,0.6l3.8-1.3l0.4,0.3l1.2,2.7l-0.5,0.9l-2.2,2.4v0.2l-0.5,0.5l-2.1,2.7l-0.7,0.3
		l-20,7.3l-19.7,7.3l12.4,13l12.1,13.7l-5.9,4.2l-0.7,1l-1.9,8.3l-0.4,0.4l-14.5,3.8l-1,1l-3.6,9.2l-7.6,8.2l-1.1,0.3l-22.8-4
		l0.2-0.2l-0.1-2.6l0.4-1.8v-0.5l-1-0.6v-1.4l0.4-1.2v-2.3l0.7-3l-0.2-2.3l0.4-3l0.7-1.6l0.2-0.9v-0.9l-0.7-1.7v-2.7l0.4-0.9
		l-0.1-0.8l-0.6-1.5l0.8-5.1l0.9-2.8l0.2-2l0.5-0.6v-2.1l1-2V443l0.7-2.2l-0.2-1.5l-0.7-1.3l-0.5-1.4l0.3-1.3l-0.2-0.8l0.6-2
		l-0.2-2.4l-0.2-2.1l0.1-2l0.7-2.6l0.6-0.8l-0.6-1.5l0.1-0.6l-0.7-2.1l0.3-0.3l-0.8-3.5l0.3-0.8l-0.3-0.7l0.4-1.2l-0.1-0.5l0.1-1.8
		l-0.6-2.5L320.6,405.8z"/>
	<path id="Syria" class="st13" d="M323.3,396l1.4-2.4v-1.9l0.7-1.3l-0.8-1.3l-0.6-2.6l-0.8-0.7l0.3-1.4l-0.2-0.8l-0.5-0.3l-0.2-1.3
		l-0.9-0.6l0.6-1.2l-0.9-0.6l0.9-0.7v-1.3l2-1.5l0.1-1l-0.1-0.9l1-0.2l0.7-0.5l0.3-1l-0.6-0.5l-2-0.9l0.3-0.9l-0.1-0.7l0.7-1.7
		l0.6-0.7l0.4-0.9l1.7-1l0.6,0.6l1.7-0.6l2,0.8l0.5-0.5v-0.5l-1.3-0.4l-1-1l0.7-2l1.2-1.8l1.7-0.3l0.2-1l1.1-1.4l0.9-1.7l-0.8-0.8
		l-0.3-1l0.2-0.6l-1.6-2l0.1-1.5l-1.8-1.3l-0.5-0.9l-2,0.1l-0.4-0.6l1.2-1v-1.2l1-0.1l-0.1-0.9l-1,0.2l-1-0.6l-0.6-1l-0.8,0.2v1
		l-0.3,0.4h-4.5l-1.5-0.6l-1.3-2.7l-0.1-1l-0.6-0.9l-1.2-2.7l0.2-0.4l-0.3-1.1l0.4-1.2l-0.4-1l-0.2-1.4l0.9-1.9l0.4-0.5l-1.3-2.5
		l0.1-0.9l-0.8-2.9l-1.2-1.4l-1-0.8l-1,0.1v-1l-0.9-0.5v-0.8l0.7-0.7l-0.3-1.7l0.5-0.2l0.5-1.7l-0.2-1.3l-0.7-1.2l1.2-0.5l0.6-1.8
		l1.4-0.3l0.4,1.3l1.9,0.6l1.3,1l0.5-1l-0.1-1.9l0.3-0.8l1.5-0.2v-1l1.2,0.1l0.3-1l-0.5-4.2l0.3-1l1.4,0.4l0.8-0.8l2,0.3l1.4-0.4
		v-0.8l-0.9-1.6l-1-0.2l-0.3-1.7l-0.8-0.6l-0.6-1.5v-0.8l0.4-1l-0.3-2.5l0.3-1.8v-1.7l0.7-2.3l3.9,1.4h1.3l1.3,0.5l1,1l0.4,0.9v1.2
		l1,0.6l0.9-0.9l1,0.2l1.7-0.5l3.5,0.6h0.8l2.6-2.2l1.2-0.6l3.2-0.8l3-1.7l0.5-0.2l2.1-1.7l1.3-0.6h2l4.2,1.2l1,0.6l3.2,3.1l1.4,0.7
		l1.4,0.2l3.2-0.3l1.5-0.2l3.3,1h1.1l10.3-2.5l4.1-1.9l1.9-1.4l2-0.8l3.7-3.2l0.7-0.4l1.8-0.5l2.5-1.7l1-0.4l3.6-0.7l5,1l1.4,0.4
		l5.6-0.4l10.1-3l0.8-0.7l1.3-1.6l0.7-1.5l0.6-0.5l0.4,1l1.8,0.6l1.2,1l-0.1,1.6l0.5,0.5l0.2,1.2l0.6,1.3l-1.6,2l-7.1,10.5l-1,0.8
		l-6,1.6l-1.4,0.3l-0.8,1l-1.2,3.8v0.8l0.4,6.9l0.2,0.8l3,5l0.6,1.8l0.7,3.8l-0.2,1.7l-1.2,2.8v0.9l0.2,2.7l-0.4,3.4l0.1,1.7
		l1.9,9.9v1.4l-2.4,7.6l-0.5,1.8l-0.9,1.2l-4.8,1.6l-10.9,8.4l-8.2,6.2l-16.4,12.4l-4.5,3.5l-8.9,7l-5.5,4.5l-11.6,9.5l-3,2.4
		l-3,2.7h-0.5l-1.4-0.3l-0.8,0.2l-0.8-0.6l-3.7-0.4l-2.2-0.7l-2.1-1.9l-2.5-1.9l-2.1,0.3l-1.7-2.5l-0.2-1.3h-1l-1.5-1.5L323.3,396z"
		/>
	<path id="Oman" class="st13" d="M781.1,590.2h0.6l0.5,0.8l1,0.2v0.8l-1,0.6l-1.2,1l-0.6-0.3l-0.1-1l0.5-0.3l-0.2-1.3L781.1,590.2z
		 M774.1,570.1v-1.3l1-2.7l0.4-1.2h0.5l0.6,0.8l1.7-0.2l-0.1-2.5l0.7-1.1l0.9-0.4l1.2,1.1l-1,1.4l1.2,1l-0.2,1l1,1l-1,0.2l-0.5-0.9
		l-0.9-0.5l-0.7,1l1,1.2l0.4,0.8h2l-0.5,0.6l-1,0.8l0.8,0.7l-0.3,0.9l0.4,1.5v1l-0.6,1.8l0.2,0.8l-0.8,1.7l-0.6,0.2l-0.1,2l0.4,1.2
		l-1.2,0.3l-0.8-0.8l-0.9-0.3l-0.5-2l0.4-0.6v-0.8l-0.6-0.7l-0.2-1l0.4-1l-0.3-2.5v-1.4l-0.7-1.6L774.1,570.1z M785,599.7l0.9,2.3
		l1.9,3.3l0.3,0.3l0.5,1.8l3.4,5.5l2,2l2.9,3.3l1.1,2.1l2.6,3l5.1,4.4l0.8,0.6l3.3,1.3l4.1,1.2l1.8,0.8l1.3,0.5l1.5,0.2h1.8l0.8,0.9
		l2,0.8l2.7-0.3l2,0.3l2.2,1l1.4,1.2l0.8,0.3h2l1.5-0.6v-0.5l1.6,0.1l1,0.4l0.8,1.4l1.1,0.7l0.7,0.7l0.6,0.2l0.6-0.4l0.6,0.8
		l0.9,2.6l0.3,0.5l1.5,1.4l0.8,0.3l1.2,2.1l1.2,1.3l0.4,1.7l1.6,1.6l0.4,1l1,1l2,1.4l1.2,1.6l1.5,3.3l1.3,0.9l1.6,2.5l1,1l2,1.4
		l0.5,0.7l1.6-0.7l1.6,1h1.8l0.6,0.2l0.5,0.7l0.7,1.8l0.2,4.6l-0.4,2.3l-1,2.1l-0.8,1.1l-0.2,2.5v2l-0.9,0.4l-0.4,1.5l-1.3,2.9
		l-0.6,3.7l-1.5,3.9l-0.3,1.3l-2.8,1.7l-0.6,0.4l-2,2.5l-2.5,3.8l-0.7,1.7l-0.5,0.5l-0.7,2l-0.1,1.8l-1,1.3l0.1,0.5l-1,1l-0.3,1
		l0.4,0.8l-0.4,2L849,718l-0.3,1.2v1.6l-0.6,2.3v1.8l-1,0.6v0.8l-1,0.3l-1.4-0.6H843l-1.7-0.6l-0.1-0.6l0.7-0.5l-0.4-1.3l0.4-1v-1.7
		l-0.7-0.7l-1.2,0.3l-1.5,0.9l-0.3,0.5l-0.3,1.3l0.3,0.8l-1.6,1.1l-0.7,1.2l0.6,1.4l-0.1,0.6l-1.3,0.8l-0.9,1.2l-0.5,1.7v0.6
		l0.8,1.8l-0.3,2.6v1.2l-0.6,3.7l-1,2.5v1.6l0.7,0.9l0.2,1.6l-0.1,1.7l1.5,2.6l0.5,1.2v1.5l-0.2,1.3l0.1,1.2l0.6,1.4l1,1.7v1.7
		l1,1.9l0.1,0.4l-0.8,1l-1,0.2l-0.8,0.8l-4.6-0.2l-6.2,1.4l-2.6,1l-3.5,1.9l-1.3,1.2l-1.3,1l-0.3,0.9l-2,2.9l-0.4,1v1.3l0.4,1.3
		l-0.5,2.2v2.3l-0.8,3.3l0.4,1.1l-0.6,1l-1.3,0.9l-0.6,1.4L810,792l-1,1.4l-0.1,0.9l-3.4-0.5l-1.5,0.6l-2-0.1l-2.5,1l-5.5,0.4
		l-2.8,0.9l-1.5,0.7l-0.4,1.6l-1.1,3l-1.8,2l-0.5,1.4l-0.1,1.2l0.4,1l0.8,0.5l0.7,1.1v1.8l-0.7,1.5l0.3,2l-0.8,0.5l-0.5,1.9l-1,0.5
		l-1.3,2.4l-0.9,0.9l-0.4-0.4l-0.7,0.8l-3.5,1.3l-1.6-0.1l-0.8-0.6l-0.8-1.1l-1.8-0.5l-1,0.2l-0.8-0.2l-1,0.4l-1.7-0.4l-0.8,0.2
		l-3.9,0.7h-1.8l-1.3,0.7l-0.2,1.4l-0.5,0.8l-1.6,0.2l-2,0.6l-1,0.6l-0.4-0.2l-0.8,1l-0.8,1.4l-1.8,1h-3.5l-1.9,0.5l-3.4,1.4
		l-1.8,1.2l-7.9-17l-0.6-0.6l-1-0.3l-9.2-20.5l-7.2-15.8l-4.5-10.2l16.4-7.6l17.8-8.2l27.6-12.8l2-14.1l2.5-17.6l2-15.3l1-8
		l-0.3-1.3l-11.9-18.6l-0.3-3.9l-0.7-4.2v-0.8l0.3-2.7l1.5-4.2l0.3-1.7l0.1-3.7l1.2-2.3l0.3-3.4l1-2.6l-0.7-3l-0.4-0.6l-1.3-0.9
		l-0.2-1l1.8-0.6l1-0.7l1-0.4h1.8l0.7-0.2l1,0.6l2.4-1.3l1.3-0.4l0.2-0.5l-1-1.7l-1-2.1l-0.6-0.3l-1.2,0.6l-2-0.5v-1l0.7-2.1
		l-0.2-1.4l-0.9-1l-0.3-2l-0.5-1.7l0.3-0.8v-1l0.5-0.6l-0.8-1.7l-0.2-2l-0.5-2.2v-0.8l0.6-1l1.3-1.4l0.8-0.3l0.9,0.2l0.7,0.4
		l0.9,2.6l-1.2-0.6l-0.2,0.9l1,0.8l0.8,2l0.8,0.5l1.2-0.1l0.6-1.4l0.2-1.1l1.4-0.5l1.3-1.8l-0.1-1.6L785,599.7z M803.8,804.9
		l0.3,0.7l0.6,0.4l-1.3,0.8l-1.3-0.2l-0.3-0.6L803.8,804.9z M855.7,718.9l0.3,1l1,2l-0.1,0.5l-2,1.8l-0.5,1.6l-0.2,1.9v0.8l-1,2
		l-0.8,0.2l-0.7,1l-0.5-1.3l-0.2-1.6l-0.2-2.2l0.3-0.8l0.7-0.7v-0.7l1.1-0.2l0.6-1.2l0.2-2l0.8-1.7l0.3-2h0.8L855.7,718.9z"/>
	<path id="United_Arab_Emirates" class="st13" d="M780.2,582l1.4,0.6l1,2.1l0.5,4.4l0.6,1l0.1,3.3l0.6,4.2l0.8,2.2l-1.3,0.5v1.6
		l-1.2,1.8l-1.5,0.5l-0.2,1l-0.5,1.5l-1.2,0.1l-0.8-0.6l-0.9-1.9l-1-0.8l0.2-1l1.2,0.7l-0.9-2.6l-0.6-0.3l-1-0.2l-0.8,0.3l-1.2,1.4
		l-0.5,0.9l-0.1,0.8l0.5,2.1l0.2,2l0.8,1.7L774,610v1l-0.4,0.7l0.5,1.8l0.3,2l1,1v1.3l-0.6,2.1v0.9l2,0.5l1.2-0.6l0.7,0.3l0.9,2.1
		l1,1.7l-0.2,0.5l-1.3,0.3l-2.3,1.3l-1-0.6l-0.8,0.3l-1.7-0.1l-1.2,0.4l-1,0.7l-1.6,0.7l0.2,0.9l1.3,1l0.4,0.5l0.6,3l-1,2.6
		l-0.2,3.5l-1.2,2.2l-0.1,3.8l-0.3,1.7l-1.5,4.2l-0.3,2.7v0.8l0.7,4l0.3,3.9l-1,2.4h-0.4l-55.1-7.4l-1-0.7l-14.8-18.6l-9.4-12
		l-0.7-1.4l-0.2-2.5l-0.3-1l0.3-0.8v-1.3l-0.6-1l0.3-0.5l0.9,1.2l0.6,3.2l1.2-0.3l0.4,0.4l0.5-1.5l0.3-0.4l0.7,1.4v1.8l0.6,2
		l0.2,1.3l0.7,1.6l2,0.4l1-0.2h1.6l1,0.7l1-0.2l2.4-0.2l1-0.7l1.4-0.2l0.6-1l1.4-0.6l0.2-0.6l2.3-2v-1.3l0.3-0.3l0.8,0.5l1,1.3
		l1-0.2l1.4,0.3l1.2-0.4l2.4,0.3l1-0.8l1.6,1.1l0.8-0.4l1,0.4l-0.3-1.2l0.4-0.1l1.2,0.7l1,1.2h1.2l2.7-0.7l1,0.7h0.9l1,0.6l0.5,0.7
		l1-0.3l0.6,0.2l1-0.6l0.6,0.2h2.6l2-1.2l1.3-0.3l1.3-0.8l0.9-0.2l0.6-0.6l0.6-1l1.3-0.6l1.3-1.4l1.4,0.5l1-1.8l0.6-2l-0.2-0.7
		l0.3-0.6l1.2-0.7l-0.2-0.7l-1.2-0.1l-2-1.3l0.9-0.2l0.3-0.8l1,1.5l0.6,0.5l0.9-0.3l0.8-2.5l0.2-2.3l-0.6-1.5l0.1-0.7l1-1.3l0.8,0.4
		l0.5-0.4l-0.3-0.8l2.2-1.6l1.8-2l1.6-1l0.6-0.7l1.3-2.2l1.7-3.3v-0.8l0.7-0.4l0.1-1l0.8-1.5l1-0.7l0.5-1.2h0.7l0.6-3.7l0.9,0.6
		l1.3-0.4l0.4-1.8l0.7-1l0.7-0.3l0.3-0.9l1.7-1l0.6-0.7l1-1.8l0.5,0.8l0.1-2l0.8-1l-0.1-0.9l0.5-2.2l0.1-2l1.8-0.4l0.7,1.6v1.4
		l0.3,2.5l-0.4,0.9l0.2,1l0.6,0.8v0.7l-0.4,0.5l0.5,2l1,0.4l0.7,1L780.2,582z M781.1,590.2l-0.5,0.5l0.2,1.3l-0.5,0.3v1l0.7,0.3l1-1
		l1-0.6v-0.8l-0.9-0.2l-0.5-0.7L781.1,590.2z M730.3,623.8l-0.7-0.4l1.9-1.7h1l1.3-1l1.4,1.3l1.4,0.4l0.3,0.8l-0.2,0.7l-0.6,0.3
		l-2-0.3l-0.5,0.4l-1.4,0.1l-1.3-0.6H730.3z M741.5,621.6l-0.3-0.5l-1.6-0.7l-0.3-0.7l0.6-0.9l1.3,1.4L741.5,621.6z M706.6,619.1
		l0.6-0.9l0.9,0.6l0.2,1.2l-1,1.6l-1-1.5L706.6,619.1z M722.8,621l-0.3-0.4l-0.9,0.1l-0.8-0.6l2.6-1.6l0.6-1.4l1.1,0.6l-0.2,1.4
		l-2,1.2L722.8,621z M744.7,615.7l-1.1-0.4v-0.4l0.7-1l2.3,1.8l-0.3,0.5L744.7,615.7z M742.8,619.6l-0.9,0.4l-1-0.9l0.3-1l0.6-0.2
		l1.1,1.5L742.8,619.6z M743.7,617.5l0.3,0.6l-0.4,1l-0.8-1.2L743.7,617.5z M700.2,613.8l0.8,1l-0.5,0.8l-0.7-0.6L700.2,613.8z"/>
	<path id="Yemen" class="st13" d="M711.2,766.6l4.6,10.1l7.2,15.9l9.2,20.5l1,0.3l0.6,0.5l7.9,17.1l-1.4,0.7l-0.9-0.3l-1,0.6
		l-0.5,0.7l-1.2,0.8l-1,0.2l-1.5,1l-3,1l-1.3,1l-2.3,2l-2,2.4l-0.5,0.7l-0.6,1.6l-0.8,1.7l0.2,1l-0.5,1.2l-0.2,1l-0.5,1.3l0.9,1.8
		l-0.2,1.1l1.2,0.9v2.4l0.5,2.4l0.3,0.6l-0.3,1l-0.6,0.2l-3.2,1.2l-0.4,0.5l-0.8,0.2l-1.6,0.8l-0.8,0.7l-0.1,1.2l-0.9-0.5l-1.5,0.6
		l-1.6,1.2l-0.4,0.8l0.4,1l-0.4,0.2l-2.3,0.3l-2,1.5l-1.8,1.2l-0.6-0.2l-1.6,1l-4.2,1.5l-4.7,1.2l-3.9,1.4l-2.4,0.3l-2.6,1.6
		l-1.5,1.7l-1.2,0.5l-1.3,0.8l-1.3,1.3l-0.7-0.2l-2.3,0.9l-0.3-0.9l-2,0.3l-3,1.3l-4.7,1.6l-2.4,1.8l-2,0.7l-1.2,1l-1.8,1l-0.8,0.9
		l-0.1,0.9l-1-0.5l-1.3,0.8l-1,2l-0.3,2l0.2,1l-1.4,0.9v0.7l-1,0.5l-0.2,1.1l-0.5,1.3l-1.1,0.7l-1.2,2l-1.2,0.8h-2.6l-1.3,1
		l-0.7,0.4l-0.5-0.6l-0.8-0.1h-1.7l-0.7,0.4l-2.5,1v-0.7l-1.2-0.9l-2.7-0.8l-2.1,1l-0.9,1.7l-1,0.7l-3.3,1.5l-0.5,0.3l-1.6,2.4
		l-2.6,3.1l-0.8,0.7l-4.9,2l-5.4,1.5l-1.9,1.6l-2.6,1.3l-1.7-0.3l-1,0.2l-1.3,0.6h-4.6l-1.8-0.6l-0.8,0.5L596,922l-3.7,0.2l-1.4,0.6
		l-1.6,0.2l-3,0.9l-0.7,0.5l-2,2.7l-0.8,1l-0.2,1l-1,1.6l-0.6,0.8l-0.8,0.5l-3.8,1.1l-1.6,1.5l-0.5,1l-0.6,3l0.2,1.1l-0.5,0.6
		l-1.4-0.7l0.4-0.6h0.8l-0.3-1l-1.7,0.2l-0.2,0.6l-0.8,0.4l0.6,0.7l-0.2,0.6l-0.7,0.6l-2.1-1.2l-1.2,0.9l-0.2-1.1l-0.6-0.6l-1-0.4
		h-1l-1.4,0.6l-1,1.2l-1.3,1.7l-1.7,0.7l-1.4,0.8h-1.3l-0.7-0.3l-1-0.1l-2,1.2l-1,0.2l-0.5-0.2l-1,0.3l-1-1.3l-0.7-0.3l-1.9-1
		l-1.2-0.3l-1.4-0.8H543l-1.2-0.5l-1.3,1.7l-0.8,0.3l-0.7-0.3l0.4-2.3l-0.3-2l-1.3-1.6l-0.6-1.3l-0.6-2l-0.8-1l-0.9-2.2l-1.4-2
		l-0.6-2l0.3-1.8l-0.1-4.9l0.6-1.4l-0.2-3l-0.2-1l-1-2l-0.3-2.3l-1.7-2l-1.2-2.7l-0.5-0.9l-0.6-3l-0.8-2.3l-1.7-5.9l0.6-0.1l0.2-1.2
		l-0.9-2.6l0.1-0.9l-0.9-1.2l-0.6-2.1l0.2-2l-0.6-2.5l-1.2-1.6l-0.3-1.1v-1.5l-0.4-1l-0.8-0.4l-1.3-1l-1-0.6h-0.9l-0.4,0.7l-1.2-0.6
		v-1l1,0.1l0.4-0.5l0.1-1.5l1.8,1.4l0.7-0.2l-0.2-2.1l-0.8-2.1l-0.2-1.9l-1.4-2.2l0.4-0.6l-0.7-1.4V860l-0.3-0.7l1-1.2v-1.5l0.3-0.6
		l1-1l0.3-1.2v-3.7l-0.2-1.3l-0.9-3.9l-0.2-1.9l-0.6-1.6l1.8-1l0.7-0.8l-0.2-1l0.3-0.3l1.2-0.4l1.3-1.2l0.7-2.3l0.1-1.5l0.3-0.1
		l1.5,0.4l0.4-0.6l-0.5-1.5l0.9-1l-0.4-1.2l-1.2-0.5l-1-2.6l0.4-1.7v-1.2l-0.5-1.5l0.5-1.7v-1.7l0.5-0.5l1.5-0.7v-0.6l-0.7-1
		l-1.3-0.3l1-1.8l1.8-2l1.8-1.5l1-0.3l1.5,0.3l1.7,0.8l1,0.6l1.6,2.1l1.5,1l3.1-0.1v0.8l1,0.4l0.9-1.4l0.8-0.3l0.9,0.5l1-0.1
		l0.8-1.5l1.4,0.4l2-0.6l2.1-0.3h1.3l1.5,0.4h0.6l1.8-0.8h11.4l1.2,0.3l3.7,2.4l1,0.4l19.8,2.1l8.2-1.5l1,0.5l5.4,8.2l0.3,0.2
		l3.2,0.1l1.4-0.4l4.8-3.8l0.5-1.1l1.8-8.3l0.3-0.9l4.7-8.2l6.1-10.9l0.4-0.4l17.4-11.7l2-1l30-5.6L711.2,766.6z M750.7,954.3
		l0.6,0.3l0.2,0.9l-0.7,0.1l-0.7-0.3l-0.9-0.9L750.7,954.3z M733.9,953.8l0.6,0.3l1.2-0.3l0.5,0.4l-0.7,0.9l-0.6,0.2l-2-0.3
		l-0.5-0.6l-1,0.2l-1-0.9l-0.5,0.2l-1-0.6l0.5-0.6l1.2,0.2l1.2,0.8L733.9,953.8z M781,944l1-0.5l0.3,0.6l-1.6,0.5l-0.2,1l-2.5,1h-1
		l-0.8,0.4l-0.5,0.9l-1.7,1.4h-2.4l-0.5,0.6l-0.9-0.3l-4.2,1l-1,0.2l-1.3-0.2l-2.3-0.7l-1.6-2.3l-0.6-0.3l-3.4-2.5l-0.5-1l1,0.2
		l0.6-0.4l0.2-1l-0.2-1.7l1.6-0.4l0.6-1.2l2.4,0.3l1-0.1l2.6,2.3l1.9,0.6l0.6-1.4l0.6-0.1l0.8,0.3l1.5-0.1l2.4-1.6l1,1l0.7-0.3
		l0.5,0.6l0.9,0.1l0.2,0.5l2.1,0.8l1.4,0.8L781,944z M521.1,913.6l1-0.9l0.6,0.6l-1,1.8l-1,0.7v-1L521.1,913.6z M521.5,904.6
		l0.8,0.8l0.2,0.7l-0.6,1.7l-1.6-1v-1.2L521.5,904.6z M516.2,866.9l-0.5,0.4l0.5,1.2l-0.2,2.2l-0.4,0.8l-0.5,0.3l-0.6-0.7l0.1-2.6
		l0.9-1.5L516.2,866.9z"/>
	<path id="Lebanon" class="st13" d="M308.7,386.8l0.3-1.2l1-1l0.4-1.6v-0.9l-0.6-0.7l0.7-1l0.2-1v-1.5l0.2-1.4l1.5-1.5l0.1-1.2
		l1-4.6l0.5-2.2l-0.1-1.9l-0.3-0.8l1.8-0.1l0.3-0.3l0.5-2.2h0.4l-0.3-1.4l0.1-2l-0.5-1l-0.2-1.3l0.3-0.6v-1.8l0.1-0.7l0.8-0.1l0.7-2
		l1-0.8l0.3-0.6l-0.3-0.6l1.9-0.6l1.3-1.7v-1.7l-0.6-1.4l1.5,0.6h4.6l0.3-0.4v-1l0.8-0.1l0.6,1l1,0.5l1-0.2v0.9h-1l0.1,1.2l-1.2,1.2
		l0.4,0.5h2l0.5,0.8l1.9,1.3l-0.1,1.5l1.6,2l-0.3,0.7l0.3,0.9l0.8,0.8l-0.9,1.7l-1.1,1.4l-0.2,0.9l-1.7,0.3l-1.3,1.8l-0.8,2l1,1
		l1.2,0.4l0.1,0.5l-0.6,0.5l-1.9-0.8l-1.7,0.6l-0.6-0.6l-1.7,1l-0.4,1l-0.6,0.6l-0.7,1.7v0.7l-0.4,0.9l2,0.8l0.7,0.6l-0.3,1
		l-0.8,0.5l-1,0.1l0.2,1l-0.2,0.9l-1.8,1.5l-0.6,1.4l-0.8,0.7l-0.9,0.3l-1,1.3l-1,0.7l-1-0.8l-0.3,1.6v2.1l-0.4,1.7l-1.6,0.5
		l-1.4,0.4l-1.2-1.2l-2,0.5L308.7,386.8z"/>
	<path id="Israel" class="st13" d="M297.1,438.3l1.3-1.3l0.7-1l-0.4-1.8l0.4-1l2-2.6l1-1v-0.6l-1.2-1l2-4.9l1.3-4.6l0.3-0.7l1.6-8.9
		l0.4-7.7V399l0.3-2.3l-0.2-2.5l0.4-0.7l1.2,0.4l0.7-1l0.1-1.2l-0.3-0.5v-2.1l0.2-2.5h1.7l2-0.3l1.2,1.2l1.4-0.4l1.5-0.5l0.4-1.7v-2
		l0.3-1.7l0.9,0.8l1-0.7l1-1.3l1-0.3l0.7-0.7l0.6-1.4l-0.1,1.3l-0.9,0.8l0.9,0.6l-0.6,1l0.9,0.7l0.2,1.3l0.5,0.3l0.2,0.8l-0.3,1.4
		l0.8,0.7l0.6,2.6l0.8,1.3l-0.7,1.3v2l-1.4,2.3l-1.4,0.9l-0.9,0.9h-0.5l-0.9,1l0.5,2v1.5l0.3,0.5v1l-0.5,1.5l0.5,0.7l-3.4-0.8
		l-0.5-2.1l-0.7-0.4h-2l-1.3-0.9l-2.7,2.3l-0.3,0.8l-0.2,2.5l-0.4,0.2v1.6l0.5,0.6l-0.2,0.7l-0.9,1.5l0.6,1.3l0.6,2.6l0.2,2.4l0.9,2
		l-1,0.6v1h1.2l0.7-0.6l1.4,0.6l1.6,0.3l0.6,0.6v1l-1.6,0.4l-2.8,3l-0.6,1.3v2.4l-0.7,1.8l-0.2,1l0.3,0.8l1.1,0.5l2.3-0.5h2.6
		l1.2-0.6l2-2.2l1.2-0.8l1.4-0.1l0.2,2.5l-0.6,1.9l0.3,0.8l-0.5,1.3l0.5,1.4l0.7,1.2l0.2,1.6l-0.7,2.2v1.7l-1,2v2.1l-0.5,0.6l-0.2,2
		l-1,2.8l-0.7,5.1l0.6,1.5v0.8l-0.2,1v2.6l0.6,1.7v0.9l-0.2,1l-0.7,1.5l-0.3,3v2.3l-0.6,3v2.3l-0.3,1.2l-0.1,1.3l-0.8,2h-0.5l-1-2.1
		l-0.2-2l-0.9-2.8l-2.3-5.3l-0.3-1.9l-3.9-9.1l-1.5-1.6l-0.3-1l0.1-1.2l-0.7-0.9l-0.3-1.6l-0.7-2.2l-4.2-9.3L297.1,438.3z"/>
	<path id="Palestinian_Territories" class="st13" d="M300.8,428.1l1.1,1v0.6l-0.8,1l-2.1,2.6l-0.3,1l0.3,1.9l-0.7,0.9l-1.2,1.3
		l-0.7-1.8l-0.7-1l1.5-1.8l0.4-0.9l0.9-0.8l0.3-0.9l1.3-1.9L300.8,428.1z M320.5,405.8v1.5l0.7,2.5l-0.1,1.8l0.1,0.5l-0.3,1.2
		l0.3,0.7l-0.3,0.8l0.8,3.4l-0.3,0.3l0.8,2.1l-0.2,0.6l0.6,1.5l-0.5,0.8l-0.7,2.6l-0.1,2v2.1l-1.3,0.1l-1.1,0.8l-2,2.1l-1.2,0.6
		h-2.6l-2.3,0.5l-1-0.5l-0.4-0.9l0.2-1l0.7-1.7V428l0.6-1.4l2.8-2.8l1.7-0.4l-0.2-0.9l-0.6-0.7l-1.5-0.3l-1.4-0.6l-0.7,0.7l-1-0.1
		l-0.3-1l1-0.6l-0.8-2l-0.2-2.4l-0.6-2.5l-0.6-1.3l1-1.5v-0.7l-0.4-0.6v-1.6l0.4-0.2l0.2-2.5l0.3-0.8l2.7-2.3l1.4,0.9h1.9l0.7,0.4
		l0.5,2.1L320.5,405.8z"/>
</g>
<g id="city_labels" class="st12">
	<circle id="circle348" class="st14" cx="382.5" cy="351.8" r="2.4"/>
	<text id="text350" transform="matrix(1.0003 0 0 1 381.6631 369.2256)" class="st14 st15 st16">Amman</text>
	<circle id="circle456" class="st14" cx="367.9" cy="302" r="2.4"/>
	<text id="text458" transform="matrix(1.0003 0 0 1 345.8726 297.2383)" class="st14 st15 st16">Beirut</text>
	<circle id="circle468" class="st14" cx="689.3" cy="325.4" r="2.4"/>
	<text id="text470" transform="matrix(1.0003 0 0 1 661.4277 320.5742)" class="st14 st15 st16">Isfahan</text>
	<circle id="circle472" class="st14" cx="720.5" cy="405.2" r="2.4"/>
	<text id="text474" transform="matrix(1.0003 0 0 1 696.3057 400.4204)" class="st14 st15 st16">Shiraz</text>
	<circle id="circle680" class="st14" cx="295.7" cy="145.9" r="2.4"/>
	<text id="text682" transform="matrix(1.0003 0 0 1 268.3286 141.165)" class="st14 st15 st16">Ankara</text>
	<circle id="circle688" class="st14" cx="593" cy="781.5" r="2.4"/>
	<text id="text690" transform="matrix(1 0 0 1 567.7242 776.81)" class="st14 st15 st17">Sanaa</text>
	<circle id="circle700" class="st14" cx="391.8" cy="240.2" r="2.4"/>
	<text id="text702" transform="matrix(1.0003 0 0 1 364.9463 235.3887)" class="st14 st15 st16">Aleppo</text>
	<circle id="circle704" class="st14" cx="384.6" cy="311.4" r="2.4"/>
	<text id="text706" transform="matrix(1.0003 0 0 1 387.1006 311.7759)" class="st14 st15 st16">Damascus</text>
	<circle id="circle720" class="st14" cx="477.2" cy="622" r="2.4"/>
	<text id="text722" transform="matrix(1.0003 0 0 1 448.7993 617.2227)" class="st14 st15 st16">Jeddah</text>
	<circle id="circle726" class="st14" cx="489.7" cy="624.1" r="2.4"/>
	<text id="text728" transform="matrix(1.0003 0 0 1 469.1997 644.5283)" class="st14 st15 st16">Makkah</text>
	<circle id="circle912" class="st14" cx="266.4" cy="373.1" r="2.4"/>
	<text id="text914" transform="matrix(1.0003 0 0 1 226.1719 368.356)" class="st14 st15 st16">Alexandria</text>
	<circle id="circle936" class="st14" cx="630.2" cy="414.1" r="2.4"/>
	<text id="text938" transform="matrix(1.0003 0 0 1 604.498 409.3887)" class="st14 st15 st16">Kuwait</text>
	<circle id="circle1086" class="st14" cx="359.2" cy="348.8" r="2.4"/>
	<text id="text1088" transform="matrix(1.0003 0 0 1 311.1294 344.0103)" class="st14 st15 st16">Tel Aviv-Yafo</text>
	<circle id="circle1098" class="st14" cx="822.5" cy="227.3" r="2.4"/>
	<text id="text1100" transform="matrix(1.0003 0 0 1 786.665 222.5312)" class="st14 st15 st16">Mashhad</text>
	<circle id="circle1302" class="st14" cx="792.8" cy="519.2" r="2.4"/>
	<text id="text1304" transform="matrix(1.0003 0 0 1 770.2949 514.4106)" class="st14 st15 st16">Dubai</text>
	<circle id="circle1422" class="st14" cx="543.5" cy="312.3" r="2.4"/>
	<text id="text1424" transform="matrix(1.0003 0 0 1 508.7246 307.4766)" class="st14 st15 st16">Baghdad</text>
	<circle id="circle1434" class="st14" cx="669.3" cy="247.9" r="2.4"/>
	<text id="text1436" transform="matrix(1.0003 0 0 1 642.96 243.1074)" class="st14 st15 st16">Tehran</text>
	<circle id="circle1512" class="st14" cx="218.9" cy="116.8" r="2.4"/>
	<text id="text1514" transform="matrix(1.0003 0 0 1 189.2749 112.0601)" class="st14 st15 st16">Isanbul</text>
	<circle id="circle1518" class="st14" cx="622.7" cy="538.1" r="2.4"/>
	<text id="text1520" transform="matrix(1.0003 0 0 1 595.9062 533.3477)" class="st14 st15 st16">Riyadh</text>
	<circle id="circle1578" class="st14" cx="295.2" cy="402.6" r="2.4"/>
	<text id="text1580" transform="matrix(1.0003 0 0 1 274.8057 397.8008)" class="st14 st15 st16">Cairo</text>
</g>
<polygon id="selection-rectangle" class="st18" points="0,0 0,0 0,0 "/>
<rect id="selection-ellipse" class="st18" width="0" height="0"/>
<path id="selection-polygon" class="st18" d="M1000,0"/>
<path id="selection-polyline" class="st18" d="M1000,0"/>
<text transform="matrix(1 0 0 1 874.5255 1013.4912)" class="st19 st20 st21">Created with mapchart.net</text>
<g>
	<g>
		<path class="st22" d="M375.3,497.9c48.5-127.6,153.3-76.2,153.3-76.2C534,413.5,560,218.9,394.6,261"/>
		<g>
			<path class="st23" d="M371.3,509.3c3.9-4.6,9.6-10.1,14.7-12.9l-10.1,0.1l-7.8-6.4C370.2,495.4,371.2,503.2,371.3,509.3z"/>
		</g>
		<g>
			<path class="st23" d="M388.2,262.7c2.7-1.9,6-4.8,7.7-7.5l-0.5,5.5l3.2,4.6C395.7,264,391.5,263.1,388.2,262.7z"/>
		</g>
	</g>
</g>
<g>
	<path class="st24" d="M856.2,184.4H753.3c-28.7,0-52-23.3-52-52v0c0-28.7,23.3-52,52-52h102.9c28.7,0,52,23.3,52,52v0
		C908.1,161.1,884.9,184.4,856.2,184.4z"/>
	<g>
		<path class="st25" d="M782,121.9v-2h2.2v2H782z M782,131.3v-8.1h2.1v8.1H782z"/>
		<path class="st25" d="M786.2,128.9v-8.1h2.1v2.5h2.6v1.8h-2.6v3.9c0,0.3,0.2,0.5,0.5,0.5h2.3v1.1l-0.9,0.7h-1.5
			C787.1,131.3,786.2,130.5,786.2,128.9z"/>
		<path class="st25" d="M794.8,131.3c-1.7,0-2.5-0.8-2.5-2.4c0-1.6,0.8-2.4,2.5-2.4h2.1v-0.9c0-0.3-0.2-0.5-0.5-0.5h-3.2v-1.1
			l0.9-0.7h2.4c1.7,0,2.5,0.8,2.5,2.5v5.6H794.8z M794.5,129c0,0.3,0.2,0.5,0.5,0.5h2v-1.4h-2c-0.3,0-0.5,0.2-0.5,0.5V129z"/>
		<path class="st25" d="M801.1,128.4V120h2.1v8.6c0,0.6,0.3,1,1,1v1.8C802.2,131.5,801.1,130.5,801.1,128.4z"/>
		<path class="st25" d="M805.9,121.9v-2h2.2v2H805.9z M805.9,131.3v-8.1h2.1v8.1H805.9z"/>
		<path class="st25" d="M812.3,131.3c-1.7,0-2.5-0.8-2.5-2.4c0-1.6,0.8-2.4,2.5-2.4h2.1v-0.9c0-0.3-0.2-0.5-0.5-0.5h-3.2v-1.1
			l0.9-0.7h2.4c1.7,0,2.5,0.8,2.5,2.5v5.6H812.3z M811.9,129c0,0.3,0.2,0.5,0.5,0.5h2v-1.4h-2c-0.3,0-0.5,0.2-0.5,0.5V129z"/>
		<path class="st25" d="M818.6,129v-3.3c0-1.6,0.8-2.3,2.4-2.3h4.3v8.7c0,1.6-0.8,2.4-2.4,2.4h-3l-0.7-0.5v-0.8h3.7
			c0.6,0,0.9-0.3,0.9-0.9v-0.9h-2.8C819.4,131.3,818.6,130.5,818.6,129z M820.1,129.1c0,0.6,0.3,0.9,0.9,0.9h2.8v-5.4H821
			c-0.6,0-0.9,0.3-0.9,0.9V129.1z"/>
		<path class="st25" d="M826.7,123.6l0.2-0.2h1.3l2.2,6.7h0.3l2.2-6.7h1.3l0.2,0.2l-3.6,10.8h-1.3l-0.2-0.2l1-2.8h-0.8L826.7,123.6z
			"/>
		<path class="st25" d="M835.7,134.4v-11h4.3c1.6,0,2.4,0.8,2.4,2.3v3.3c0,1.6-0.8,2.4-2.4,2.4h-2.8v3.1H835.7z M837.2,130h2.8
			c0.6,0,0.9-0.3,0.9-0.9v-3.6c0-0.6-0.3-0.9-0.9-0.9h-2.8V130z"/>
		<path class="st25" d="M844.4,130.8V130h3.5c0.6,0,0.9-0.3,0.9-0.9c0-0.6-0.3-1-0.8-1.1l-1.8-0.3c-1.2-0.2-1.9-0.9-1.9-2.1
			c0-1.5,0.8-2.3,2.4-2.3h2.5l0.7,0.5v0.8h-3.1c-0.6,0-0.9,0.3-0.9,0.9c0,0.6,0.3,0.9,0.8,0.9l1.8,0.3c1.2,0.2,1.8,0.9,1.8,2.2
			c0,1.5-0.8,2.3-2.3,2.3h-2.9L844.4,130.8z"/>
		<path class="st25" d="M852.3,129v-5.6h1.5v5.8c0,0.6,0.3,0.9,0.9,0.9h2.8v-6.7h1.5v8h-4.3C853.1,131.3,852.3,130.5,852.3,129z"/>
		<path class="st25" d="M861.3,131.3v-8h9.1c1.6,0,2.4,0.8,2.4,2.3v5.6h-1.5v-5.8c0-0.6-0.3-0.9-0.9-0.9h-2.6v6.7h-1.5v-6.7h-3.5
			v6.7H861.3z"/>
	</g>
	<g>
		<path class="st25" d="M798.9,144.7v-3.5h2.4v0.7h-1.7v0.9h1.5v0.7h-1.5v1.3H798.9z"/>
		<path class="st25" d="M803.1,144.7v-3.5h0.7v3.5H803.1z"/>
		<path class="st25" d="M806,144.7v-3.5h0.8l1.4,2.3v-2.3h0.7v3.5h-0.8l-1.4-2.3v2.3H806z"/>
		<path class="st25" d="M811,144.7v-3.5h2.4v0.7h-1.7v0.7h1.5v0.7h-1.5v0.8h1.7v0.7H811z"/>
		<path class="st25" d="M815.2,144.4V144h1.6c0.1,0,0.2-0.1,0.2-0.2v-0.4c0-0.1,0-0.2-0.1-0.2l-1-0.2c-0.4-0.1-0.6-0.4-0.6-0.8V142
			c0-0.6,0.3-0.9,0.9-0.9h1.2l0.3,0.3v0.4h-1.5c-0.1,0-0.2,0.1-0.2,0.2v0.3c0,0.1,0,0.2,0.1,0.2l1,0.2c0.4,0.1,0.6,0.4,0.6,0.8v0.3
			c0,0.6-0.3,0.9-0.9,0.9h-1.3L815.2,144.4z"/>
		<path class="st25" d="M819.4,141.8v-0.7h2.9v0.7h-1.1v2.9h-0.7v-2.9H819.4z"/>
		<path class="st25" d="M826.5,143.8V142c0-0.6,0.3-0.9,0.9-0.9h1.2c0.6,0,0.9,0.3,0.9,0.9v1.8c0,0.5-0.2,0.7-0.6,0.8l0.3,0.6
			l-0.1,0.2h-0.6l-0.4-0.8h-0.7C826.8,144.7,826.5,144.4,826.5,143.8z M827.3,143.9c0,0.1,0.1,0.2,0.2,0.2h1.1
			c0.1,0,0.2-0.1,0.2-0.2V142c0-0.1-0.1-0.2-0.2-0.2h-1.1c-0.1,0-0.2,0.1-0.2,0.2V143.9z"/>
		<path class="st25" d="M831.4,143.8v-2.7h0.7v2.7c0,0.1,0.1,0.2,0.2,0.2h1c0.1,0,0.2-0.1,0.2-0.2v-2.7h0.7v2.7
			c0,0.6-0.3,0.9-0.9,0.9h-1.1C831.7,144.7,831.4,144.4,831.4,143.8z"/>
		<path class="st25" d="M836,144.5l1-3.4h1.1l1,3.4l-0.1,0.1h-0.6l-0.2-0.7h-1.4l-0.2,0.7h-0.6L836,144.5z M837.1,143.3h1l-0.4-1.5
			h-0.1L837.1,143.3z"/>
		<path class="st25" d="M841,144.7v-3.5h0.7v2.9h1.5v0.7H841z"/>
		<path class="st25" d="M845,144.7v-3.5h0.7v3.5H845z"/>
		<path class="st25" d="M847.6,141.8v-0.7h2.9v0.7h-1.1v2.9h-0.7v-2.9H847.6z"/>
		<path class="st25" d="M852,141.3l0.1-0.1h0.6l0.8,1.5l0.8-1.5h0.6l0.1,0.1l-1.1,2.1v1.2h-0.7v-1.2L852,141.3z"/>
	</g>
	<linearGradient id="XMLID_2_" gradientUnits="userSpaceOnUse" x1="759.5419" y1="132.0492" x2="775.1324" y2="132.0492">
		<stop  offset="0" style="stop-color:#BD1E2D"/>
		<stop  offset="0.1634" style="stop-color:#CD1D2A"/>
		<stop  offset="0.4129" style="stop-color:#DE1D27"/>
		<stop  offset="0.6814" style="stop-color:#E91C25"/>
		<stop  offset="1" style="stop-color:#EC1C24"/>
	</linearGradient>
	<polygon id="XMLID_00000103984091944724486040000014414137402412553122_" class="st26" points="775.1,119.1 759.5,128.1 759.5,145 
		775.1,136 775.1,119.1 775.1,119.2 	"/>
	<linearGradient id="XMLID_3_" gradientUnits="userSpaceOnUse" x1="743.875" y1="132.064" x2="759.5488" y2="132.064">
		<stop  offset="0" style="stop-color:#929497"/>
		<stop  offset="3.201115e-02" style="stop-color:#999B9E"/>
		<stop  offset="0.2021" style="stop-color:#B8BABC"/>
		<stop  offset="0.3794" style="stop-color:#D1D2D3"/>
		<stop  offset="0.5649" style="stop-color:#E2E3E4"/>
		<stop  offset="0.7639" style="stop-color:#EDEEEE"/>
		<stop  offset="1" style="stop-color:#F0F1F1"/>
	</linearGradient>
	<polygon id="XMLID_00000124141400755602671270000016106974919899383197_" class="st27" points="759.5,128.1 743.9,119.1 
		743.9,119.2 743.9,136 759.5,145 759.5,145 759.5,145 759.5,145 759.5,145 759.5,145 759.5,128.1 	"/>
	<linearGradient id="XMLID_4_" gradientUnits="userSpaceOnUse" x1="727.1276" y1="131.7373" x2="741.6375" y2="131.7373">
		<stop  offset="0" style="stop-color:#006838"/>
		<stop  offset="3.933382e-02" style="stop-color:#006D3A"/>
		<stop  offset="0.2519" style="stop-color:#008644"/>
		<stop  offset="0.4755" style="stop-color:#00974B"/>
		<stop  offset="0.7154" style="stop-color:#00A250"/>
		<stop  offset="1" style="stop-color:#00A551"/>
	</linearGradient>
	<polygon id="XMLID_00000182510148272434589960000014860565410953818283_" class="st28" points="741.6,119.1 727.1,127.5 
		727.1,144.3 741.6,136 741.6,119.1 741.6,119.2 	"/>
</g>
<path class="st1" d="M390.1,543.3l-9.6,9.6l-9.6-9.6c-5.3-5.3-5.3-14,0-19.3c5.3-5.3,14-5.3,19.3,0
	C395.5,529.3,395.5,538,390.1,543.3z M380.5,536.7c1.7,0,3-1.4,3-3s-1.4-3-3-3s-3,1.4-3,3S378.8,536.7,380.5,536.7z"/>
<path class="st1" d="M371.8,258l-8,8l-8-8c-4.4-4.4-4.4-11.6,0-16c4.4-4.4,11.6-4.4,16,0C376.2,246.4,376.2,253.6,371.8,258z
	 M363.8,252.5c1.4,0,2.5-1.1,2.5-2.5c0-1.4-1.1-2.5-2.5-2.5s-2.5,1.1-2.5,2.5C361.3,251.4,362.4,252.5,363.8,252.5z"/>
<path id="Qatar" class="st29" d="M648.6,617l1.9-1.4l0.2-1.9l-1.2-6l-3.5-6.2l-0.2-5.4l-1.9-1.4l-2.3-11.6l-0.4-4.6l-1.4-4.9v-4.1
	l-0.5-0.7l0.9-2.1l2.3-1.2v-2.3l-2.3-2.3l4-1.2v3l0.9,3.1l1.2,0.4l-0.2-3.5l0.7-1.3h1.6l0.7-2.6l-2.3,0.8l-2.3-2.2v-4l0.4-0.9
	l-0.7-3l3.4-1.6l-1.6-1.4l0.7-5.1l0.9-3.4l0.5-3.7l0.8-1.9l4.1-1.8l1.3-2.8l3.7-2.3l4.5,2.3l0.8,0.9l0.5,4.5l1.6,0.8l1.2,3.8
	l1.8,0.8l4.6,0.3l1.6,1.2l2.1,3l1.9,6.9l-1.9,0.9l0.2,3.3l-2.1,1.4l2.8,2.3v1.2l-2.1,1.3v4.1l-0.8,1.6l2.5,4.5l0.7,1.8l0.7,7.7
	l1.2,0.8l3,0.5l1.9,4.1l0.6,5.4l0.5,6.8l-0.2,5l-3.4,6.5l-0.5,6.3l-0.7,1.2v3.9l-3.1,3.1v1.4l-2.3,1.8l0.7-3.3L676,623h-2.7v-0.8
	l-3.3,1.1v1.2l-3,3.3l-2.3,1.1l-6-0.4l-2.6-1.2l-2.8-3.1L648.6,617z"/>
<path class="st1" d="M669.9,590.5l-7.3,7.3l-7.3-7.3c-4-4-4-10.5,0-14.5c4-4,10.5-4,14.5,0C673.9,580,673.9,586.5,669.9,590.5z
	 M662.7,585.5c1.3,0,2.3-1,2.3-2.3c0-1.3-1-2.3-2.3-2.3s-2.3,1-2.3,2.3C660.4,584.5,661.4,585.5,662.7,585.5z"/>
<g>
	<g>
		<path class="st22" d="M528.6,421.4c0,0,146.2,8.9,134.7,144.6"/>
		<g>
			<path class="st23" d="M662.7,572.7c-0.8-3.2-2.4-7.3-4.3-9.9l5,2.4l5.4-1.4C666.5,566,664.1,569.7,662.7,572.7z"/>
		</g>
	</g>
</g>
</svg>
