<svg id="Layer_1" data-name="Layer 1" xmlns="http://www.w3.org/2000/svg" xmlns:xlink="http://www.w3.org/1999/xlink" viewBox="0 0 512 512"><defs><style>.cls-1{fill:#211451;}.cls-2{fill:url(#linear-gradient);}.cls-3{fill:url(#linear-gradient-2);}.cls-4{fill:url(#linear-gradient-3);}</style><linearGradient id="linear-gradient" x1="314.18" y1="255.56" x2="422.75" y2="255.56" gradientUnits="userSpaceOnUse"><stop offset="0" stop-color="#bd1e2d"/><stop offset="0.16" stop-color="#cd1d2a"/><stop offset="0.41" stop-color="#de1d27"/><stop offset="0.68" stop-color="#e91c25"/><stop offset="1" stop-color="#ec1c24"/></linearGradient><linearGradient id="linear-gradient-2" x1="205.08" y1="255.66" x2="314.23" y2="255.66" gradientUnits="userSpaceOnUse"><stop offset="0" stop-color="#929497"/><stop offset="0.03" stop-color="#999b9e"/><stop offset="0.2" stop-color="#b8babc"/><stop offset="0.38" stop-color="#d1d2d3"/><stop offset="0.56" stop-color="#e2e3e4"/><stop offset="0.76" stop-color="#edeeee"/><stop offset="1" stop-color="#f0f1f1"/></linearGradient><linearGradient id="linear-gradient-3" x1="88.45" y1="253.39" x2="189.5" y2="253.39" gradientUnits="userSpaceOnUse"><stop offset="0" stop-color="#006838"/><stop offset="0.04" stop-color="#006d3a"/><stop offset="0.25" stop-color="#008644"/><stop offset="0.48" stop-color="#00974b"/><stop offset="0.72" stop-color="#00a250"/><stop offset="1" stop-color="#00a551"/></linearGradient></defs><rect class="cls-1" width="512" height="512"/><polygon class="cls-2" points="422.75 165.61 314.18 228.21 314.18 345.51 422.66 282.88 422.66 165.73 422.75 165.74 422.75 165.61"/><polygon class="cls-3" points="314.04 228.38 205.25 165.61 205.08 165.76 205.08 282.87 313.92 345.62 314.06 345.71 314.15 345.68 314.23 345.71 314.14 345.62 314.18 345.51 314.18 228.21 314.04 228.38"/><polygon class="cls-4" points="189.5 165.61 88.45 223.86 88.45 341.16 189.4 282.88 189.4 165.73 189.49 165.74 189.5 165.61"/></svg>