<svg xmlns="http://www.w3.org/2000/svg" xmlns:xlink="http://www.w3.org/1999/xlink" viewBox="0 0 489.36 213.32"><defs><style>.cls-1{isolation:isolate;}.cls-11,.cls-2,.cls-5,.cls-7,.cls-9{mix-blend-mode:multiply;}.cls-2{fill:url(#radial-gradient);}.cls-14,.cls-3{fill:#fff;}.cls-16,.cls-4{fill:#ff3654;}.cls-5{fill:url(#radial-gradient-2);}.cls-6{fill:#7b3dd9;}.cls-7{fill:url(#radial-gradient-3);}.cls-18,.cls-8{fill:#00b59a;}.cls-9{fill:url(#radial-gradient-4);}.cls-10,.cls-15{fill:#ff9d00;}.cls-11{fill:url(#radial-gradient-5);}.cls-12,.cls-17{fill:#1d39cf;}.cls-13{font-size:20px;fill:#090063;}.cls-13,.cls-14,.cls-15,.cls-16,.cls-17,.cls-18{font-family:ErasITC-Demi, Eras Demi ITC;font-weight:300;}.cls-14{font-size:21px;}.cls-15,.cls-16,.cls-17,.cls-18{font-size:14px;}</style><radialGradient id="radial-gradient" cx="251.72" cy="97.94" r="43.4" gradientTransform="translate(56.64 -88.88) rotate(22.5)" gradientUnits="userSpaceOnUse"><stop offset="0.36" stop-color="#acc2d4"/><stop offset="0.44" stop-color="#bbcddc"/><stop offset="0.68" stop-color="#e0e8ef"/><stop offset="0.88" stop-color="#f7f9fb"/><stop offset="1" stop-color="#fff"/></radialGradient><radialGradient id="radial-gradient-2" cx="119.19" cy="164.47" r="43.4" gradientTransform="matrix(1, 0, 0, 1, 0, 0)" xlink:href="#radial-gradient"/><radialGradient id="radial-gradient-3" cx="354.43" cy="164.47" r="43.4" gradientTransform="matrix(1, 0, 0, 1, 0, 0)" xlink:href="#radial-gradient"/><radialGradient id="radial-gradient-4" cx="171.57" cy="128.33" r="43.4" gradientTransform="translate(140.99 -83.73) rotate(45)" xlink:href="#radial-gradient"/><radialGradient id="radial-gradient-5" cx="317.04" cy="88.4" r="43.4" gradientTransform="matrix(1, 0, 0, 1, 0, 0)" xlink:href="#radial-gradient"/></defs><g class="cls-1"><g id="Layer_1" data-name="Layer 1"><path d="M363.45,251.89a.69.69,0,0,1-.2,0,.6.6,0,0,1-.36-.75,117.8,117.8,0,1,0-222.34,0,.58.58,0,0,1-1.1.38,119,119,0,1,1,224.55,0A.58.58,0,0,1,363.45,251.89Z" transform="translate(-14.14 -40.07)"/><path d="M365.54,251.91a2.21,2.21,0,1,1-1.36-2.81A2.2,2.2,0,0,1,365.54,251.91Z" transform="translate(-14.14 -40.07)"/><path d="M137.91,251.91a2.2,2.2,0,1,0,1.36-2.81A2.19,2.19,0,0,0,137.91,251.91Z" transform="translate(-14.14 -40.07)"/><circle class="cls-2" cx="251.72" cy="97.94" r="43.4" transform="translate(-32.46 63.71) rotate(-22.5)"/><circle class="cls-3" cx="237.58" cy="53.59" r="33.71"/><circle class="cls-4" cx="237.58" cy="53.59" r="26.09"/><circle class="cls-5" cx="119.19" cy="164.47" r="43.4"/><circle class="cls-3" cx="133.33" cy="200.26" r="33.71" transform="translate(-80.63 26.2) rotate(-22.5)"/><circle class="cls-6" cx="119.19" cy="160.19" r="26.09"/><circle class="cls-7" cx="354.43" cy="164.47" r="43.4"/><circle class="cls-3" cx="368.57" cy="200.26" r="33.71" transform="translate(-47.79 279.2) rotate(-45)"/><circle class="cls-8" cx="354.43" cy="160.19" r="26.09"/><circle class="cls-9" cx="171.57" cy="128.33" r="43.4" transform="translate(-54.63 118.83) rotate(-45)"/><circle class="cls-3" cx="171.57" cy="124.05" r="33.71" transform="translate(-2.72 222.45) rotate(-76.72)"/><circle class="cls-10" cx="157.43" cy="83.98" r="26.09"/><circle class="cls-11" cx="317.04" cy="88.4" r="43.4"/><circle class="cls-3" cx="331.18" cy="124.19" r="33.71" transform="translate(-36.46 96.12) rotate(-22.5)"/><circle class="cls-12" cx="317.04" cy="84.12" r="26.09"/><text class="cls-13" transform="translate(170.75 160.19)">Italia Gypsum <tspan x="38.02" y="24">Offers</tspan></text><text class="cls-14" transform="translate(112.2 169.19)">1</text><text class="cls-14" transform="translate(151.02 92.87)">2</text><text class="cls-14" transform="translate(231.18 60.9)">3</text><text class="cls-14" transform="translate(309.22 91.74)">4</text><text class="cls-14" transform="translate(348.03 168.95)">5</text><path class="cls-6" d="M14.46,195.21h2.11l-.33,5.51v.21a3,3,0,0,0,.26,1.39,1.58,1.58,0,0,0,.77.67,3.05,3.05,0,0,0,1.17.21,3.35,3.35,0,0,0,.79-.09,2.35,2.35,0,0,0,.56-.23,1.72,1.72,0,0,0,.37-.28,2,2,0,0,0,.3-.46,2,2,0,0,0,.19-.58,15.56,15.56,0,0,0,.17-1.69L21,197.5c0-.7.06-1.46.08-2.29h2.14L23,198.5l-.13,2.62a7.39,7.39,0,0,1-.2,1.37,2.67,2.67,0,0,1-.3.69,2.52,2.52,0,0,1-.46.52,3.74,3.74,0,0,1-.8.5,4.48,4.48,0,0,1-1.09.35,8.75,8.75,0,0,1-1.63.15,7.61,7.61,0,0,1-1.62-.16,4.39,4.39,0,0,1-1.17-.42,3.16,3.16,0,0,1-.86-.64,2.25,2.25,0,0,1-.4-.72,3.29,3.29,0,0,1-.17-1.07c0-.13,0-.31,0-.53s0-.49,0-.83l.06-1c0-.3.05-.74.08-1.32l.07-1.49C14.43,196.15,14.44,195.7,14.46,195.21Z" transform="translate(-14.14 -40.07)"/><path class="cls-6" d="M24.42,204.54c.11-1,.19-2.2.26-3.49s.11-2.44.12-3.47l1,0,.94,0-.07,1.17a4.84,4.84,0,0,1,.37-.48,2.08,2.08,0,0,1,.41-.35,2.21,2.21,0,0,1,.53-.27,3.49,3.49,0,0,1,.64-.17,4.32,4.32,0,0,1,.73-.06,4.47,4.47,0,0,1,1.17.15,2.17,2.17,0,0,1,.9.49,1.64,1.64,0,0,1,.45.73,3.35,3.35,0,0,1,.11.85c0,.12,0,.32,0,.58l-.14,3c0,.42,0,.86,0,1.33l-.92,0-1.05,0c0-.4.08-1.09.14-2.08s.08-1.64.08-2a1.87,1.87,0,0,0-.17-.86,1.08,1.08,0,0,0-.53-.5,1.7,1.7,0,0,0-.77-.17,2,2,0,0,0-.77.15,1.73,1.73,0,0,0-.61.46,2.09,2.09,0,0,0-.43.76,7.58,7.58,0,0,0-.23,1.58c-.05.65-.08,1.52-.11,2.62l-1,0Z" transform="translate(-14.14 -40.07)"/><path class="cls-6" d="M33.44,204.54q.11-1.17.21-3.48c.07-1.54.1-2.7.1-3.48l1,0,.9,0-.05,1.11a3.64,3.64,0,0,1,.4-.53,2,2,0,0,1,.46-.37,2.84,2.84,0,0,1,.68-.27,3,3,0,0,1,.79-.1,2.91,2.91,0,0,1,.6.06,2.64,2.64,0,0,1,.52.16,1.44,1.44,0,0,1,.4.25,1.64,1.64,0,0,1,.29.3,3.26,3.26,0,0,1,.25.5,3,3,0,0,1,.28-.4,1.9,1.9,0,0,1,.81-.62,2.32,2.32,0,0,1,.58-.18,3,3,0,0,1,.67-.07,3.18,3.18,0,0,1,1.12.2,1.68,1.68,0,0,1,.83.61,1.75,1.75,0,0,1,.3,1c0,.22,0,.54,0,1s-.07,1.11-.12,2.07-.07,1.7-.07,2.23l-.89,0-1.06,0c0-.59.08-1.21.12-1.85l.08-1.56c0-.4,0-.74,0-1a1.48,1.48,0,0,0-.16-.74A.9.9,0,0,0,42,199a1.29,1.29,0,0,0-.53-.1,1.26,1.26,0,0,0-1,.49,2.11,2.11,0,0,0-.33.61,4,4,0,0,0-.17,1q-.06.63-.09,1.65l0,1.9-.94,0-1,0c0-.35.08-1.07.14-2.16s.09-1.81.09-2.19a2.44,2.44,0,0,0-.05-.51,1,1,0,0,0-.2-.4.89.89,0,0,0-.34-.27,1.11,1.11,0,0,0-.46-.09,1.23,1.23,0,0,0-.84.31,1.81,1.81,0,0,0-.53.84,9.87,9.87,0,0,0-.24,2.05c0,1-.07,1.82-.07,2.42l-.95,0Z" transform="translate(-14.14 -40.07)"/><path class="cls-6" d="M46.47,199.11q.09-.5.12-.69c0-.13,0-.33.08-.6a15.26,15.26,0,0,1,1.64-.31,11.14,11.14,0,0,1,1.38-.09,5,5,0,0,1,1.38.18,2,2,0,0,1,1,.55,1.55,1.55,0,0,1,.36,1.1c0,.26,0,.92-.11,2s-.12,2.16-.13,3.3l-1,0-1,0q.09-.82.15-1.92l.09-1.7a3.74,3.74,0,0,1-.4.24,1.81,1.81,0,0,1-.31.13l-.6.17-.69.21a4.15,4.15,0,0,0-.47.2,1.59,1.59,0,0,0-.35.26.79.79,0,0,0-.21.29.88.88,0,0,0-.06.33.79.79,0,0,0,.16.5,1,1,0,0,0,.42.29,2.13,2.13,0,0,0,.6.08l.46,0a4.89,4.89,0,0,0,.65-.17c-.09.26-.2.64-.33,1.16-.33,0-.58.09-.77.1l-.54,0a3.78,3.78,0,0,1-1.41-.23,1.61,1.61,0,0,1-.82-.74,2.27,2.27,0,0,1-.26-1,1.69,1.69,0,0,1,.1-.58,1.86,1.86,0,0,1,.3-.53,2.93,2.93,0,0,1,.51-.46,4.34,4.34,0,0,1,.91-.43,13.71,13.71,0,0,1,1.58-.42c.17,0,.35-.08.54-.13a3.76,3.76,0,0,0,.45-.16.91.91,0,0,0,.29-.19.83.83,0,0,0,.18-.25.66.66,0,0,0,.06-.27.64.64,0,0,0-.18-.45.87.87,0,0,0-.45-.25,2.31,2.31,0,0,0-.61-.08A7.48,7.48,0,0,0,46.47,199.11Z" transform="translate(-14.14 -40.07)"/><path class="cls-6" d="M58.14,203.11c0,.25-.14.71-.26,1.39-.38.09-.68.14-.9.17l-.61,0a4.19,4.19,0,0,1-.91-.09,1.48,1.48,0,0,1-.66-.34,1.22,1.22,0,0,1-.35-.57,2.52,2.52,0,0,1-.09-.67v-.24c0-.1,0-.43.06-1l.15-2.85h-1q0-.41.06-1.32h1c0-.26.06-.71.08-1.34l.81-.16,1-.23c0,.62,0,1.2-.06,1.73h1.74c0,.62,0,1.06,0,1.32H56.44c-.1,1.86-.14,2.93-.14,3.22a1.94,1.94,0,0,0,.09.66.58.58,0,0,0,.3.33.92.92,0,0,0,.43.11,2.19,2.19,0,0,0,.36,0Z" transform="translate(-14.14 -40.07)"/><path class="cls-6" d="M64.53,203c0,.18-.06.4-.1.63s-.1.53-.15.89a8.53,8.53,0,0,1-1.93.22,5.22,5.22,0,0,1-1.06-.1,3,3,0,0,1-1-.37,2.64,2.64,0,0,1-.77-.69,2.88,2.88,0,0,1-.5-1,4.45,4.45,0,0,1-.17-1.26,4.86,4.86,0,0,1,.28-1.66,3,3,0,0,1,.81-1.29,2.75,2.75,0,0,1,1.18-.69,5.48,5.48,0,0,1,1.45-.18c.3,0,.61,0,.92.05a11,11,0,0,1,1.11.21l.11,1.5a5.68,5.68,0,0,0-1.78-.35,2.28,2.28,0,0,0-.87.16,1.68,1.68,0,0,0-.71.49,2.13,2.13,0,0,0-.43.78,3.5,3.5,0,0,0-.12.91,2.78,2.78,0,0,0,.2,1.13,1.4,1.4,0,0,0,.69.73,2.29,2.29,0,0,0,1.12.26,3.83,3.83,0,0,0,.75-.08A5.4,5.4,0,0,0,64.53,203Z" transform="translate(-14.14 -40.07)"/><path class="cls-6" d="M65.92,204.54l.17-2.22.16-3.18.09-3.93h2l-.13,1.62c0,.4-.06,1-.11,1.94a3.79,3.79,0,0,1,.37-.49,2.42,2.42,0,0,1,.33-.31,2.06,2.06,0,0,1,.37-.23,2.34,2.34,0,0,1,.45-.18,4.12,4.12,0,0,1,.57-.11,4.49,4.49,0,0,1,.64,0,4.34,4.34,0,0,1,1.09.13,2.22,2.22,0,0,1,.9.43,1.53,1.53,0,0,1,.52.73,2.46,2.46,0,0,1,.14.86c0,.2,0,.5,0,.92l-.17,3c0,.31,0,.67,0,1.08l-1,0-1.05,0c.06-.54.13-1.27.19-2.2s.09-1.59.09-2a1.64,1.64,0,0,0-.18-.84,1,1,0,0,0-.51-.45,1.78,1.78,0,0,0-.74-.15,2,2,0,0,0-.91.19,1.49,1.49,0,0,0-.64.53,2.78,2.78,0,0,0-.36.84,10.31,10.31,0,0,0-.22,1.78c0,.38,0,1.15-.07,2.29l-.93,0Z" transform="translate(-14.14 -40.07)"/><path class="cls-6" d="M81.13,203c-.06.26-.14.75-.25,1.44-.49.11-.91.18-1.24.22s-.68,0-1,0a6.61,6.61,0,0,1-1.61-.18,2.8,2.8,0,0,1-1.24-.65,2.91,2.91,0,0,1-.78-1.16,4.18,4.18,0,0,1-.26-1.45,4.57,4.57,0,0,1,.3-1.63,3.25,3.25,0,0,1,.82-1.29,3,3,0,0,1,1.21-.71,4.72,4.72,0,0,1,1.41-.21,5.21,5.21,0,0,1,1.33.17,2.54,2.54,0,0,1,1.06.58,2.64,2.64,0,0,1,.65,1,3.25,3.25,0,0,1,.23,1.23,3.11,3.11,0,0,1-.07.67h-5c0,.17,0,.31,0,.41a2.13,2.13,0,0,0,.16.84,1.73,1.73,0,0,0,.45.65,1.93,1.93,0,0,0,.72.39,3,3,0,0,0,.82.13,5.38,5.38,0,0,0,1-.11A9.47,9.47,0,0,0,81.13,203Zm-4.41-2.77h3.2c0-.22,0-.38,0-.48a2,2,0,0,0-.1-.36,1.31,1.31,0,0,0-.19-.35,1,1,0,0,0-.29-.26,1.45,1.45,0,0,0-.38-.16,2.24,2.24,0,0,0-.46-.05,1.77,1.77,0,0,0-.56.09,1.54,1.54,0,0,0-.49.26,1.48,1.48,0,0,0-.37.38,2.21,2.21,0,0,0-.21.4A4.88,4.88,0,0,0,76.72,200.22Z" transform="translate(-14.14 -40.07)"/><path class="cls-6" d="M89.84,204.54l-.88,0-.94,0,.06-1.19a6.23,6.23,0,0,1-.52.6,2.51,2.51,0,0,1-.53.39,2.61,2.61,0,0,1-.69.27,3.3,3.3,0,0,1-2-.15,2.76,2.76,0,0,1-1-.67,2.72,2.72,0,0,1-.6-1,4.35,4.35,0,0,1-.19-1.25,4.82,4.82,0,0,1,.34-1.75,3.72,3.72,0,0,1,.94-1.38,3.46,3.46,0,0,1,1.34-.74,5.66,5.66,0,0,1,1.62-.22,9.34,9.34,0,0,1,1.4.12c0-.6,0-1.22,0-1.87v-.46h2c-.1,1.15-.2,2.73-.28,4.72S89.84,203.46,89.84,204.54Zm-1.69-5.7a3.86,3.86,0,0,0-1-.14,3.47,3.47,0,0,0-1,.15,2.24,2.24,0,0,0-.88.51,2.42,2.42,0,0,0-.58.93,3.17,3.17,0,0,0-.2,1.1,2.49,2.49,0,0,0,.18,1,1.52,1.52,0,0,0,.59.69,1.59,1.59,0,0,0,.89.25,1.73,1.73,0,0,0,.69-.13,1.79,1.79,0,0,0,.56-.41,2.23,2.23,0,0,0,.42-.71,4.38,4.38,0,0,0,.25-1.17C88.1,200.52,88.13,199.84,88.15,198.84Z" transform="translate(-14.14 -40.07)"/><path class="cls-6" d="M39,213.75c-.06.28-.11.55-.16.82l-.13.75c-.8.12-1.66.21-2.57.28s-1.71.1-2.35.1a8.52,8.52,0,0,1-2.13-.25,4.53,4.53,0,0,1-1.79-.87,4,4,0,0,1-1.2-1.5,4.58,4.58,0,0,1-.41-2,5.26,5.26,0,0,1,.4-2.09,4.43,4.43,0,0,1,1.17-1.62,4.83,4.83,0,0,1,1.79-1,7.35,7.35,0,0,1,2.17-.32,6.62,6.62,0,0,1,2,.3,4.47,4.47,0,0,1,1.64.92,4.19,4.19,0,0,1,1.06,1.5,4.59,4.59,0,0,1,.37,1.82,4.91,4.91,0,0,1-.09.94,5.19,5.19,0,0,1-.28.87,3.37,3.37,0,0,1-.4.73,4.07,4.07,0,0,1-.46.53c-.16.15-.35.32-.57.5.44-.05.75-.1.93-.13S38.54,213.89,39,213.75Zm-5.31-6.25a3.49,3.49,0,0,0-1.79.47,3,3,0,0,0-1.22,1.29A3.9,3.9,0,0,0,30.3,211a3.41,3.41,0,0,0,.42,1.75,2.75,2.75,0,0,0,1.15,1.09,3.69,3.69,0,0,0,3.34-.06,2.8,2.8,0,0,0,1.19-1.24,4.11,4.11,0,0,0,.4-1.81,4,4,0,0,0-.21-1.32,3.2,3.2,0,0,0-.61-1,2.71,2.71,0,0,0-1-.65A3.51,3.51,0,0,0,33.72,207.5Z" transform="translate(-14.14 -40.07)"/><path class="cls-6" d="M47.27,215.54l-.92,0-.92,0V214.4a4.75,4.75,0,0,1-.33.46,2.19,2.19,0,0,1-.38.35,1.83,1.83,0,0,1-.5.26,4.05,4.05,0,0,1-.63.17,4.38,4.38,0,0,1-.75.06,3.6,3.6,0,0,1-1.33-.22,2,2,0,0,1-.9-.67,2.21,2.21,0,0,1-.33-1.3v-.14l.11-1.76.11-2.33v-.7l1,0,.94,0-.23,3.12c0,.24,0,.45,0,.61s0,.29,0,.36a2,2,0,0,0,.15.82,1,1,0,0,0,.51.5,1.92,1.92,0,0,0,.78.17,1.94,1.94,0,0,0,.76-.15,1.5,1.5,0,0,0,.54-.39,1.75,1.75,0,0,0,.39-.66,3.36,3.36,0,0,0,.18-.83c0-.26.06-.69.09-1.3s.06-1.48.08-2.25l1,0,.91,0c-.06.66-.11,1.47-.17,2.45s-.1,1.78-.12,2.42S47.29,214.78,47.27,215.54Z" transform="translate(-14.14 -40.07)"/><path class="cls-6" d="M49.49,210.11a6.26,6.26,0,0,0,.12-.69l.09-.6a14.81,14.81,0,0,1,1.64-.31,10.86,10.86,0,0,1,1.37-.09,5,5,0,0,1,1.38.18,2.07,2.07,0,0,1,1,.55,1.6,1.6,0,0,1,.35,1.1c0,.26,0,.92-.11,2s-.11,2.16-.13,3.3l-.95,0-1,0c.06-.55.11-1.19.14-1.92l.09-1.7a3.84,3.84,0,0,1-.39.24,2.22,2.22,0,0,1-.31.13l-.6.17-.69.21a3.49,3.49,0,0,0-.47.2,1.66,1.66,0,0,0-.36.26.89.89,0,0,0-.2.29.72.72,0,0,0-.07.33.8.8,0,0,0,.17.5.89.89,0,0,0,.42.29,2.1,2.1,0,0,0,.59.08l.47,0a5.32,5.32,0,0,0,.65-.17,10.71,10.71,0,0,0-.34,1.16c-.32,0-.58.09-.77.1l-.53,0a3.8,3.8,0,0,1-1.42-.23,1.55,1.55,0,0,1-.81-.74,2.16,2.16,0,0,1-.27-1,1.7,1.7,0,0,1,.11-.58,1.48,1.48,0,0,1,.3-.53,2.93,2.93,0,0,1,.51-.46,4.11,4.11,0,0,1,.91-.43,13.47,13.47,0,0,1,1.57-.42,5.29,5.29,0,0,0,.54-.13A2.8,2.8,0,0,0,53,211a.81.81,0,0,0,.29-.19.83.83,0,0,0,.18-.25.66.66,0,0,0,.06-.27.68.68,0,0,0-.17-.45.9.9,0,0,0-.46-.25,2.25,2.25,0,0,0-.61-.08A7.52,7.52,0,0,0,49.49,210.11Z" transform="translate(-14.14 -40.07)"/><path class="cls-6" d="M56.91,215.54c.07-.77.15-2.16.25-4.16s.15-3.72.18-5.17h2l-.17,2.49-.24,5.57,0,1.27-.95,0Z" transform="translate(-14.14 -40.07)"/><path class="cls-6" d="M60.61,215.54c.07-.69.12-1.26.15-1.72q.08-1.09.12-2.52c0-1,.06-1.86.07-2.72l1,0,1,0c-.07.8-.12,1.55-.15,2.27s-.07,1.55-.09,2.48,0,1.67,0,2.21l-1,0ZM61,207.4q0-.71,0-1.08v-.22h2q0,.17,0,.39l0,.91-1,0Z" transform="translate(-14.14 -40.07)"/><path class="cls-6" d="M68.61,214.11c0,.25-.14.71-.26,1.39-.38.09-.68.14-.9.17l-.62,0a4.16,4.16,0,0,1-.9-.09,1.48,1.48,0,0,1-.66-.34,1.22,1.22,0,0,1-.35-.57,2.52,2.52,0,0,1-.09-.67v-.24c0-.1,0-.43.06-1L65,210h-1q0-.41.06-1.32h1c0-.26.06-.71.08-1.34l.81-.16,1-.23c0,.62,0,1.2-.06,1.73H68.7c0,.62,0,1.06,0,1.32H66.91c-.1,1.86-.14,2.93-.14,3.22a1.94,1.94,0,0,0,.09.66.58.58,0,0,0,.3.33.92.92,0,0,0,.43.11,2.19,2.19,0,0,0,.36,0Z" transform="translate(-14.14 -40.07)"/><path class="cls-6" d="M68.69,218.67c-.08-.68-.14-1.17-.19-1.47a3,3,0,0,0,1.23.31,1.64,1.64,0,0,0,.37,0,1.4,1.4,0,0,0,.34-.13.69.69,0,0,0,.21-.15,3.85,3.85,0,0,0,.29-.38,5.09,5.09,0,0,0,.32-.54,4.29,4.29,0,0,0,.22-.57l-1.42-4.16-1-2.95,1,0,1,0q.15.57.27,1l.65,2.15c.2.66.35,1.15.43,1.49s.12.5.19.87q.21-.63.36-1c.18-.47.42-1.1.74-1.9l.67-1.63.36-.95.93,0,1,0L74,214.48l-1.14,2.6a4.74,4.74,0,0,1-.46.79,2.19,2.19,0,0,1-.39.41,2,2,0,0,1-.44.27,3.12,3.12,0,0,1-.63.22,3.53,3.53,0,0,1-.79.08,5.83,5.83,0,0,1-.63,0A5.22,5.22,0,0,1,68.69,218.67Z" transform="translate(-14.14 -40.07)"/><text class="cls-15" transform="translate(22.05 81.1)">Green Product</text><text class="cls-16" transform="translate(193.67 11.67)">DIFOT Experts</text><text class="cls-17" transform="translate(358.69 78.44)">Step by Step<tspan x="8.81" y="11">Guidance</tspan></text><text class="cls-18" transform="translate(422.73 163.64)">Wide<tspan x="-31.56" y="11">Customer Base</tspan></text></g></g></svg>