<svg id="Layer_1" data-name="Layer 1" xmlns="http://www.w3.org/2000/svg" xmlns:xlink="http://www.w3.org/1999/xlink" viewBox="0 0 282.51 152.2"><defs><style>.cls-1{fill:url(#linear-gradient);}.cls-2{fill:url(#linear-gradient-2);}.cls-3{fill:url(#linear-gradient-3);}</style><linearGradient id="linear-gradient" x1="190.76" y1="76.01" x2="282.51" y2="76.01" gradientUnits="userSpaceOnUse"><stop offset="0" stop-color="#bd1e2d"/><stop offset="0.16" stop-color="#cd1d2a"/><stop offset="0.41" stop-color="#de1d27"/><stop offset="0.68" stop-color="#e91c25"/><stop offset="1" stop-color="#ec1c24"/></linearGradient><linearGradient id="linear-gradient-2" x1="98.56" y1="76.1" x2="190.8" y2="76.1" gradientUnits="userSpaceOnUse"><stop offset="0" stop-color="#929497"/><stop offset="0.03" stop-color="#999b9e"/><stop offset="0.2" stop-color="#b8babc"/><stop offset="0.38" stop-color="#d1d2d3"/><stop offset="0.56" stop-color="#e2e3e4"/><stop offset="0.76" stop-color="#edeeee"/><stop offset="1" stop-color="#f0f1f1"/></linearGradient><linearGradient id="linear-gradient-3" y1="74.18" x2="85.39" y2="74.18" gradientUnits="userSpaceOnUse"><stop offset="0" stop-color="#006838"/><stop offset="0.04" stop-color="#006d3a"/><stop offset="0.25" stop-color="#008644"/><stop offset="0.48" stop-color="#00974b"/><stop offset="0.72" stop-color="#00a250"/><stop offset="1" stop-color="#00a551"/></linearGradient></defs><polygon class="cls-1" points="282.51 0 190.76 52.9 190.76 152.03 282.43 99.1 282.43 0.1 282.51 0.11 282.51 0"/><polygon class="cls-2" points="190.64 53.04 98.7 0 98.56 0.13 98.56 99.09 190.54 152.12 190.66 152.2 190.74 152.18 190.8 152.2 190.72 152.12 190.76 152.03 190.76 52.9 190.64 53.04"/><polygon class="cls-3" points="85.39 0 0 49.23 0 148.36 85.31 99.1 85.31 0.1 85.39 0.11 85.39 0"/></svg>