<?xml version="1.0" encoding="utf-8"?>
<!-- Generator: Adobe Illustrator 25.0.0, SVG Export Plug-In . SVG Version: 6.00 Build 0)  -->
<svg version="1.1" id="Layer_1" xmlns="http://www.w3.org/2000/svg" xmlns:xlink="http://www.w3.org/1999/xlink" x="0px" y="0px"
	 viewBox="0 0 88.4 88.4" style="enable-background:new 0 0 88.4 88.4;" xml:space="preserve">
<style type="text/css">
	.st0{fill:#00156D;}
</style>
<path class="st0" d="M44.2,88.4C19.8,88.4,0,68.6,0,44.2S19.8,0,44.2,0s44.2,19.8,44.2,44.2l0,0C88.4,68.6,68.6,88.4,44.2,88.4z
	 M44.2,2C20.9,2,2,20.9,2,44.2s18.9,42.2,42.2,42.2s42.2-18.9,42.2-42.2l0,0C86.4,20.9,67.5,2,44.2,2z"/>
<g>
	<path class="st0" d="M26,56.8c-1.6,0-2.8,1.3-2.8,2.8c0,1.6,1.3,2.8,2.8,2.8s2.8-1.3,2.8-2.8C28.8,58.1,27.5,56.8,26,56.8z
		 M26,60.9c-0.7,0-1.2-0.5-1.2-1.2s0.5-1.2,1.2-1.2s1.2,0.5,1.2,1.2C27.2,60.3,26.6,60.9,26,60.9z M62.5,56.8
		c-1.6,0-2.8,1.3-2.8,2.8c0,1.6,1.3,2.8,2.8,2.8c1.6,0,2.8-1.3,2.8-2.8C65.3,58.1,64,56.8,62.5,56.8z M62.5,60.9
		c-0.7,0-1.2-0.5-1.2-1.2s0.5-1.2,1.2-1.2s1.2,0.5,1.2,1.2C63.7,60.3,63.1,60.9,62.5,60.9z M52.3,60.9c-1.6,0-2.8,1.3-2.8,2.8
		c0,1.6,1.3,2.8,2.8,2.8c1.6,0,2.8-1.3,2.8-2.8l0,0C55.2,62.2,53.9,60.9,52.3,60.9z M52.3,65c-0.7,0-1.2-0.5-1.2-1.2
		c0-0.7,0.5-1.2,1.2-1.2c0.7,0,1.2,0.5,1.2,1.2C53.5,64.4,53,65,52.3,65z M36.1,60.9c-1.6,0-2.8,1.3-2.8,2.8c0,1.6,1.3,2.8,2.8,2.8
		s2.8-1.3,2.8-2.8l0,0C38.9,62.2,37.7,60.9,36.1,60.9z M36.1,65c-0.7,0-1.2-0.5-1.2-1.2c0-0.7,0.5-1.2,1.2-1.2s1.2,0.5,1.2,1.2
		C37.3,64.4,36.8,65,36.1,65z M39.3,53.5c-1.6,0-2.8,1.3-2.8,2.8c0,1.6,1.3,2.8,2.8,2.8c1.6,0,2.8-1.3,2.8-2.8
		C42.2,54.8,40.9,53.5,39.3,53.5z M39.3,57.6c-0.7,0-1.2-0.5-1.2-1.2c0-0.7,0.5-1.2,1.2-1.2c0.7,0,1.2,0.5,1.2,1.2
		C40.6,57,40,57.6,39.3,57.6z M51.9,56.4c0-1.6-1.3-2.8-2.8-2.8c-1.6,0-2.8,1.3-2.8,2.8c0,1.6,1.3,2.8,2.8,2.8
		C50.7,59.2,51.9,57.9,51.9,56.4z M49.1,57.6c-0.7,0-1.2-0.5-1.2-1.2c0-0.7,0.5-1.2,1.2-1.2s1.2,0.5,1.2,1.2
		C50.3,57,49.8,57.6,49.1,57.6z"/>
	<circle class="st0" cx="24.7" cy="54" r="1.2"/>
	<circle class="st0" cx="29.6" cy="64.6" r="1.2"/>
	<circle class="st0" cx="63.7" cy="54" r="1.2"/>
	<circle class="st0" cx="58.8" cy="64.6" r="1.2"/>
	<circle class="st0" cx="44.2" cy="64.2" r="1.2"/>
	<path class="st0" d="M54,43.7H34.5c-0.4,0-0.8,0.4-0.8,0.8s0.4,0.8,0.8,0.8H54c0.4,0,0.8-0.4,0.8-0.8S54.4,43.7,54,43.7z
		 M59.6,44.5c0,0.4,0.4,0.8,0.8,0.8h5.7c0.4,0,0.8-0.4,0.8-0.8s-0.4-0.8-0.8-0.8h-5.7C60,43.7,59.6,44,59.6,44.5z M22.3,45.3H28
		c0.4,0,0.8-0.4,0.8-0.8s-0.4-0.8-0.8-0.8h-5.7c-0.4,0-0.8,0.4-0.8,0.8S21.9,45.3,22.3,45.3z M51.5,47.7c-1.4,0-2.7,0.3-4,0.9
		c-1,0.5-2.2,0.8-3.3,0.7c-1.2,0-2.3-0.2-3.3-0.7c-1.2-0.8-4.8-1.2-6.7-0.5c-0.4,0.1-0.6,0.6-0.5,1c0.1,0.4,0.6,0.6,1,0.5
		c0.7-0.2,1.4-0.3,2.2-0.3c3.5,0,3.5,1.6,7.3,1.6c3.8,0,3.8-1.6,7.3-1.6c0.7,0,1.5,0.1,2.2,0.3c0.4,0.1,0.9-0.1,1-0.5
		C55,47.7,52.6,47.8,51.5,47.7L51.5,47.7z M66.1,47.7c-3,0-3.5,1-5.8,1.5c-0.4,0.1-0.7,0.5-0.6,1c0.1,0.4,0.4,0.6,0.8,0.7
		c2.4-0.4,2.9-1.5,5.7-1.5c0.4,0,0.8-0.4,0.8-0.8C66.9,48.1,66.6,47.7,66.1,47.7L66.1,47.7z M28.1,49.2c-2.3-0.5-2.8-1.5-5.8-1.5
		c-0.4,0-0.8,0.4-0.8,0.8c0,0.4,0.4,0.8,0.8,0.8c2.8,0,3.3,1.1,5.7,1.5c0.4,0,0.8-0.4,0.8-0.8C28.8,49.6,28.5,49.3,28.1,49.2z
		 M44.2,37.9c3.1,0,5.7-2.5,5.7-5.7c0-2.9-4.5-9.3-5-10c-0.3-0.4-0.8-0.4-1.2-0.1c-0.1,0-0.1,0.1-0.1,0.1c-0.5,0.7-5,7.2-5,10
		C38.5,35.3,41.1,37.9,44.2,37.9z M44.2,24.1c1.8,2.7,4.1,6.6,4.1,8.1c0,2.2-1.8,4.1-4.1,4.1s-4.1-1.8-4.1-4.1
		C40.2,30.6,42.4,26.7,44.2,24.1z M57.2,41.1c2.2,0,4.1-1.8,4.1-4.1c0-2-2.8-6-3.4-6.8c-0.3-0.4-0.8-0.4-1.2-0.1
		c-0.1,0-0.1,0.1-0.1,0.1c-0.6,0.8-3.4,4.9-3.4,6.8C53.1,39.3,55,41.1,57.2,41.1L57.2,41.1z M57.2,32.1c1.2,1.8,2.4,4,2.4,4.9
		c0,1.3-1.1,2.4-2.4,2.4c-1.3,0-2.4-1.1-2.4-2.4C54.8,36.2,56,33.9,57.2,32.1z M31.2,41.1c2.2,0,4.1-1.8,4.1-4.1c0-2-2.8-6-3.4-6.8
		c-0.3-0.4-0.8-0.4-1.2-0.1c-0.1,0-0.1,0.1-0.1,0.1c-0.6,0.8-3.4,4.9-3.4,6.8C27.2,39.3,29,41.1,31.2,41.1z M31.2,32.1
		c1.2,1.8,2.4,4,2.4,4.9c0,1.3-1.1,2.4-2.4,2.4s-2.4-1.1-2.4-2.4C28.8,36.2,30.1,33.9,31.2,32.1z M33.8,53c-0.3-0.3-0.8-0.3-1.1,0
		L32,53.6v-9.1c0-0.4-0.4-0.8-0.8-0.8s-0.8,0.4-0.8,0.8v9.1L29.8,53c-0.3-0.3-0.8-0.3-1.1,0c-0.3,0.3-0.3,0.8,0,1.1l2,2
		c0.3,0.3,0.8,0.3,1.1,0l2-2C34.1,53.8,34.1,53.3,33.8,53z M59.8,54.1c0.3-0.3,0.3-0.8,0-1.1c-0.3-0.3-0.8-0.3-1.1,0L58,53.6v-9.1
		c0-0.4-0.4-0.8-0.8-0.8s-0.8,0.4-0.8,0.8v9.1L55.7,53c-0.3-0.3-0.8-0.3-1.1,0c-0.3,0.3-0.3,0.8,0,1.1l2,2c0.3,0.3,0.8,0.3,1.1,0
		L59.8,54.1z"/>
</g>
</svg>
