<svg id="Layer_1" data-name="Layer 1" xmlns="http://www.w3.org/2000/svg" viewBox="0 0 88.43 88.43"><defs><style>.cls-1{fill:#00156d;}</style></defs><path class="cls-1" d="M50,94.21A44.21,44.21,0,1,1,94.21,50,44.26,44.26,0,0,1,50,94.21ZM50,7.79A42.21,42.21,0,1,0,92.21,50,42.25,42.25,0,0,0,50,7.79Z" transform="translate(-5.79 -5.79)"/><path class="cls-1" d="M72.7,48.4,56.76,32.51,61,28.33a2,2,0,0,0-2.77-2.76L34.62,49.11a7.83,7.83,0,0,0-5.72,7.53,2,2,0,0,0,3.91,0,3.92,3.92,0,0,1,2.13-3.48L51.46,69.63a7.83,7.83,0,0,0,11,0l10.2-10.18a7.82,7.82,0,0,0,0-11.05ZM70,56.69,59.75,66.86a3.92,3.92,0,0,1-5.53,0L40.05,52.73H61.71a2,2,0,1,0,0-3.9H40.43L54,35.28,69.94,51.17a3.85,3.85,0,0,1,1.15,2.76A3.91,3.91,0,0,1,70,56.69ZM34.29,64c-1-1.48-2-2.68-2-2.73A2,2,0,0,0,29.53,61a1.72,1.72,0,0,0-.27.27c0,.05-1,1.25-2,2.73-2,3-2.23,4.43-2.23,5.25a5.76,5.76,0,0,0,11.52,0c0-.82-.23-2.26-2.24-5.25Zm-3.52,7.1a1.85,1.85,0,0,1-1.86-1.85s.05-.8,1.59-3.1l.27-.39.26.39c1.51,2.26,1.59,3.07,1.59,3.1A1.85,1.85,0,0,1,30.77,71.09Z" transform="translate(-5.79 -5.79)"/></svg>