<svg id="Layer_1" data-name="Layer 1" xmlns="http://www.w3.org/2000/svg" viewBox="0 0 88.43 88.43"><defs><style>.cls-1{fill:#00156d;}</style></defs><path class="cls-1" d="M64.71,35.29a28.45,28.45,0,0,0-20.27-8.4H30.07a.87.87,0,1,0,0,1.74H44.44A27,27,0,0,1,71.37,55.56V78.73a.87.87,0,0,0,1.74,0h0V55.56a28.45,28.45,0,0,0-8.4-20.27Zm-38.85-8.4H21.27a.87.87,0,1,0,0,1.74h4.59a.87.87,0,1,0,0-1.74Z" transform="translate(-5.79 -5.79)"/><path class="cls-1" d="M44.44,45.89a.87.87,0,0,0-.87.87v.46a.87.87,0,1,0,1.74,0h0v-.46a.87.87,0,0,0-.87-.87Zm0-4.45a.87.87,0,0,0-.87.87v1.11a.87.87,0,1,0,1.74,0h0V42.31A.87.87,0,0,0,44.44,41.44Zm0-4.45a.87.87,0,0,0-.87.87V39a.87.87,0,1,0,1.74,0h0V37.86A.87.87,0,0,0,44.44,37Zm0-4.45a.87.87,0,0,0-.87.87v1.11a.87.87,0,0,0,1.74,0h0V33.41A.87.87,0,0,0,44.44,32.54Zm0-3.8a.87.87,0,0,0-.87.87v.46a.87.87,0,0,0,1.74,0h0v-.46a.87.87,0,0,0-.87-.87Zm26,26h-.46a.87.87,0,1,0,0,1.74h.46a.87.87,0,0,0,0-1.74Zm-3.8,0H65.48a.87.87,0,1,0,0,1.74h1.11a.87.87,0,0,0,0-1.74Zm-8.9,0H56.58a.87.87,0,0,0,0,1.74h1.11a.87.87,0,1,0,0-1.74Zm4.45,0H61a.87.87,0,1,0,0,1.74h1.11a.87.87,0,1,0,0-1.74Zm-8.9,0h-.46a.87.87,0,1,0,0,1.74h.46a.87.87,0,1,0,0-1.74ZM44.44,20.4a.87.87,0,0,0-.87.87v2.84H40.73a.87.87,0,1,0,0,1.74h3.71a.87.87,0,0,0,.87-.87V21.27A.87.87,0,0,0,44.44,20.4ZM78.73,54.69H75a.87.87,0,0,0-.87.87h0v3.71a.87.87,0,0,0,1.74,0h0V56.43h2.84a.87.87,0,1,0,0-1.74Zm-29.66,0H47A2.74,2.74,0,0,0,45.31,53v-2a.87.87,0,1,0-1.74,0h0v2a2.72,2.72,0,0,0-1.71,1.71H39.8a.87.87,0,0,0,0,1.74h2.06a2.72,2.72,0,0,0,1.71,1.71v2a.87.87,0,0,0,1.74,0h0v-2A2.74,2.74,0,0,0,47,56.43h2a.87.87,0,1,0,0-1.74Zm-4.63,1.86a1,1,0,1,1,0-2,1,1,0,0,1,0,2Z" transform="translate(-5.79 -5.79)"/><path class="cls-1" d="M50,94.21A44.21,44.21,0,1,1,94.21,50,44.26,44.26,0,0,1,50,94.21ZM50,7.79A42.21,42.21,0,1,0,92.21,50,42.25,42.25,0,0,0,50,7.79Z" transform="translate(-5.79 -5.79)"/></svg>