<svg id="Layer_1" data-name="Layer 1" xmlns="http://www.w3.org/2000/svg" viewBox="0 0 89.62 89.62"><defs><style>.cls-1{fill:#00156d;}.cls-2{fill:none;stroke:#00156d;stroke-miterlimit:10;stroke-width:2px;}</style></defs><path class="cls-1" d="M23.62,42.31a1,1,0,0,1-1.05-1.05h0a8.47,8.47,0,0,1,.53-2.93,1,1,0,1,1,2,.72,6.52,6.52,0,0,0-.39,2.21,1.05,1.05,0,0,1-1.06,1.06Zm3.82-7a1,1,0,0,1-.82-.39,1,1,0,0,1,.16-1.48h0A18.08,18.08,0,0,1,32,30.59a1.06,1.06,0,1,1,.71,2,16.37,16.37,0,0,0-4.61,2.5A1,1,0,0,1,27.44,35.31Zm10.38-3.9a1.05,1.05,0,0,1-.11-2.1c.91-.09,1.83-.14,2.74-.14a1,1,0,0,1,1,1h0a1.06,1.06,0,0,1-1,1.06h0c-.84,0-1.69,0-2.52.12Z" transform="translate(-5.19 -5.19)"/><path class="cls-1" d="M40.45,53.34c-9.86,0-17.88-5.42-17.88-12.09h2.11c0,5.51,7.07,10,15.77,10s15.77-4.47,15.77-10-7.07-10-15.77-10V29.17c9.86,0,17.88,5.42,17.88,12.08s-8,12.09-17.88,12.09Z" transform="translate(-5.19 -5.19)"/><path class="cls-1" d="M40.45,47c-4.63,0-8.26-2.54-8.26-5.78s3.63-5.77,8.26-5.77,8.26,2.54,8.26,5.77S45.08,47,40.45,47Zm0-9.45c-3.33,0-6.15,1.68-6.15,3.67s2.82,3.67,6.15,3.67,6.15-1.68,6.15-3.67S43.79,37.58,40.45,37.58Z" transform="translate(-5.19 -5.19)"/><path class="cls-1" d="M76.38,70.83H40.45c-9.86,0-17.88-5.42-17.88-12.08V41.25a1,1,0,0,1,1.05-1h0a1.05,1.05,0,0,1,1.06,1h0v17.5c0,5.5,7.07,10,15.77,10H75.32V53.34H40.45a1,1,0,0,1-1.05-1.05h0a1.05,1.05,0,0,1,1.05-1.06H76.38a1,1,0,0,1,1.05,1.05h0V69.78a1,1,0,0,1-1.05,1Z" transform="translate(-5.19 -5.19)"/><path class="cls-1" d="M69.52,70.83a1,1,0,0,1-1-1h0V65.6a1,1,0,0,1,1-1h0a1,1,0,0,1,1,1h0v4.18a1,1,0,0,1-1,1ZM58,70.83a1,1,0,0,1-1.05-1h0V65.6a1,1,0,0,1,2.1,0v4.18a1,1,0,0,1-1,1Zm-11.53,0a1,1,0,0,1-1.05-1h0V65.6a1.06,1.06,0,0,1,2.11,0v4.18a1.06,1.06,0,0,1-1.06,1Zm-11.52-.61a1.05,1.05,0,0,1-1.06-1h0V65A1.06,1.06,0,0,1,36,65v4.2a1,1,0,0,1-1.05,1Zm21.28-29h2.11v11H56.22Z" transform="translate(-5.19 -5.19)"/><circle class="cls-2" cx="44.81" cy="44.81" r="43.81"/></svg>