<svg id="Layer_1" data-name="Layer 1" xmlns="http://www.w3.org/2000/svg" viewBox="0 0 88.43 88.43"><defs><style>.cls-1{fill:#00156d;}</style></defs><path class="cls-1" d="M50,94.21A44.21,44.21,0,1,1,94.21,50,44.26,44.26,0,0,1,50,94.21ZM50,7.79A42.21,42.21,0,1,0,92.21,50,42.25,42.25,0,0,0,50,7.79Z" transform="translate(-5.79 -5.79)"/><path class="cls-1" d="M41.42,60.71H31.65a.89.89,0,0,1,0-1.78h9.77a.89.89,0,0,1,0,1.78ZM60.07,46.5a.89.89,0,0,1-.89-.89V26.42a.34.34,0,0,0-.34-.34H36.43a.35.35,0,0,0-.34.34V38.51a.89.89,0,1,1-1.77,0V26.42a2.12,2.12,0,0,1,2.11-2.12H58.84A2.12,2.12,0,0,1,61,26.42V45.61A.89.89,0,0,1,60.07,46.5Z" transform="translate(-5.79 -5.79)"/><path class="cls-1" d="M31.55,60.71a7,7,0,0,1-7-7V48.28a.89.89,0,1,1,1.78,0v5.44a5.21,5.21,0,0,0,5.21,5.21,2.77,2.77,0,0,0,2.78-2.77h0V39.4h-8v4.44a.89.89,0,0,1-1.78,0V38.51a.89.89,0,0,1,.89-.89h9.77a.88.88,0,0,1,.88.89V56.16A4.55,4.55,0,0,1,31.55,60.71ZM45,30.52H39.65a.89.89,0,0,1,0-1.78H45a.89.89,0,0,1,0,1.78Zm5.33,5.33H39.65a.89.89,0,0,1,0-1.78H50.3a.89.89,0,0,1,0,1.78Zm0,5.32H39.65a.89.89,0,1,1,0-1.77H50.3a.89.89,0,1,1,0,1.77Zm10.23,23a.8.8,0,0,1-.34-.07l-3.67-1.56-3.67,1.56a.9.9,0,0,1-1.17-.47.86.86,0,0,1-.06-.42l.35-4-2.62-3A.89.89,0,0,1,49.43,55a.86.86,0,0,1,.39-.2l3.89-.89,2-3.42a.92.92,0,0,1,1.52,0l2,3.42,3.89.89a.9.9,0,0,1,.47,1.45l-2.62,3,.35,4a.89.89,0,0,1-.81,1Zm-4-3.48a.84.84,0,0,1,.35.07l2.65,1.13L59.26,59a.92.92,0,0,1,.22-.67l1.89-2.17-2.81-.65a.88.88,0,0,1-.56-.4l-1.48-2.48L55,55.1a.88.88,0,0,1-.57.41l-2.81.65,1.9,2.17a1,1,0,0,1,.21.67l-.25,2.87,2.65-1.13a.84.84,0,0,1,.35-.07ZM49,75.7a1,1,0,0,1-.35-.07L45,74.06l-3.66,1.57a.89.89,0,0,1-1.17-.47.91.91,0,0,1-.07-.43l.36-4-2.63-3a.89.89,0,0,1,.09-1.25.91.91,0,0,1,.39-.2l3.88-.89L44.21,62a.93.93,0,0,1,1.29-.24.91.91,0,0,1,.24.24l2,3.42,3.88.89a.89.89,0,0,1,.67,1.07.82.82,0,0,1-.2.38l-2.62,3,.36,4a.89.89,0,0,1-.81,1Zm-4-3.49a.84.84,0,0,1,.35.07L48,73.41l-.26-2.87a.89.89,0,0,1,.22-.66l1.89-2.18L47,67.06a.87.87,0,0,1-.56-.41L45,64.17l-1.48,2.48a.94.94,0,0,1-.56.41l-2.81.64L42,69.88a.89.89,0,0,1,.22.66L42,73.41l2.66-1.13a.8.8,0,0,1,.34-.07ZM72.08,75.7a1,1,0,0,1-.35-.07l-3.67-1.57-3.67,1.57a.89.89,0,0,1-1.16-.47.91.91,0,0,1-.07-.43l.35-4-2.62-3A.89.89,0,0,1,61,66.5a.93.93,0,0,1,.38-.2l3.89-.89,2-3.42a.92.92,0,0,1,1.28-.24.69.69,0,0,1,.24.24l2.05,3.42,3.89.89a.89.89,0,0,1,.67,1.07.93.93,0,0,1-.2.38l-2.62,3,.35,4a.88.88,0,0,1-.8,1Zm-4-3.49a.84.84,0,0,1,.35.07l2.65,1.13-.25-2.87a.84.84,0,0,1,.21-.66l1.9-2.18-2.81-.64a.92.92,0,0,1-.57-.41l-1.48-2.48-1.48,2.48a1,1,0,0,1-.56.41l-2.82.64,1.9,2.18a.84.84,0,0,1,.21.66l-.25,2.87,2.65-1.13a.84.84,0,0,1,.35-.07Z" transform="translate(-5.79 -5.79)"/></svg>