<svg id="Layer_1" data-name="Layer 1" xmlns="http://www.w3.org/2000/svg" viewBox="0 0 89.62 89.62"><defs><style>.cls-1,.cls-2{fill:#00156d;}.cls-2{fill-rule:evenodd;}</style></defs><path class="cls-1" d="M50,94.81A44.81,44.81,0,1,1,94.81,50,44.86,44.86,0,0,1,50,94.81ZM50,7.19A42.81,42.81,0,1,0,92.81,50,42.87,42.87,0,0,0,50,7.19Z" transform="translate(-5.19 -5.19)"/><path class="cls-1" d="M28.1,38.16c.15.33.3.65.47,1a16.57,16.57,0,0,0,14.85,8.58H78.56a24.91,24.91,0,0,1-6.83-8.61c-4.18-9.36-8.13-9.56-10.25-9.67h-40a20.85,20.85,0,0,1,6.66,8.73Zm3.64-.26a1.14,1.14,0,0,1,1.6.27,12.38,12.38,0,0,0,8.7,4.9,1.14,1.14,0,0,1-.11,2.28h-.12a14.46,14.46,0,0,1-10.33-5.85,1.14,1.14,0,0,1,.26-1.59Z" transform="translate(-5.19 -5.19)"/><path class="cls-2" d="M28.6,50.62a16.58,16.58,0,0,0,14.81,8.52H78.56a24.94,24.94,0,0,1-6.83-8.62c-.08-.19-.16-.34-.24-.52H43.42a18.94,18.94,0,0,1-16.49-9.14H21.44a20.85,20.85,0,0,1,6.66,8.73c.15.33.3.65.47,1Z" transform="translate(-5.19 -5.19)"/><path class="cls-2" d="M71.73,62c-.08-.19-.16-.34-.24-.52H43.41a18.93,18.93,0,0,1-16.49-9.15H21.44A20.94,20.94,0,0,1,28.1,61c.14.33.29.65.46,1a16.59,16.59,0,0,0,14.85,8.58H78.56A24.94,24.94,0,0,1,71.73,62Z" transform="translate(-5.19 -5.19)"/></svg>