<?xml version="1.0" encoding="utf-8"?>
<!-- Generator: Adobe Illustrator 25.0.0, SVG Export Plug-In . SVG Version: 6.00 Build 0)  -->
<svg version="1.1" id="Layer_1" xmlns="http://www.w3.org/2000/svg" xmlns:xlink="http://www.w3.org/1999/xlink" x="0px" y="0px"
	 viewBox="0 0 100 100" style="enable-background:new 0 0 100 100;" xml:space="preserve">
<style type="text/css">
	.st0{fill:none;stroke:#00156D;stroke-width:2;stroke-miterlimit:10;}
	.st1{fill:#00156D;}
</style>
<circle class="st0" cx="50" cy="50" r="44"/>
<g>
	<path class="st1" d="M33,62.2c-1.5,0-2.6,1.2-2.6,2.6c0,1.5,1.2,2.6,2.6,2.6c1.5,0,2.6-1.2,2.6-2.6C35.7,63.4,34.5,62.2,33,62.2z
		 M33,66c-0.6,0-1.1-0.5-1.1-1.1s0.5-1.1,1.1-1.1s1.1,0.5,1.1,1.1C34.1,65.5,33.6,66,33,66z M66.9,62.2c-1.5,0-2.6,1.2-2.6,2.6
		c0,1.5,1.2,2.6,2.6,2.6c1.5,0,2.6-1.2,2.6-2.6C69.6,63.4,68.4,62.2,66.9,62.2z M66.9,66c-0.6,0-1.1-0.5-1.1-1.1s0.5-1.1,1.1-1.1
		c0.6,0,1.1,0.5,1.1,1.1C68.1,65.5,67.6,66,66.9,66z M57.5,66c-1.5,0-2.6,1.2-2.6,2.6c0,1.5,1.2,2.6,2.6,2.6s2.6-1.2,2.6-2.6l0,0
		C60.2,67.2,59,66,57.5,66z M57.5,69.8c-0.6,0-1.1-0.5-1.1-1.1s0.5-1.1,1.1-1.1c0.6,0,1.1,0.5,1.1,1.1
		C58.6,69.3,58.1,69.8,57.5,69.8z M42.4,66c-1.5,0-2.6,1.2-2.6,2.6c0,1.5,1.2,2.6,2.6,2.6c1.5,0,2.6-1.2,2.6-2.6l0,0
		C45.1,67.2,43.9,66,42.4,66z M42.4,69.8c-0.6,0-1.1-0.5-1.1-1.1s0.5-1.1,1.1-1.1c0.6,0,1.1,0.5,1.1,1.1
		C43.6,69.3,43.1,69.8,42.4,69.8z M45.5,59.2c-1.5,0-2.6,1.2-2.6,2.6s1.2,2.6,2.6,2.6c1.5,0,2.6-1.2,2.6-2.6
		C48.1,60.3,46.9,59.2,45.5,59.2z M45.5,62.9c-0.6,0-1.1-0.5-1.1-1.1c0-0.6,0.5-1.1,1.1-1.1c0.6,0,1.1,0.5,1.1,1.1
		C46.6,62.4,46.1,62.9,45.5,62.9z M57.1,61.8c0-1.5-1.2-2.6-2.6-2.6s-2.6,1.2-2.6,2.6s1.2,2.6,2.6,2.6C56,64.4,57.1,63.3,57.1,61.8z
		 M54.5,62.9c-0.6,0-1.1-0.5-1.1-1.1c0-0.6,0.5-1.1,1.1-1.1s1.1,0.5,1.1,1.1C55.6,62.4,55.1,62.9,54.5,62.9z"/>
	<circle class="st1" cx="31.9" cy="59.6" r="1.1"/>
	<circle class="st1" cx="36.4" cy="69.4" r="1.1"/>
	<circle class="st1" cx="68.1" cy="59.6" r="1.1"/>
	<circle class="st1" cx="63.6" cy="69.4" r="1.1"/>
	<circle class="st1" cx="50" cy="69.1" r="1.1"/>
	<path class="st1" d="M59,50H40.9c-0.4,0-0.8,0.3-0.8,0.8s0.3,0.8,0.8,0.8H59c0.4,0,0.8-0.3,0.8-0.8S59.4,50,59,50z M64.3,50.8
		c0,0.4,0.3,0.8,0.8,0.8h5.3c0.4,0,0.8-0.3,0.8-0.8S70.8,50,70.3,50h-5.3C64.6,50,64.3,50.4,64.3,50.8z M29.6,51.5h5.3
		c0.4,0,0.8-0.3,0.8-0.8S35.3,50,34.9,50h-5.3c-0.4,0-0.8,0.3-0.8,0.8S29.2,51.5,29.6,51.5z M56.8,53.8c-1.3,0-2.6,0.3-3.7,0.8
		c-1,0.5-2,0.7-3.1,0.7c-1.1,0-2.1-0.2-3.1-0.7c-1.1-0.7-4.5-1.1-6.2-0.5c-0.4,0.1-0.6,0.6-0.5,1c0.1,0.4,0.5,0.6,0.9,0.5
		c0.7-0.2,1.3-0.3,2-0.3c3.3,0,3.3,1.5,6.8,1.5c3.5,0,3.5-1.5,6.8-1.5c0.7,0,1.4,0.1,2,0.3c0.4,0.1,0.8-0.1,0.9-0.5
		C60,53.7,57.8,53.9,56.8,53.8L56.8,53.8z M70.3,53.8c-2.8,0-3.3,0.9-5.4,1.4c-0.4,0.1-0.7,0.5-0.6,0.9c0.1,0.3,0.4,0.6,0.7,0.6
		c2.2-0.3,2.7-1.4,5.3-1.4c0.4,0,0.8-0.3,0.8-0.8C71.1,54.1,70.8,53.8,70.3,53.8L70.3,53.8z M35,55.2c-2.1-0.5-2.6-1.4-5.4-1.4
		c-0.4,0-0.8,0.3-0.8,0.8c0,0.4,0.3,0.8,0.8,0.8c2.6,0,3,1,5.3,1.4c0.4,0,0.7-0.4,0.7-0.8C35.6,55.6,35.4,55.3,35,55.2z M50,44.6
		c2.9,0,5.3-2.4,5.3-5.3c0-2.7-4.2-8.6-4.7-9.3c-0.3-0.3-0.8-0.4-1.1-0.1c0,0-0.1,0.1-0.1,0.1c-0.5,0.7-4.7,6.7-4.7,9.3
		C44.7,42.3,47.1,44.6,50,44.6z M50,31.8c1.7,2.5,3.8,6.1,3.8,7.5c0,2.1-1.7,3.8-3.8,3.8c-2.1,0-3.8-1.7-3.8-3.8
		C46.2,37.9,48.3,34.3,50,31.8z M62,47.7c2.1,0,3.8-1.7,3.8-3.8c0-1.8-2.6-5.6-3.2-6.4c-0.3-0.3-0.8-0.4-1.1-0.1
		c0,0-0.1,0.1-0.1,0.1c-0.5,0.7-3.2,4.5-3.2,6.4C58.3,46,60,47.7,62,47.7L62,47.7z M62,39.3c1.1,1.7,2.3,3.8,2.3,4.6
		c0,1.2-1,2.3-2.3,2.3s-2.3-1-2.3-2.3C59.8,43.1,61,41,62,39.3z M37.9,47.7c2.1,0,3.8-1.7,3.8-3.8c0-1.8-2.6-5.6-3.2-6.4
		c-0.3-0.3-0.8-0.4-1.1-0.1c0,0-0.1,0.1-0.1,0.1c-0.5,0.7-3.2,4.5-3.2,6.4C34.1,46,35.8,47.7,37.9,47.7z M37.9,39.3
		c1.1,1.7,2.3,3.8,2.3,4.6c0,1.2-1,2.3-2.3,2.3c-1.2,0-2.3-1-2.3-2.3C35.6,43.1,36.8,41,37.9,39.3z M40.3,58.7
		c-0.3-0.3-0.8-0.3-1.1,0l-0.6,0.6v-8.5c0-0.4-0.3-0.8-0.8-0.8s-0.8,0.3-0.8,0.8v8.5l-0.6-0.6c-0.3-0.3-0.8-0.3-1.1,0
		c-0.3,0.3-0.3,0.8,0,1l1.9,1.9c0.3,0.3,0.8,0.3,1.1,0l1.9-1.9C40.6,59.4,40.6,59,40.3,58.7z M64.5,59.7c0.3-0.3,0.3-0.8,0-1.1
		c-0.3-0.3-0.8-0.3-1,0l-0.6,0.6v-8.5c0-0.4-0.3-0.8-0.8-0.8c-0.4,0-0.8,0.3-0.8,0.8v8.5l-0.6-0.6c-0.3-0.3-0.8-0.3-1.1,0
		c-0.3,0.3-0.3,0.8,0,1l1.9,1.9c0.3,0.3,0.8,0.3,1.1,0L64.5,59.7z"/>
</g>
</svg>
