<svg id="Layer_1" data-name="Layer 1" xmlns="http://www.w3.org/2000/svg" xmlns:xlink="http://www.w3.org/1999/xlink" viewBox="0 0 89.62 89.62"><defs><style>.cls-1{fill:none;}.cls-2{fill:#00156d;}.cls-3{clip-path:url(#clip-path);}</style><clipPath id="clip-path" transform="translate(-5.19 -5.19)"><rect class="cls-1" x="27.89" y="27.89" width="44.21" height="44.21"/></clipPath></defs><path class="cls-2" d="M50,94.81A44.81,44.81,0,1,1,94.81,50,44.86,44.86,0,0,1,50,94.81ZM50,7.19A42.81,42.81,0,1,0,92.81,50,42.87,42.87,0,0,0,50,7.19Z" transform="translate(-5.19 -5.19)"/><g class="cls-3"><path class="cls-2" d="M66.93,72.11H33.07a5.19,5.19,0,0,1-5.18-5.18V33.07a5.19,5.19,0,0,1,5.18-5.18H66.93a5.19,5.19,0,0,1,5.18,5.18V66.93A5.19,5.19,0,0,1,66.93,72.11ZM33.07,31.35a1.72,1.72,0,0,0-1.72,1.72V66.93a1.72,1.72,0,0,0,1.72,1.72H66.93a1.72,1.72,0,0,0,1.72-1.72V33.07a1.72,1.72,0,0,0-1.72-1.72Z" transform="translate(-5.19 -5.19)"/><rect class="cls-2" x="28.65" y="43" width="10.55" height="3.45"/><rect class="cls-2" x="50.42" y="43" width="10.54" height="3.45"/><polygon class="cls-2" points="33.64 52.31 26.14 44.81 33.64 37.3 36.09 39.75 31.02 44.81 36.08 49.87 33.64 52.31"/><polygon class="cls-2" points="55.98 52.31 53.54 49.87 58.6 44.81 53.54 39.74 55.98 37.3 63.49 44.81 55.98 52.31"/></g></svg>